<svg width="25" height="24" viewBox="0 0 25 24" fill="none" xmlns="http://www.w3.org/2000/svg">
<path fill-rule="evenodd" clip-rule="evenodd" d="M3.99999 12C3.99999 10.3189 4.49851 8.67547 5.4325 7.27765C6.36649 5.87984 7.69401 4.79037 9.24718 4.14702C10.8004 3.50368 12.5094 3.33535 14.1583 3.66333C15.8071 3.9913 17.3217 4.80085 18.5104 5.98959C19.6991 7.17834 20.5087 8.69289 20.8367 10.3417C21.1646 11.9906 20.9963 13.6996 20.353 15.2528C19.7096 16.806 18.6202 18.1335 17.2223 19.0675C15.8245 20.0015 14.1811 20.5 12.5 20.5C10.8918 20.5029 9.31622 20.047 7.95799 19.186C7.83717 19.1096 7.70137 19.0599 7.55975 19.0404C7.41812 19.021 7.27396 19.0321 7.13699 19.073L4.25699 19.932L5.34199 17.395C5.40506 17.2473 5.43162 17.0866 5.41944 16.9264C5.40725 16.7663 5.35668 16.6115 5.27199 16.475C4.43792 15.1316 3.99724 13.5813 3.99999 12V12ZM12.5 1.5C6.70099 1.5 1.99999 6.201 1.99999 12C1.99999 13.838 2.47299 15.568 3.30499 17.073L1.57999 21.107C1.50533 21.2817 1.482 21.4741 1.51275 21.6617C1.54349 21.8492 1.62702 22.0241 1.75357 22.1658C1.88011 22.3076 2.04443 22.4104 2.22728 22.4621C2.41012 22.5139 2.60392 22.5124 2.78599 22.458L7.28599 21.116C8.87302 22.0255 10.6709 22.5027 12.5 22.5C18.299 22.5 23 17.799 23 12C23 6.201 18.299 1.5 12.5 1.5ZM14.793 14.182L13.478 15.108C12.7535 14.6912 12.0882 14.1789 11.5 13.585C10.8685 12.9544 10.3225 12.2437 9.87599 11.471L10.711 10.762C10.885 10.6144 11.0033 10.4117 11.0462 10.1876C11.0891 9.96351 11.0541 9.73147 10.947 9.53L9.88299 7.53C9.81218 7.39718 9.71231 7.28205 9.59081 7.1932C9.46931 7.10436 9.32932 7.04408 9.18128 7.01688C9.03324 6.98967 8.88097 6.99624 8.73582 7.03608C8.59067 7.07593 8.45639 7.14803 8.34299 7.247L8.02699 7.522C7.26799 8.184 6.81899 9.272 7.19099 10.374C7.7895 12.1171 8.7799 13.6997 10.086 15C11.899 16.813 13.741 17.527 14.819 17.805C15.687 18.028 16.508 17.729 17.087 17.257L17.678 16.775C17.8026 16.6734 17.9009 16.5432 17.9645 16.3956C18.0281 16.2479 18.0551 16.0871 18.0433 15.9268C18.0316 15.7664 17.9813 15.6113 17.8968 15.4745C17.8123 15.3377 17.6961 15.2233 17.558 15.141L15.88 14.141C15.7141 14.042 15.523 13.9932 15.3299 14.0004C15.1368 14.0077 14.95 14.0708 14.792 14.182H14.793Z" fill="#555555"/>
</svg>
