<svg xmlns="http://www.w3.org/2000/svg">
<defs>
<font id="MonaSans-SemiBold" horiz-adv-x="0" >
  <font-face 
    font-family="Mona Sans SemiBold"
    font-weight="600"
    font-stretch="normal"
    units-per-em="1000"
    panose-1="0 0 0 0 0 0 0 0 0 0"
    ascent="800"
    descent="-200"
    x-height="532"
    cap-height="729"
    bbox="-221 -240 1169 1005"
    underline-thickness="50"
    underline-position="-175"
    unicode-range="U+0020-FB02"
  />
<missing-glyph horiz-adv-x="865" 
d="M432 738q80 0 149.5 -29.5t122 -82t82 -122t29.5 -148.5q0 -85 -33.5 -158.5t-92 -127t-134.5 -78.5q-12 -3 -19.5 2t-7.5 16v105q0 26 -8 44.5t-18 26.5q32 4 63.5 13t56.5 29.5t40 56t15 91.5q0 30 -10.5 56t-29.5 45q3 8 8 35t-12 67l-11 0.5t-33.5 -7t-59.5 -33.5
q-24 8 -48 11t-49 3q-24 0 -48 -3t-48 -11q-36 26 -59 33.5t-34 7l-11 -0.5q-16 -40 -11.5 -67t7.5 -35q-19 -19 -29.5 -45t-10.5 -56q0 -55 15 -90.5t40 -56t56.5 -30t63.5 -13.5q-8 -7 -15.5 -20.5t-10.5 -31.5q-10 -4 -30 -8t-41.5 3t-37.5 36l-7 9.5t-20.5 20
t-32.5 11.5l-7.5 -1t-9 -6t15.5 -17l14 -11t26 -45l5.5 -10t19.5 -21.5t39.5 -17t65.5 2.5v-70q0 -11 -7 -16t-18 -2q-77 25 -136 78.5t-92.5 127t-33.5 158.5q0 79 29.5 148.5t82 122t122 82t148.5 29.5zM196 189q-1 -4 -8 -2q-4 3 -3 5q0 2 2 2.5t4 -2.5q5 0 5 -3z
M209 171q-1 -2 -3 -1l-4 2q-5 5 -2 8q5 3 9 -1q2 -7 0 -8zM227 148q-2 -1 -5.5 0t-5.5 3q-1 2 -1 5.5t1 4.5q5 3 11 -3q2 -7 0 -10zM246 127q-5 -5 -9 2q-6 6 -3 10q5 3 10 -2q5 -7 2 -10zM274 115q-2 -5 -10 -3q-5 3 -5 8q2 6 10 3q5 -2 5 -8zM334 118q2 -2 -1 -4t-6 -3
q-8 0 -8 4q-1 2 1 4.5t6 2.5q3 1 5.5 -0.5t2.5 -3.5zM305 114q0 -5 -7 -9q-3 0 -5 3.5t-2 5.5q0 4 7 4t7 -4z" />
    <glyph glyph-name="fl" unicode="fl" horiz-adv-x="622" 
d="M103 0v431h-92v101h92v68q0 63 38.5 96t107.5 33h102v-85h-67q-33 0 -44.5 -14t-11.5 -37v-61h202v197h125v-729h-125v431h-202v-431h-125z" />
    <glyph glyph-name="f_f.liga" unicode="ff" horiz-adv-x="663" 
d="M103 0v431h-92v101h92v68q0 63 38.5 96t107.5 33h102v-85h-67q-33 0 -44.5 -14t-11.5 -37v-61h187v68q0 63 39 96t108 33h101v-85h-66q-33 0 -45 -14t-12 -37v-61h113v-101h-113v-431h-125v431h-187v-431h-125z" />
    <glyph glyph-name="t_t.liga" unicode="tt" horiz-adv-x="694" 
d="M232 0q-74 0 -100 32t-26 89v310h-98v101h98v150l124 13v-163h198v150l124 13v-163h113v-101h-113v-287q0 -25 11 -33.5t34 -8.5h68v-102h-111q-74 0 -100 32t-26 89v310h-198v-287q0 -25 11 -33.5t34 -8.5h68v-102h-111z" />
    <glyph glyph-name=".notdef" horiz-adv-x="865" 
d="M432 738q80 0 149.5 -29.5t122 -82t82 -122t29.5 -148.5q0 -85 -33.5 -158.5t-92 -127t-134.5 -78.5q-12 -3 -19.5 2t-7.5 16v105q0 26 -8 44.5t-18 26.5q32 4 63.5 13t56.5 29.5t40 56t15 91.5q0 30 -10.5 56t-29.5 45q3 8 8 35t-12 67l-11 0.5t-33.5 -7t-59.5 -33.5
q-24 8 -48 11t-49 3q-24 0 -48 -3t-48 -11q-36 26 -59 33.5t-34 7l-11 -0.5q-16 -40 -11.5 -67t7.5 -35q-19 -19 -29.5 -45t-10.5 -56q0 -55 15 -90.5t40 -56t56.5 -30t63.5 -13.5q-8 -7 -15.5 -20.5t-10.5 -31.5q-10 -4 -30 -8t-41.5 3t-37.5 36l-7 9.5t-20.5 20
t-32.5 11.5l-7.5 -1t-9 -6t15.5 -17l14 -11t26 -45l5.5 -10t19.5 -21.5t39.5 -17t65.5 2.5v-70q0 -11 -7 -16t-18 -2q-77 25 -136 78.5t-92.5 127t-33.5 158.5q0 79 29.5 148.5t82 122t122 82t148.5 29.5zM196 189q-1 -4 -8 -2q-4 3 -3 5q0 2 2 2.5t4 -2.5q5 0 5 -3z
M209 171q-1 -2 -3 -1l-4 2q-5 5 -2 8q5 3 9 -1q2 -7 0 -8zM227 148q-2 -1 -5.5 0t-5.5 3q-1 2 -1 5.5t1 4.5q5 3 11 -3q2 -7 0 -10zM246 127q-5 -5 -9 2q-6 6 -3 10q5 3 10 -2q5 -7 2 -10zM274 115q-2 -5 -10 -3q-5 3 -5 8q2 6 10 3q5 -2 5 -8zM334 118q2 -2 -1 -4t-6 -3
q-8 0 -8 4q-1 2 1 4.5t6 2.5q3 1 5.5 -0.5t2.5 -3.5zM305 114q0 -5 -7 -9q-3 0 -5 3.5t-2 5.5q0 4 7 4t7 -4z" />
    <glyph glyph-name=".null" 
 />
    <glyph glyph-name="nonmarkingreturn" horiz-adv-x="333" 
 />
    <glyph glyph-name="space" unicode=" " horiz-adv-x="218" 
 />
    <glyph glyph-name="exclam" unicode="!" horiz-adv-x="270" 
d="M103 212l-32 278v239h128v-239l-31 -278h-65zM77 0v122h116v-122h-116z" />
    <glyph glyph-name="quotedbl" unicode="&#x22;" horiz-adv-x="451" 
d="M149 396h-56l-28 180v153h111v-153zM359 396h-56l-28 180v153h111v-153z" />
    <glyph glyph-name="numbersign" unicode="#" horiz-adv-x="676" 
d="M142 0v184h-108v100h108v172h-108v100h108v174h111v-174h174v174h110v-174h104v-100h-104v-172h104v-100h-104v-184h-110v184h-174v-184h-111zM253 284h174v172h-174v-172z" />
    <glyph glyph-name="dollar" unicode="$" horiz-adv-x="646" 
d="M283 -85v77q-122 10 -183 74.5t-62 161.5h134q1 -62 37.5 -99t117.5 -37q64 0 102.5 25t38.5 77q0 39 -16 61.5t-53.5 35.5t-101.5 24q-75 14 -129.5 37t-84.5 64t-30 107q0 91 61 147.5t169 65.5v79h78v-79q103 -10 162 -67.5t60 -145.5h-132q-3 59 -40.5 87t-94.5 28
q-59 0 -92.5 -26.5t-33.5 -71.5q0 -37 17 -56.5t55 -30.5t101 -22q46 -8 89.5 -20.5t77.5 -35.5t54.5 -63.5t20.5 -105.5q0 -89 -62 -147t-182 -67v-77h-78z" />
    <glyph glyph-name="percent" unicode="%" horiz-adv-x="868" 
d="M158 0l463 729h89l-464 -729h-88zM195 336q-71 0 -110.5 53t-39.5 143q0 92 41.5 143t110.5 51q70 0 109.5 -53t39.5 -143q0 -93 -42 -143.5t-109 -50.5zM195 408q28 0 46.5 24.5t18.5 98.5t-18.5 98t-46.5 24q-18 0 -32.5 -10t-23 -36.5t-8.5 -75.5q0 -74 18 -98.5
t46 -24.5zM672 -4q-71 0 -110.5 53.5t-39.5 142.5q0 93 42 143.5t110 50.5q70 0 109.5 -53t39.5 -142q0 -94 -41.5 -144.5t-109.5 -50.5zM673 69q18 0 32.5 10t23 36.5t8.5 75.5q0 50 -8.5 76.5t-23 36.5t-32.5 10t-33 -10t-23.5 -36.5t-8.5 -76.5q0 -49 8.5 -75.5
t23.5 -36.5t33 -10z" />
    <glyph glyph-name="ampersand" unicode="&#x26;" horiz-adv-x="728" 
d="M271 -10q-63 0 -113.5 22.5t-80 66.5t-29.5 108q0 65 41.5 121t116.5 87q-38 40 -60 81t-22 88q0 51 25.5 90.5t71 62t105.5 22.5q54 0 96.5 -21.5t66 -60t23.5 -87.5q0 -64 -40.5 -111t-104.5 -71v-5l136 -151q16 30 25 73t10 82h176v-93h-90q-6 -36 -19 -74t-31 -65
l142 -155h-151l-72 81q-38 -46 -97.5 -68.5t-124.5 -22.5zM303 448h6q43 17 68.5 45.5t25.5 66.5q0 34 -21 56t-56 22q-39 0 -61 -23.5t-22 -56.5q0 -32 17.5 -58t42.5 -52zM172 202q0 -53 34 -81t85 -28q44 0 78 17t55 47l-156 172q-44 -20 -70 -52.5t-26 -74.5z" />
    <glyph glyph-name="quotesingle" unicode="'" horiz-adv-x="241" 
d="M149 396h-56l-28 180v153h111v-153z" />
    <glyph glyph-name="parenleft" unicode="(" horiz-adv-x="365" 
d="M226 -167q-56 53 -96 130t-61.5 167t-21.5 183t21.5 183t61.5 167t96 130h109q-52 -54 -89 -131t-57.5 -167t-20.5 -182q0 -95 21 -185t58.5 -166t87.5 -129h-109z" />
    <glyph glyph-name="parenright" unicode=")" horiz-adv-x="365" 
d="M138 793q56 -53 96.5 -130t62 -167t21.5 -183t-21.5 -183t-62 -167t-96.5 -130h-108q51 54 88.5 131t57.5 167t20 182q0 95 -21 185t-58 166t-87 129h108z" />
    <glyph glyph-name="asterisk" unicode="*" horiz-adv-x="325" 
d="M135 448v50l13 64l-50 -43l-44 -24l-27 46l43 25l61 23l-61 22l-43 24l27 47l44 -24l50 -42l-13 64v49h55v-49l-13 -64l51 42l44 24l26 -47l-43 -24l-61 -22l61 -23l43 -25l-26 -46l-44 24l-51 43l13 -64v-50h-55z" />
    <glyph glyph-name="plus" unicode="+" horiz-adv-x="545" 
d="M222 123v188h-187v99h187v188h102v-188h186v-99h-186v-188h-102z" />
    <glyph glyph-name="comma" unicode="," horiz-adv-x="219" 
d="M29 -164v64l17 1q30 1 42 16.5t12 41.5v41h-56v120h122v-167q0 -63 -28 -89t-77 -27z" />
    <glyph glyph-name="hyphen" unicode="-" horiz-adv-x="374" 
d="M30 213v106h314v-106h-314z" />
    <glyph glyph-name="period" unicode="." horiz-adv-x="227" 
d="M53 0v120h121v-120h-121z" />
    <glyph glyph-name="slash" unicode="/" horiz-adv-x="505" 
d="M30 -82l304 811h120l-304 -811h-120z" />
    <glyph glyph-name="zero" unicode="0" horiz-adv-x="602" 
d="M301 -8q-83 0 -143 44.5t-92 127t-32 198.5q0 119 33.5 201t94 124.5t141.5 42.5q83 0 142.5 -44t91.5 -126.5t32 -198.5q0 -119 -33.5 -201.5t-94 -125t-140.5 -42.5zM302 98q43 0 74.5 25.5t49.5 83.5t18 155t-18 154.5t-49.5 82.5t-74.5 25q-44 0 -76 -25t-49.5 -82.5
t-17.5 -154.5t17.5 -155t49.5 -83.5t76 -25.5z" />
    <glyph glyph-name="one" unicode="1" horiz-adv-x="424" 
d="M204 0v503h-178v95h29q72 0 111 34t44 89h119v-721h-125z" />
    <glyph glyph-name="two" unicode="2" horiz-adv-x="584" 
d="M42 0v19q0 73 26 126t67 93t87 72t87 62t67 63t26 76q0 52 -32 81.5t-85 29.5q-55 0 -88.5 -34t-29.5 -96h-123q-2 72 28.5 125.5t87.5 83t133 29.5q72 0 125.5 -26t83 -73.5t29.5 -112.5q0 -54 -20.5 -96t-54.5 -75.5t-73.5 -62t-77 -55.5t-66 -55.5t-40.5 -63.5h340
v-110h-497z" />
    <glyph glyph-name="three" unicode="3" horiz-adv-x="602" 
d="M291 -9q-79 0 -136 29t-87.5 81t-31.5 122h124q-1 -56 35 -90.5t96 -34.5t96 31.5t36 85.5q0 53 -32.5 80t-84.5 27h-85v95h76q56 0 85.5 29.5t29.5 74.5q0 49 -32.5 75.5t-86.5 26.5q-60 0 -93 -33t-34 -89h-124q1 70 32.5 121t89 79.5t134.5 28.5q73 0 127.5 -23.5
t84.5 -67t30 -101.5q0 -59 -30 -102t-78 -60v-5q57 -15 88 -60t31 -107q0 -64 -33 -112t-91.5 -74.5t-135.5 -26.5z" />
    <glyph glyph-name="four" unicode="4" horiz-adv-x="646" 
d="M386 0l-1 171h-345v95l312 455h159v-447h96l-1 -103h-95v-171h-125zM166 274h220v316z" />
    <glyph glyph-name="five" unicode="5" horiz-adv-x="616" 
d="M304 -9q-77 0 -133.5 28.5t-88.5 80t-33 119.5h126q1 -53 36.5 -86t93.5 -33q64 0 99.5 38.5t35.5 99.5q0 64 -36.5 102.5t-98.5 38.5q-47 0 -78.5 -21.5t-44.5 -54.5h-118l18 418h445v-109h-335l-8 -182l5 -2q22 25 60.5 40t82.5 15q72 0 125 -31t81.5 -85.5
t28.5 -125.5q0 -75 -32 -131t-91 -87.5t-140 -31.5z" />
    <glyph glyph-name="six" unicode="6" horiz-adv-x="613" 
d="M314 -9q-129 0 -198.5 86.5t-69.5 260.5q0 200 71 296t206 96q106 0 169.5 -52.5t71.5 -140.5h-121q-7 40 -40 62.5t-81 22.5q-57 0 -89.5 -30t-46.5 -85t-14 -130h6q18 44 62.5 71t107.5 27q67 0 117 -29.5t78.5 -83t28.5 -124.5q0 -78 -33 -133t-91 -84.5t-134 -29.5z
M316 100q59 0 94.5 38.5t35.5 102.5q0 65 -35 102t-94 37q-61 0 -96.5 -40t-35.5 -102q0 -64 36 -101t95 -37z" />
    <glyph glyph-name="seven" unicode="7" horiz-adv-x="612" 
d="M203 0q0 141 30 251t77 198t99 163h-265v-133h-100v242h514v-90q-46 -66 -86 -131.5t-70 -139t-47 -161.5t-17 -199h-135z" />
    <glyph glyph-name="eight" unicode="8" horiz-adv-x="617" 
d="M309 -7q-80 0 -139.5 24t-92.5 69t-33 107q0 63 36.5 111t101.5 59v5q-62 14 -93.5 59.5t-31.5 104.5q0 88 66.5 143t185.5 55q118 0 185.5 -55.5t67.5 -144.5q0 -57 -31.5 -103t-95.5 -59v-5q66 -10 102 -57t36 -112q0 -62 -33 -107t-92.5 -69.5t-138.5 -24.5zM309 414
q64 0 95 29.5t31 75.5q0 50 -34.5 78.5t-91.5 28.5q-59 0 -92 -29t-33 -78q0 -48 31.5 -76.5t93.5 -28.5zM309 101q61 0 96.5 29t35.5 80q0 46 -32.5 75t-99.5 29q-68 0 -100 -30t-32 -74q0 -53 36 -81t96 -28z" />
    <glyph glyph-name="nine" unicode="9" horiz-adv-x="613" 
d="M295 -9q-105 0 -168.5 53t-72.5 140h122q6 -39 38.5 -61.5t81.5 -22.5q56 0 88 29.5t44.5 84.5t12.5 130h-6q-18 -43 -62.5 -70t-107.5 -27q-67 0 -117 29.5t-78 83t-28 124.5q0 77 32.5 132.5t90.5 84.5t134 29q129 0 198.5 -86.5t69.5 -261.5q0 -139 -31.5 -225
t-92.5 -126t-148 -40zM296 342q62 0 97 40t35 102q0 63 -36 100t-96 37q-58 0 -93.5 -38.5t-35.5 -102.5t35 -101t94 -37z" />
    <glyph glyph-name="colon" unicode=":" horiz-adv-x="227" 
d="M53 413v119h121v-119h-121zM53 0v120h121v-120h-121z" />
    <glyph glyph-name="semicolon" unicode=";" horiz-adv-x="219" 
d="M44 413v119h122v-119h-122zM29 -164v64l17 1q30 1 42 16.5t12 41.5v41h-56v120h122v-167q0 -63 -28 -89t-77 -27z" />
    <glyph glyph-name="less" unicode="&#x3c;" horiz-adv-x="687" 
d="M591 101l-495 188v141l495 190v-124l-371 -131v-10l371 -129v-125z" />
    <glyph glyph-name="equal" unicode="=" horiz-adv-x="663" 
d="M94 427v99h476v-99h-476zM94 196v98h476v-98h-476z" />
    <glyph glyph-name="greater" unicode="&#x3e;" horiz-adv-x="687" 
d="M96 101v125l372 129v10l-372 131v124l495 -190v-141z" />
    <glyph glyph-name="question" unicode="?" horiz-adv-x="560" 
d="M231 203v18q0 42 16 74.5t40 60t47.5 54t39.5 55.5t16 65q0 51 -30 76.5t-80 25.5q-56 0 -88 -32t-32 -83h-122q-1 66 30 116t87 77.5t131 27.5q116 0 174.5 -54t58.5 -142q0 -49 -17.5 -86t-43.5 -67t-52 -57.5t-44 -55.5t-18 -61v-12h-113zM227 0v120h122v-120h-122z
" />
    <glyph glyph-name="at" unicode="@" horiz-adv-x="886" 
d="M454 -101q-129 0 -222.5 52t-144 146t-50.5 219q0 94 30.5 171.5t86 133.5t132 86.5t168.5 30.5q115 0 204 -46.5t139.5 -130t50.5 -195.5q0 -79 -24.5 -138t-67 -92t-96.5 -33q-47 0 -76.5 24.5t-38.5 64.5h-7q-14 -40 -46 -62t-74 -22q-66 0 -108.5 49t-42.5 139
q0 103 46.5 160.5t122.5 57.5q37 0 65.5 -20t40.5 -53h6l11 63h59l-16 -216q-4 -57 11.5 -81.5t45.5 -24.5q47 0 75 49t28 129q0 96 -40 162.5t-109 101.5t-157 35q-105 0 -178 -44.5t-111.5 -121t-38.5 -173.5q0 -106 40 -182.5t114.5 -118t176.5 -41.5q67 0 120.5 17.5
t90.5 46.5l33 -66q-26 -23 -66 -40.5t-87.5 -27t-95.5 -9.5zM433 183q44 0 68.5 37t27.5 97q-2 62 -24.5 92.5t-60.5 30.5q-46 0 -69 -39t-23 -100q0 -58 22 -88t59 -30z" />
    <glyph glyph-name="A" unicode="A" horiz-adv-x="692" 
d="M2 0l251 729h186l251 -729h-137l-55 160h-304l-54 -160h-138zM226 262h241l-72 205l-46 141h-5l-47 -141z" />
    <glyph glyph-name="B" unicode="B" horiz-adv-x="709" 
d="M84 0v729h347q109 0 165 -51.5t56 -135.5q0 -57 -28.5 -101t-84.5 -59v-7q65 -13 99 -59.5t34 -108.5q0 -101 -67.5 -154t-188.5 -53h-332zM212 422h193q58 0 86 28t28 74q0 50 -33 76.5t-89 26.5h-185v-205zM212 103h190q69 0 102 31t33 81q0 54 -34 81t-92 27h-199
v-220z" />
    <glyph glyph-name="C" unicode="C" horiz-adv-x="771" 
d="M399 -9q-109 0 -190 44.5t-126.5 128.5t-45.5 201q0 116 45.5 199.5t127 128.5t189.5 45q92 0 163.5 -32t116.5 -89.5t56 -135.5h-135q-14 63 -67.5 103t-133.5 40q-104 0 -164.5 -66.5t-60.5 -192.5q0 -128 60.5 -194t164.5 -66q79 0 134 39.5t67 104.5h135
q-10 -78 -55 -136t-117.5 -90t-163.5 -32z" />
    <glyph glyph-name="D" unicode="D" horiz-adv-x="757" 
d="M84 0v729h302q107 0 181.5 -45.5t113 -128t38.5 -191.5t-39 -191t-113 -127.5t-181 -45.5h-302zM216 114h150q64 0 113 25.5t77 81t28 146.5q0 89 -27.5 144t-77 80t-113.5 25h-150v-502z" />
    <glyph glyph-name="E" unicode="E" horiz-adv-x="655" 
d="M84 0v729h520v-114h-388v-190h339v-107h-339v-204h390v-114h-522z" />
    <glyph glyph-name="F" unicode="F" horiz-adv-x="630" 
d="M84 0v729h519v-114h-387v-208h347v-108h-347v-299h-132z" />
    <glyph glyph-name="G" unicode="G" horiz-adv-x="789" 
d="M396 -9q-112 0 -192 47t-123.5 131t-43.5 196q0 116 46 200t128 128.5t191 44.5q94 0 166 -31.5t116 -88.5t53 -132h-136q-14 65 -68 101.5t-131 36.5q-104 0 -166.5 -66t-62.5 -193t61 -195t164 -68q95 0 153.5 49.5t64.5 136.5h-216v96h351v-61q0 -101 -44 -175.5
t-124 -115.5t-187 -41z" />
    <glyph glyph-name="H" unicode="H" horiz-adv-x="807" 
d="M84 0v729h132v-303h376v303h132v-729h-132v313h-376v-313h-132z" />
    <glyph glyph-name="I" unicode="I" horiz-adv-x="299" 
d="M84 0v729h132v-729h-132z" />
    <glyph glyph-name="J" unicode="J" horiz-adv-x="417" 
d="M118 -7q-31 0 -58.5 5.5t-44.5 13.5v108q14 -8 33 -13t43 -5q55 0 82.5 26t27.5 81v520h132v-530q0 -110 -58.5 -158t-156.5 -48z" />
    <glyph glyph-name="K" unicode="K" horiz-adv-x="714" 
d="M84 0v729h132v-364l318 364h159l-274 -303l279 -426h-157l-213 331l-112 -122v-209h-132z" />
    <glyph glyph-name="L" unicode="L" horiz-adv-x="561" 
d="M84 0v729h132v-611h336v-118h-468z" />
    <glyph glyph-name="M" unicode="M" horiz-adv-x="927" 
d="M84 0v729h204l174 -518h5l173 518h204v-729h-129v315l3 275h-7l-191 -590h-112l-190 590h-7l2 -277v-313h-129z" />
    <glyph glyph-name="N" unicode="N" horiz-adv-x="798" 
d="M84 0v729h160l342 -549h6l-5 238v311h127v-729h-152l-341 540h-7l4 -218v-322h-134z" />
    <glyph glyph-name="O" unicode="O" horiz-adv-x="801" 
d="M400 -9q-109 0 -190.5 44.5t-127 128.5t-45.5 201t45.5 200.5t127 128t190.5 44.5t191 -44.5t127 -128.5t45 -200q0 -118 -45.5 -201.5t-127 -128t-190.5 -44.5zM400 105q104 0 165.5 67t61.5 193t-61.5 192.5t-165.5 66.5t-165 -66.5t-61 -192.5q0 -127 61.5 -193.5
t164.5 -66.5z" />
    <glyph glyph-name="P" unicode="P" horiz-adv-x="669" 
d="M84 0v729h303q117 0 187.5 -61.5t70.5 -173.5q0 -71 -31 -124.5t-88.5 -83.5t-138.5 -30l-171 1v-257h-132zM365 616h-149v-255l149 -1q62 0 103.5 30t41.5 99t-42 98t-103 29z" />
    <glyph glyph-name="Q" unicode="Q" horiz-adv-x="801" 
d="M671 -173l-280 164q-106 2 -185.5 47t-124 128t-44.5 199q0 117 45.5 200.5t127 128t190.5 44.5t191 -44.5t127 -128.5t45 -200q0 -139 -66.5 -231t-183.5 -122l180 -69v-116h-22zM400 105q104 0 165.5 67t61.5 193t-61.5 192.5t-165.5 66.5t-165 -66.5t-61 -192.5
q0 -127 61.5 -193.5t164.5 -66.5z" />
    <glyph glyph-name="R" unicode="R" horiz-adv-x="726" 
d="M84 0v729h350q123 0 185 -53t62 -152q0 -66 -33.5 -113t-93.5 -62v-7q57 -11 83.5 -46t26.5 -96v-118q0 -20 1.5 -40.5t10.5 -41.5h-133q-7 14 -9.5 35t-2.5 48v94q0 51 -24 78t-96 27h-195v-282h-132zM216 388h199q70 0 100.5 33.5t30.5 84.5q0 61 -36.5 87t-94.5 26
h-199v-231z" />
    <glyph glyph-name="S" unicode="S" horiz-adv-x="667" 
d="M333 -9q-146 0 -220 66t-75 171h135q1 -61 40 -98t125 -37q68 0 109 25t41 76q0 39 -16.5 61.5t-56 35.5t-108.5 24q-125 21 -189 67t-64 141q0 99 73.5 157t203.5 58q84 0 145 -27t94 -75.5t33 -112.5h-133q-3 59 -43 86.5t-101 27.5q-63 0 -99 -26.5t-36 -70.5
q0 -37 19 -56.5t59.5 -30.5t107.5 -22q47 -8 91.5 -20t80 -35.5t56.5 -64t21 -104.5q0 -96 -74 -156t-219 -60z" />
    <glyph glyph-name="T" unicode="T" horiz-adv-x="597" 
d="M231 0v614h-222v115h580v-115h-226v-614h-132z" />
    <glyph glyph-name="U" unicode="U" horiz-adv-x="764" 
d="M382 -9q-96 0 -164 34.5t-104 98t-36 150.5v455h131v-454q0 -83 46.5 -124.5t127.5 -41.5q86 0 129.5 44.5t43.5 121.5v454h131v-455q0 -88 -37 -151.5t-105.5 -97.5t-162.5 -34z" />
    <glyph glyph-name="V" unicode="V" horiz-adv-x="708" 
d="M265 0l-260 729h147l159 -479l40 -125h7l38 125l161 479h147l-260 -729h-179z" />
    <glyph glyph-name="W" unicode="W" horiz-adv-x="974" 
d="M166 0l-158 729h146l75 -385l36 -199h7l134 584h164l136 -586h7l34 200l73 386h146l-158 -729h-183l-134 554h-7l-136 -554h-182z" />
    <glyph glyph-name="X" unicode="X" horiz-adv-x="709" 
d="M-1 0l268 391l-236 338h155l165 -252h4l165 252h155l-233 -337l268 -392h-157l-198 297h-4l-199 -297h-153z" />
    <glyph glyph-name="Y" unicode="Y" horiz-adv-x="679" 
d="M272 0v282l-270 447h151l182 -318h7l184 318h150l-272 -447v-282h-132z" />
    <glyph glyph-name="Z" unicode="Z" horiz-adv-x="646" 
d="M39 0v111l393 504h-376v114h540v-112l-394 -503h404v-114h-567z" />
    <glyph glyph-name="bracketleft" unicode="[" horiz-adv-x="350" 
d="M84 -167v960h257v-96h-140v-769h140v-95h-257z" />
    <glyph glyph-name="backslash" unicode="\" horiz-adv-x="505" 
d="M355 -82l-304 811h120l304 -811h-120z" />
    <glyph glyph-name="bracketright" unicode="]" horiz-adv-x="350" 
d="M266 793v-960h-257v96h140v769h-140v95h257z" />
    <glyph glyph-name="asciicircum" unicode="^" horiz-adv-x="459" 
d="M24 471l140 258h130l140 -258h-117l-88 160l-89 -160h-116z" />
    <glyph glyph-name="underscore" unicode="_" horiz-adv-x="372" 
d="M0 -106v106h372v-106h-372z" />
    <glyph glyph-name="grave" unicode="`" horiz-adv-x="500" 
d="M248 740l-89 143h125l58 -143h-94z" />
    <glyph glyph-name="a" unicode="a" horiz-adv-x="623" 
d="M248 -9q-96 0 -155 70t-59 205q0 136 59 206t155 70q65 0 111 -29.5t65 -78.5h7l5 98h120v-532h-125v99h-7q-19 -48 -65 -78t-111 -30zM295 93q44 0 74 21t45 54t15 71v55q0 38 -15 71.5t-45 54t-74 20.5q-60 0 -97 -43t-37 -131q0 -87 37 -130t97 -43z" />
    <glyph glyph-name="b" unicode="b" horiz-adv-x="623" 
d="M374 -10q-64 0 -110 30t-65 78h-7l-5 -98h-120v729h125v-295h7q19 48 65 78t110 30q97 0 156 -70t59 -206q0 -135 -59 -205.5t-156 -70.5zM328 92q60 0 97 43.5t37 130.5q0 88 -37 131t-97 43q-45 0 -75 -21t-45 -54t-15 -71v-56q0 -37 15 -70.5t45 -54.5t75 -21z" />
    <glyph glyph-name="c" unicode="c" horiz-adv-x="568" 
d="M295 -9q-79 0 -138 34t-91 96t-32 145t32.5 145t92 96.5t140.5 34.5q67 0 119 -25t83.5 -70t34.5 -103h-122q-8 47 -40.5 71t-77.5 24q-66 0 -101 -47.5t-35 -125.5q0 -85 37 -128.5t98 -43.5q52 0 84 27.5t37 71.5h122q-4 -61 -36 -106.5t-85.5 -70.5t-121.5 -25z" />
    <glyph glyph-name="d" unicode="d" horiz-adv-x="623" 
d="M248 -9q-96 0 -155 70t-59 205q0 136 59 206t155 70q65 0 111 -29.5t65 -78.5h7v295h125l-1 -729h-120l-4 99h-7q-19 -48 -65 -78t-111 -30zM295 93q44 0 74 21t45 54t15 71v55q0 38 -15 71.5t-45 54t-74 20.5q-60 0 -97 -43t-37 -131q0 -87 37 -130t97 -43z" />
    <glyph glyph-name="e" unicode="e" horiz-adv-x="561" 
d="M288 -9q-81 0 -138 33.5t-86.5 95t-29.5 143.5q0 85 30 147.5t86 97t134 34.5q87 0 143.5 -39t81.5 -107t18 -156h-371q0 -77 36 -115.5t96 -38.5q47 0 78 22t40 58h118q-7 -54 -39 -93.5t-83 -60.5t-114 -21zM284 447q-55 0 -88.5 -33t-38.5 -93h247q-2 64 -35.5 95
t-84.5 31z" />
    <glyph glyph-name="f" unicode="f" horiz-adv-x="338" 
d="M95 0v432h-84v100h84v67q0 64 38.5 97t108.5 33h92v-88h-59q-32 0 -43.5 -13.5t-11.5 -37.5v-58h105v-100h-105v-432h-125z" />
    <glyph glyph-name="g" unicode="g" horiz-adv-x="607" 
d="M284 -177q-100 0 -159.5 42.5t-66.5 114.5h120q6 -31 35 -49t74 -18q68 0 100.5 29.5t32.5 93.5v98h-7q-18 -46 -62.5 -74.5t-105.5 -28.5q-96 0 -153.5 66t-57.5 190t58.5 189.5t154.5 65.5q60 0 104 -28t62 -73h7l4 91h121v-476q0 -86 -32.5 -137t-91.5 -73.5
t-137 -22.5zM290 128q42 0 70.5 18.5t43.5 47.5t16 61v64q-1 32 -16 60.5t-43 47t-70 18.5q-59 0 -94.5 -40.5t-35.5 -117.5q0 -79 35.5 -119t93.5 -40z" />
    <glyph glyph-name="h" unicode="h" horiz-adv-x="624" 
d="M67 0v729h125v-298h6q23 55 70 83t105 28q54 0 96.5 -22.5t67.5 -71t25 -129.5v-319h-125v292q0 75 -27 111t-85 36q-42 0 -71.5 -20t-45.5 -53t-16 -73v-293h-125z" />
    <glyph glyph-name="i" unicode="i" horiz-adv-x="260" 
d="M67 607v122h125v-122h-125zM67 0v532h125v-532h-125z" />
    <glyph glyph-name="j" unicode="j" horiz-adv-x="247" 
d="M54 607v122h126v-122h-126zM-44 -171v96h42q32 0 44.5 14.5t12.5 46.5v546h125v-558q0 -68 -34 -106.5t-113 -38.5h-77z" />
    <glyph glyph-name="k" unicode="k" horiz-adv-x="605" 
d="M67 0v729h127v-434l45 51l178 186h155l-206 -209l211 -323h-147l-120 185l-32 55l-84 -83v-157h-127z" />
    <glyph glyph-name="l" unicode="l" horiz-adv-x="260" 
d="M67 0v729h125v-729h-125z" />
    <glyph glyph-name="m" unicode="m" horiz-adv-x="973" 
d="M67 0v532h121l4 -101h6q21 55 67.5 83t101.5 28q58 0 104 -28t67 -94h8q20 60 69.5 91t111.5 31q52 0 93.5 -22.5t66 -71t24.5 -129.5v-319h-125v292q0 75 -25.5 111t-81.5 36q-40 0 -68.5 -20t-43.5 -53t-15 -73v-293h-126v292q0 75 -25.5 111t-80.5 36q-41 0 -69.5 -20
t-43.5 -53t-15 -73v-293h-125z" />
    <glyph glyph-name="n" unicode="n" horiz-adv-x="624" 
d="M67 0v532h120l5 -101h6q23 55 70 83t105 28q54 0 96.5 -22.5t67.5 -71t25 -129.5v-319h-125v292q0 75 -27 111t-85 36q-42 0 -71.5 -20t-45.5 -53t-16 -73v-293h-125z" />
    <glyph glyph-name="o" unicode="o" horiz-adv-x="594" 
d="M298 -9q-79 0 -138.5 33t-92.5 95t-33 147q0 82 31.5 144t90.5 97t142 35q78 0 137 -33.5t92 -95t33 -147.5q0 -82 -31.5 -144t-90 -96.5t-140.5 -34.5zM297 94q62 0 99.5 43.5t37.5 128.5t-37 129t-99 44t-100 -44t-38 -129q0 -84 37 -128t100 -44z" />
    <glyph glyph-name="p" unicode="p" horiz-adv-x="623" 
d="M67 -167l1 699h120l4 -98h8q19 48 65 78t110 30q96 0 155.5 -70t59.5 -206q0 -135 -59.5 -205.5t-155.5 -70.5q-64 0 -110 30t-65 78h-8v-265h-125zM329 92q60 0 96.5 43.5t36.5 130.5q0 88 -36.5 131t-96.5 43q-45 0 -75 -21t-45 -54t-15 -71v-56q0 -37 15 -70.5
t45 -54.5t75 -21z" />
    <glyph glyph-name="q" unicode="q" horiz-adv-x="623" 
d="M431 -167v266h-7q-19 -48 -65 -78t-111 -30q-96 0 -155 70t-59 205q0 136 59 206t155 70q65 0 111 -29.5t65 -78.5h7l5 98h120v-699h-125zM295 93q44 0 74 21t45 54t15 71v55q0 38 -15 71.5t-45 54t-74 20.5q-60 0 -97 -43t-37 -131q0 -87 37 -130t97 -43z" />
    <glyph glyph-name="r" unicode="r" horiz-adv-x="387" 
d="M67 0v532h113l6 -89h4q18 51 58.5 73.5t92.5 22.5h16.5h14.5v-118q-6 0 -14.5 0.5t-18.5 0.5q-73 0 -108.5 -34.5t-38.5 -96.5v-291h-125z" />
    <glyph glyph-name="s" unicode="s" horiz-adv-x="523" 
d="M261 -10q-106 0 -167.5 49t-60.5 129h123q1 -46 30.5 -67t78.5 -21q47 0 71.5 17.5t24.5 48.5q0 37 -25.5 50.5t-87.5 22.5q-102 15 -151.5 48.5t-49.5 109.5q0 50 27 87t76 57.5t115 20.5q96 0 153.5 -45.5t59.5 -122.5h-123q0 42 -25.5 60.5t-67.5 18.5
q-43 0 -66.5 -17t-23.5 -48q0 -34 29 -48t96 -23q95 -13 143.5 -47t48.5 -113q0 -80 -62.5 -123.5t-165.5 -43.5z" />
    <glyph glyph-name="t" unicode="t" horiz-adv-x="372" 
d="M232 0q-74 0 -100 32t-26 89v310h-98v101h98v150l124 13v-163h113v-101h-113v-287q0 -25 11 -33.5t34 -8.5h68v-102h-111z" />
    <glyph glyph-name="u" unicode="u" horiz-adv-x="619" 
d="M253 -9q-92 0 -141.5 53.5t-49.5 157.5v330h125v-297q0 -68 26.5 -105t87.5 -37q60 0 95.5 43t35.5 106v290h125v-532h-120l-5 103h-6q-20 -54 -67 -83t-106 -29z" />
    <glyph glyph-name="v" unicode="v" horiz-adv-x="522" 
d="M184 0l-186 533h135l93 -306l33 -122h4l33 121l93 307h135l-185 -533h-155z" />
    <glyph glyph-name="w" unicode="w" horiz-adv-x="763" 
d="M136 0l-129 533h127l92 -410h5l82 410h141l85 -411h3l92 411h123l-130 -533h-164l-81 374h-5l-77 -374h-164z" />
    <glyph glyph-name="x" unicode="x" horiz-adv-x="565" 
d="M-3 0l203 274l-184 258h148l119 -172h6l118 172h142l-180 -255l199 -277h-147l-136 194h-6l-142 -194h-140z" />
    <glyph glyph-name="y" unicode="y" horiz-adv-x="521" 
d="M42 -167v103h59q35 0 54.5 14t30.5 44l18 46l-206 492h137l109 -304l20 -60h5l18 60l103 304h133l-215 -567q-28 -77 -73 -104.5t-111 -27.5h-82z" />
    <glyph glyph-name="z" unicode="z" horiz-adv-x="518" 
d="M28 0v90l292 341h-277v101h436v-88l-292 -343h303v-101h-462z" />
    <glyph glyph-name="braceleft" unicode="{" horiz-adv-x="396" 
d="M220 -167q-46 0 -68.5 26t-22.5 64v257q0 39 -18 59.5t-45 20.5h-26v96h26q28 0 45.5 21.5t17.5 59.5v266q0 38 22.5 64t68.5 26h167v-96h-140v-264q0 -56 -23.5 -85t-57.5 -35v-3q41 -11 61 -44t20 -79v-259h140v-95h-167z" />
    <glyph glyph-name="bar" unicode="|" horiz-adv-x="283" 
d="M85 -67v796h113v-796h-113z" />
    <glyph glyph-name="braceright" unicode="}" horiz-adv-x="396" 
d="M175 793q47 0 69 -26t22 -64v-257q0 -39 18.5 -59.5t44.5 -20.5h27v-96h-27q-27 0 -45 -21.5t-18 -59.5v-266q0 -38 -22 -64t-69 -26h-166v96h140v264q0 56 23.5 85t57.5 35v3q-41 12 -61 44.5t-20 78.5v259h-140v95h166z" />
    <glyph glyph-name="asciitilde" unicode="~" horiz-adv-x="598" 
d="M95 283q-4 58 11 93t41.5 50.5t56.5 15.5q35 0 64 -14.5t56 -28.5t58 -14q28 0 42 17t15 44h64q4 -62 -13 -97t-45 -50t-57 -15q-40 0 -72 15t-58.5 29.5t-50.5 14.5q-26 0 -37.5 -19t-9.5 -41h-65z" />
    <glyph glyph-name="uni00A0" unicode="&#xa0;" horiz-adv-x="218" 
 />
    <glyph glyph-name="exclamdown" unicode="&#xa1;" horiz-adv-x="270" 
d="M168 321l31 -278v-239h-128v239l31 278h66zM193 533v-122h-116v122h116z" />
    <glyph glyph-name="cent" unicode="&#xa2;" horiz-adv-x="578" 
d="M248 -85v80q-97 16 -154 88.5t-57 182.5t57 182t154 89v79h84v-76q59 -5 104.5 -31t73 -68.5t30.5 -96.5h-122q-8 47 -40.5 71t-77.5 24q-66 0 -101 -47.5t-35 -125.5q0 -85 37 -128.5t98 -43.5q52 0 84 27.5t37 71.5h122q-6 -84 -63.5 -138t-146.5 -63v-77h-84z" />
    <glyph glyph-name="sterling" unicode="&#xa3;" horiz-adv-x="629" 
d="M23 0v108h80v202h-80v96h80v106q0 110 65 167.5t173 57.5q110 0 171 -58t61 -157v-26h-120v19q0 55 -30 83t-81 28q-55 0 -83 -31t-28 -83v-106h186v-96h-186v-202h250v93h108v-201h-566z" />
    <glyph glyph-name="currency" unicode="&#xa4;" horiz-adv-x="637" 
d="M115 76l-71 70l98 100q-14 22 -21.5 49t-7.5 53q0 31 8 57.5t22 47.5l-99 98l71 72l104 -105q44 24 99 24q25 0 51 -6t49 -18l103 105l71 -72l-99 -98q30 -46 30 -105q0 -27 -7.5 -53.5t-22.5 -48.5l100 -100l-71 -70l-103 103q-45 -24 -101 -24q-29 0 -54 6.5t-47 17.5z
M318 253q43 0 71.5 26.5t28.5 68.5q0 43 -28.5 70.5t-71.5 27.5q-42 0 -70.5 -27.5t-28.5 -70.5q0 -42 28.5 -68.5t70.5 -26.5z" />
    <glyph glyph-name="yen" unicode="&#xa5;" horiz-adv-x="630" 
d="M252 0v116h-181v89h181v86h-181v90h127l-196 348h137l172 -332h6l174 332h136l-193 -348h124v-90h-179v-86h179v-89h-179v-116h-127z" />
    <glyph glyph-name="brokenbar" unicode="&#xa6;" horiz-adv-x="283" 
d="M85 396v333h113v-333h-113zM85 -67v333h113v-333h-113z" />
    <glyph glyph-name="dieresis" unicode="&#xa8;" horiz-adv-x="500" 
d="M98 756v127h108v-127h-108zM294 756v127h108v-127h-108z" />
    <glyph glyph-name="copyright" unicode="&#xa9;" horiz-adv-x="822" 
d="M25 364q0 112 49.5 196t136.5 131t200 47q114 0 201 -47t136 -131t49 -196t-49 -196t-136 -130.5t-201 -46.5q-113 0 -200 46.5t-136.5 130.5t-49.5 196zM84 364q0 -96 41.5 -167.5t115 -112t170.5 -40.5q98 0 171.5 40.5t114.5 112t41 167.5t-41 168t-114.5 112
t-171.5 40q-97 0 -170.5 -40t-115 -112t-41.5 -168zM216 364q0 92 55 147.5t147 55.5q78 0 127 -41.5t53 -104.5h-91q-7 35 -32.5 51.5t-58.5 16.5q-51 0 -78 -34.5t-27 -90.5q0 -61 28.5 -93t75.5 -32q38 0 63.5 19.5t29.5 52.5h91q-4 -67 -54.5 -108t-129.5 -41
q-60 0 -105 25t-69.5 70.5t-24.5 106.5z" />
    <glyph glyph-name="ordfeminine" unicode="&#xaa;" horiz-adv-x="408" 
d="M160 377q-62 0 -100.5 45.5t-38.5 134.5t38.5 134.5t100.5 45.5q42 0 71.5 -19t41.5 -50h5l3 62h85v-347h-88v63h-5q-12 -31 -42 -50t-71 -19zM194 448q42 0 62.5 28.5t20.5 62.5v35q0 35 -20.5 63.5t-62.5 28.5q-38 0 -60.5 -27t-22.5 -82t22.5 -82t60.5 -27z" />
    <glyph glyph-name="guillemotleft" unicode="&#xab;" horiz-adv-x="498" 
d="M155 0l-125 267l125 265h108l-117 -265l117 -267h-108zM364 0l-125 267l125 265h109l-118 -265l118 -267h-109z" />
    <glyph glyph-name="logicalnot" unicode="&#xac;" horiz-adv-x="670" 
d="M476 145v172h-379v98h475v-270h-96z" />
    <glyph glyph-name="registered" unicode="&#xae;" horiz-adv-x="610" 
d="M304 217q-74 0 -133 33t-94 92t-35 136t35 135.5t94.5 91.5t132.5 33q74 0 134 -33t95 -91.5t35 -135.5t-35 -135.5t-95 -92t-134 -33.5zM304 260q61 0 111 27.5t79.5 77t29.5 113.5q0 65 -29.5 114.5t-79.5 77.5t-111 28t-110.5 -28t-78.5 -77.5t-29 -114.5t29 -114
t78.5 -76.5t110.5 -27.5zM204 363v242h118q25 0 47.5 -6t36.5 -22.5t14 -45.5q0 -23 -12 -39.5t-32 -21.5v-1q39 -7 39 -52v-26q0 -5 0.5 -13t2.5 -15h-64q-4 7 -4 29v20q0 15 -7 23.5t-27 8.5h-49v-81h-63zM312 556h-45v-69h45q22 0 32 9.5t10 25.5q0 34 -42 34z" />
    <glyph glyph-name="macron" unicode="&#xaf;" horiz-adv-x="428" 
d="M49 760v94h331v-94h-331z" />
    <glyph glyph-name="degree" unicode="&#xb0;" horiz-adv-x="422" 
d="M211 410q-50 0 -89.5 21t-62.5 58t-23 86t23 85.5t62.5 57t89.5 20.5t89.5 -20.5t62.5 -57t23 -85.5t-23 -86t-62.5 -58t-89.5 -21zM211 494q35 0 59 22t24 59q0 36 -24 58t-59 22t-58.5 -22t-23.5 -58q0 -37 23.5 -59t58.5 -22z" />
    <glyph glyph-name="plusminus" unicode="&#xb1;" horiz-adv-x="628" 
d="M263 180v163h-198v99h198v162h102v-162h198v-99h-198v-163h-102zM65 0v89h498v-89h-498z" />
    <glyph glyph-name="uni00B2" unicode="&#xb2;" horiz-adv-x="355" 
d="M24 326v12q0 54 21.5 90t53 62t63.5 47t53.5 43t21.5 51q0 28 -18 44t-46 16q-29 0 -47.5 -18.5t-15.5 -54.5h-84q-2 67 40.5 106.5t111.5 39.5q66 0 106.5 -34.5t40.5 -94.5q0 -38 -16.5 -66.5t-42 -50t-52.5 -39.5t-49.5 -36.5t-31.5 -41.5h195v-75h-304z" />
    <glyph glyph-name="uni00B3" unicode="&#xb3;" horiz-adv-x="367" 
d="M177 320q-74 0 -114.5 39t-41.5 101h84q0 -29 19.5 -48t53.5 -19q32 0 51.5 17.5t19.5 46.5q0 28 -17.5 43t-45.5 15h-52v64h46q31 0 47 16t16 41q0 27 -18 41t-46 14q-32 0 -50.5 -17.5t-19.5 -47.5h-85q1 63 44 100.5t114 37.5q67 0 107.5 -31.5t40.5 -84.5
q0 -36 -17.5 -61.5t-44.5 -34.5v-4q32 -9 50.5 -34.5t18.5 -64.5q0 -58 -44.5 -93.5t-115.5 -35.5z" />
    <glyph glyph-name="acute" unicode="&#xb4;" horiz-adv-x="500" 
d="M159 740l58 143h125l-89 -143h-94z" />
    <glyph glyph-name="paragraph" unicode="&#xb6;" horiz-adv-x="754" 
d="M214 -151v518q-97 -3 -151 46.5t-54 132.5q0 88 54.5 135.5t150.5 47.5h456v-107h-80v-773h-118v773h-140v-773h-118z" />
    <glyph glyph-name="periodcentered" unicode="&#xb7;" horiz-adv-x="278" 
d="M53 277q0 37 24.5 61t61.5 24q40 0 63.5 -24t23.5 -61t-23.5 -61t-63.5 -24q-37 0 -61.5 24t-24.5 61z" />
    <glyph glyph-name="cedilla" unicode="&#xb8;" horiz-adv-x="500" 
d="M252 -240q-54 0 -89.5 27.5t-35.5 75.5h80q0 -15 10 -26.5t29 -11.5q20 0 30.5 12t10.5 31q0 21 -12.5 31t-34.5 10h-23v109h70v-66q41 -4 63.5 -28t22.5 -61q0 -49 -34.5 -76t-86.5 -27z" />
    <glyph glyph-name="uni00B9" unicode="&#xb9;" horiz-adv-x="262" 
d="M123 326v293h-109v65h19q42 0 66.5 20.5t28.5 54.5h80v-433h-85z" />
    <glyph glyph-name="ordmasculine" unicode="&#xba;" horiz-adv-x="387" 
d="M194 377q-77 0 -125 48t-48 131q0 80 46 130t127 50q77 0 124.5 -48t47.5 -131q0 -81 -45.5 -130.5t-126.5 -49.5zM194 448q38 0 61 27.5t23 81.5q0 53 -23 80.5t-61 27.5t-61 -27.5t-23 -81.5q0 -53 23 -80.5t61 -27.5z" />
    <glyph glyph-name="guillemotright" unicode="&#xbb;" horiz-adv-x="498" 
d="M343 532l126 -267l-126 -265h-107l117 265l-117 267h107zM134 532l125 -267l-125 -265h-109l119 265l-119 267h109z" />
    <glyph glyph-name="onequarter" unicode="&#xbc;" horiz-adv-x="657" 
d="M107 337v260h-98v57h16q40 0 61.5 19t24.5 48h72v-384h-76zM16 0l496 721h95l-497 -721h-94zM520 0l-1 88h-185v57l166 239h96v-234h51v-62h-51v-88h-76zM409 150h111v160z" />
    <glyph glyph-name="onehalf" unicode="&#xbd;" horiz-adv-x="717" 
d="M107 337v260h-98v57h16q40 0 61.5 19t24.5 48h72v-384h-76zM16 0l496 721h95l-497 -721h-94zM414 0v11q0 47 19.5 79.5t48.5 55.5t57.5 41.5t48 38t19.5 45.5q0 24 -15.5 38.5t-42.5 14.5q-28 0 -44.5 -17.5t-14.5 -47.5h-74q-2 60 36.5 95t101.5 35q59 0 95.5 -30.5
t36.5 -84.5q0 -33 -14.5 -57.5t-37 -44t-47.5 -36.5t-45.5 -34t-31.5 -38q21 1 41.5 2t35.5 1h103v-67h-276z" />
    <glyph glyph-name="threequarters" unicode="&#xbe;" horiz-adv-x="757" 
d="M164 332q-66 0 -103.5 34.5t-38.5 88.5h75q0 -26 18.5 -42t48.5 -16q29 0 47.5 15.5t18.5 40.5q0 24 -16 38t-43 14h-47v56h42q28 0 43 14.5t15 36.5q0 23 -16.5 36t-43.5 13q-28 0 -45.5 -15.5t-18.5 -42.5h-75q1 58 41 90.5t101 32.5q59 0 97 -28t38 -76
q0 -29 -15.5 -52.5t-41.5 -32.5v-3q31 -8 47 -32t16 -56q0 -51 -40.5 -82.5t-103.5 -31.5zM116 0l496 721h95l-497 -721h-94zM620 0l-1 88h-185v57l166 239h96v-234h51v-62h-51v-88h-76zM509 150h111v160z" />
    <glyph glyph-name="questiondown" unicode="&#xbf;" horiz-adv-x="560" 
d="M326 330v-18q0 -42 -16.5 -75t-40 -60.5t-47 -54t-39.5 -55.5t-16 -64q0 -51 30 -77t80 -26q56 0 88 32.5t32 82.5h122q1 -66 -30 -115.5t-87 -77.5t-131 -28q-116 0 -174.5 54t-58.5 143q0 48 17.5 85t43.5 67.5t52 57.5t44 55t18 61v13h113zM330 532v-119h-122v119h122
z" />
    <glyph glyph-name="Agrave" unicode="&#xc0;" horiz-adv-x="692" 
d="M2 0l251 729h186l251 -729h-137l-55 160h-304l-54 -160h-138zM226 262h241l-72 205l-46 141h-5l-47 -141zM300 794l-89 143h125l58 -143h-94z" />
    <glyph glyph-name="Aacute" unicode="&#xc1;" horiz-adv-x="692" 
d="M2 0l251 729h186l251 -729h-137l-55 160h-304l-54 -160h-138zM226 262h241l-72 205l-46 141h-5l-47 -141zM299 794l58 143h125l-89 -143h-94z" />
    <glyph glyph-name="Acircumflex" unicode="&#xc2;" horiz-adv-x="692" 
d="M2 0l251 729h186l251 -729h-137l-55 160h-304l-54 -160h-138zM226 262h241l-72 205l-46 141h-5l-47 -141zM175 794l112 143h118l113 -143h-108l-64 82l-64 -82h-107z" />
    <glyph glyph-name="Atilde" unicode="&#xc3;" horiz-adv-x="692" 
d="M2 0l251 729h186l251 -729h-137l-55 160h-304l-54 -160h-138zM226 262h241l-72 205l-46 141h-5l-47 -141zM407 803q-27 0 -46.5 8.5t-37 17t-39.5 8.5q-20 0 -34 -9.5t-26 -25.5l-50 34q22 52 52 70.5t60 17.5q25 0 44.5 -8.5t38 -16.5t41.5 -8q24 0 37.5 12t21.5 23
l51 -32q-20 -49 -50 -70.5t-63 -20.5z" />
    <glyph glyph-name="Adieresis" unicode="&#xc4;" horiz-adv-x="692" 
d="M2 0l251 729h186l251 -729h-137l-55 160h-304l-54 -160h-138zM226 262h241l-72 205l-46 141h-5l-47 -141zM194 810v127h108v-127h-108zM390 810v127h108v-127h-108z" />
    <glyph glyph-name="Aring" unicode="&#xc5;" horiz-adv-x="692" 
d="M2 0l251 729h186l251 -729h-137l-55 160h-304l-54 -160h-138zM226 262h241l-72 205l-46 141h-5l-47 -141zM348 791q-51 0 -82.5 29.5t-31.5 77.5t31.5 77.5t82.5 29.5t82.5 -29.5t31.5 -77.5t-31.5 -77.5t-82.5 -29.5zM348 850q21 0 34 13.5t13 34.5q0 22 -13 35t-34 13
t-34 -13t-13 -35q0 -21 13 -34.5t34 -13.5z" />
    <glyph glyph-name="AE" unicode="&#xc6;" horiz-adv-x="942" 
d="M2 0l251 729h639v-114h-389v-190h339v-107h-339v-204h390v-114h-518v160h-181l-54 -160h-138zM226 262h149v346h-31l-47 -141z" />
    <glyph glyph-name="Ccedilla" unicode="&#xc7;" horiz-adv-x="771" 
d="M399 -9q-109 0 -190 44.5t-126.5 128.5t-45.5 201q0 116 45.5 199.5t127 128.5t189.5 45q92 0 163.5 -32t116.5 -89.5t56 -135.5h-135q-14 63 -67.5 103t-133.5 40q-104 0 -164.5 -66.5t-60.5 -192.5q0 -128 60.5 -194t164.5 -66q79 0 134 39.5t67 104.5h135
q-10 -78 -55 -136t-117.5 -90t-163.5 -32zM378 -240q-54 0 -89.5 27.5t-35.5 75.5h80q0 -15 10 -26.5t29 -11.5q20 0 30.5 12t10.5 31q0 21 -12.5 31t-34.5 10h-23v109h70v-66q41 -4 63.5 -28t22.5 -61q0 -49 -34.5 -76t-86.5 -27z" />
    <glyph glyph-name="Egrave" unicode="&#xc8;" horiz-adv-x="655" 
d="M84 0v729h520v-114h-388v-190h339v-107h-339v-204h390v-114h-522zM287 794l-89 143h125l58 -143h-94z" />
    <glyph glyph-name="Eacute" unicode="&#xc9;" horiz-adv-x="655" 
d="M84 0v729h520v-114h-388v-190h339v-107h-339v-204h390v-114h-522zM285 794l58 143h125l-89 -143h-94z" />
    <glyph glyph-name="Ecircumflex" unicode="&#xca;" horiz-adv-x="655" 
d="M84 0v729h520v-114h-388v-190h339v-107h-339v-204h390v-114h-522zM162 794l112 143h118l113 -143h-108l-64 82l-64 -82h-107z" />
    <glyph glyph-name="Edieresis" unicode="&#xcb;" horiz-adv-x="655" 
d="M84 0v729h520v-114h-388v-190h339v-107h-339v-204h390v-114h-522zM181 810v127h108v-127h-108zM377 810v127h108v-127h-108z" />
    <glyph glyph-name="Igrave" unicode="&#xcc;" horiz-adv-x="299" 
d="M84 0v729h132v-729h-132zM104 794l-89 143h125l58 -143h-94z" />
    <glyph glyph-name="Iacute" unicode="&#xcd;" horiz-adv-x="299" 
d="M84 0v729h132v-729h-132zM102 794l58 143h125l-89 -143h-94z" />
    <glyph glyph-name="Icircumflex" unicode="&#xce;" horiz-adv-x="299" 
d="M84 0v729h132v-729h-132zM-21 794l112 143h118l113 -143h-108l-64 82l-64 -82h-107z" />
    <glyph glyph-name="Idieresis" unicode="&#xcf;" horiz-adv-x="299" 
d="M84 0v729h132v-729h-132zM-2 810v127h108v-127h-108zM194 810v127h108v-127h-108z" />
    <glyph glyph-name="Eth" unicode="&#xd0;" horiz-adv-x="757" 
d="M84 0v318h-77v93h77v318h302q107 0 181.5 -45.5t113 -128t38.5 -191.5t-39 -191t-113 -127.5t-181 -45.5h-302zM216 114h150q64 0 113 25.5t77 81t28 146.5q0 89 -27.5 144t-77 80t-113.5 25h-150v-205h139v-93h-139v-204z" />
    <glyph glyph-name="Eth" unicode="&#xf0;" horiz-adv-x="757" 
d="M84 0v318h-77v93h77v318h302q107 0 181.5 -45.5t113 -128t38.5 -191.5t-39 -191t-113 -127.5t-181 -45.5h-302zM216 114h150q64 0 113 25.5t77 81t28 146.5q0 89 -27.5 144t-77 80t-113.5 25h-150v-205h139v-93h-139v-204z" />
    <glyph glyph-name="Ntilde" unicode="&#xd1;" horiz-adv-x="798" 
d="M84 0v729h160l342 -549h6l-5 238v311h127v-729h-152l-341 540h-7l4 -218v-322h-134zM459 803q-27 0 -46.5 8.5t-37 17t-39.5 8.5q-20 0 -34 -9.5t-26 -25.5l-50 34q22 52 52 70.5t60 17.5q25 0 44.5 -8.5t38 -16.5t41.5 -8q24 0 37.5 12t21.5 23l51 -32
q-20 -49 -50 -70.5t-63 -20.5z" />
    <glyph glyph-name="Ograve" unicode="&#xd2;" horiz-adv-x="801" 
d="M400 -9q-109 0 -190.5 44.5t-127 128.5t-45.5 201t45.5 200.5t127 128t190.5 44.5t191 -44.5t127 -128.5t45 -200q0 -118 -45.5 -201.5t-127 -128t-190.5 -44.5zM400 105q104 0 165.5 67t61.5 193t-61.5 192.5t-165.5 66.5t-165 -66.5t-61 -192.5q0 -127 61.5 -193.5
t164.5 -66.5zM354 794l-89 143h125l58 -143h-94z" />
    <glyph glyph-name="Oacute" unicode="&#xd3;" horiz-adv-x="801" 
d="M400 -9q-109 0 -190.5 44.5t-127 128.5t-45.5 201t45.5 200.5t127 128t190.5 44.5t191 -44.5t127 -128.5t45 -200q0 -118 -45.5 -201.5t-127 -128t-190.5 -44.5zM400 105q104 0 165.5 67t61.5 193t-61.5 192.5t-165.5 66.5t-165 -66.5t-61 -192.5q0 -127 61.5 -193.5
t164.5 -66.5zM353 794l58 143h125l-89 -143h-94z" />
    <glyph glyph-name="Ocircumflex" unicode="&#xd4;" horiz-adv-x="801" 
d="M400 -9q-109 0 -190.5 44.5t-127 128.5t-45.5 201t45.5 200.5t127 128t190.5 44.5t191 -44.5t127 -128.5t45 -200q0 -118 -45.5 -201.5t-127 -128t-190.5 -44.5zM400 105q104 0 165.5 67t61.5 193t-61.5 192.5t-165.5 66.5t-165 -66.5t-61 -192.5q0 -127 61.5 -193.5
t164.5 -66.5zM230 794l112 143h118l113 -143h-108l-64 82l-64 -82h-107z" />
    <glyph glyph-name="Otilde" unicode="&#xd5;" horiz-adv-x="801" 
d="M400 -9q-109 0 -190.5 44.5t-127 128.5t-45.5 201t45.5 200.5t127 128t190.5 44.5t191 -44.5t127 -128.5t45 -200q0 -118 -45.5 -201.5t-127 -128t-190.5 -44.5zM400 105q104 0 165.5 67t61.5 193t-61.5 192.5t-165.5 66.5t-165 -66.5t-61 -192.5q0 -127 61.5 -193.5
t164.5 -66.5zM461 803q-27 0 -46.5 8.5t-37 17t-39.5 8.5q-20 0 -34 -9.5t-26 -25.5l-50 34q22 52 52 70.5t60 17.5q25 0 44.5 -8.5t38 -16.5t41.5 -8q24 0 37.5 12t21.5 23l51 -32q-20 -49 -50 -70.5t-63 -20.5z" />
    <glyph glyph-name="Odieresis" unicode="&#xd6;" horiz-adv-x="801" 
d="M400 -9q-109 0 -190.5 44.5t-127 128.5t-45.5 201t45.5 200.5t127 128t190.5 44.5t191 -44.5t127 -128.5t45 -200q0 -118 -45.5 -201.5t-127 -128t-190.5 -44.5zM400 105q104 0 165.5 67t61.5 193t-61.5 192.5t-165.5 66.5t-165 -66.5t-61 -192.5q0 -127 61.5 -193.5
t164.5 -66.5zM249 810v127h108v-127h-108zM445 810v127h108v-127h-108z" />
    <glyph glyph-name="multiply" unicode="&#xd7;" horiz-adv-x="583" 
d="M143 145l-68 68l149 148l-149 148l68 68l149 -148l147 148l68 -68l-147 -148l147 -148l-68 -68l-147 148z" />
    <glyph glyph-name="Oslash" unicode="&#xd8;" horiz-adv-x="801" 
d="M400 -9q-109 0 -190.5 44.5t-127 128.5t-45.5 201t45.5 200.5t127 128t190.5 44.5t191 -44.5t127 -128.5t45 -200q0 -118 -45.5 -201.5t-127 -128t-190.5 -44.5zM400 105q104 0 165.5 67t61.5 193t-61.5 192.5t-165.5 66.5t-165 -66.5t-61 -192.5q0 -127 61.5 -193.5
t164.5 -66.5zM54 -40l597 810h96l-594 -810h-99z" />
    <glyph glyph-name="Ugrave" unicode="&#xd9;" horiz-adv-x="764" 
d="M382 -9q-96 0 -164 34.5t-104 98t-36 150.5v455h131v-454q0 -83 46.5 -124.5t127.5 -41.5q86 0 129.5 44.5t43.5 121.5v454h131v-455q0 -88 -37 -151.5t-105.5 -97.5t-162.5 -34zM336 794l-89 143h125l58 -143h-94z" />
    <glyph glyph-name="Uacute" unicode="&#xda;" horiz-adv-x="764" 
d="M382 -9q-96 0 -164 34.5t-104 98t-36 150.5v455h131v-454q0 -83 46.5 -124.5t127.5 -41.5q86 0 129.5 44.5t43.5 121.5v454h131v-455q0 -88 -37 -151.5t-105.5 -97.5t-162.5 -34zM335 794l58 143h125l-89 -143h-94z" />
    <glyph glyph-name="Ucircumflex" unicode="&#xdb;" horiz-adv-x="764" 
d="M382 -9q-96 0 -164 34.5t-104 98t-36 150.5v455h131v-454q0 -83 46.5 -124.5t127.5 -41.5q86 0 129.5 44.5t43.5 121.5v454h131v-455q0 -88 -37 -151.5t-105.5 -97.5t-162.5 -34zM212 794l112 143h118l113 -143h-108l-64 82l-64 -82h-107z" />
    <glyph glyph-name="Udieresis" unicode="&#xdc;" horiz-adv-x="764" 
d="M382 -9q-96 0 -164 34.5t-104 98t-36 150.5v455h131v-454q0 -83 46.5 -124.5t127.5 -41.5q86 0 129.5 44.5t43.5 121.5v454h131v-455q0 -88 -37 -151.5t-105.5 -97.5t-162.5 -34zM231 810v127h108v-127h-108zM427 810v127h108v-127h-108z" />
    <glyph glyph-name="Yacute" unicode="&#xdd;" horiz-adv-x="679" 
d="M272 0v282l-270 447h151l182 -318h7l184 318h150l-272 -447v-282h-132zM291 794l58 143h125l-89 -143h-94z" />
    <glyph glyph-name="Thorn" unicode="&#xde;" horiz-adv-x="655" 
d="M84 0v729h132v-128h157q117 0 187 -61.5t70 -173.5q0 -71 -30.5 -124.5t-88.5 -83.5t-139 -30l-156 1v-129h-132zM351 488h-135v-255l135 -1q61 0 102.5 30t41.5 99t-41.5 98t-102.5 29z" />
    <glyph glyph-name="germandbls" unicode="&#xdf;" horiz-adv-x="666" 
d="M113 -167v599h-102v100h104q8 73 42 118.5t86 67t115 21.5q104 0 164.5 -52.5t60.5 -137.5q0 -52 -25 -92.5t-72 -55.5v-7q62 -8 104 -56t42 -123q0 -96 -63 -155.5t-189 -59.5h-73v101h59q67 0 103 31.5t36 95.5q0 55 -32.5 85t-92.5 30h-55v82h29q54 0 84 28t30 73
q0 46 -29 74.5t-83 28.5q-56 0 -87 -33t-31 -94v-669h-125z" />
    <glyph glyph-name="agrave" unicode="&#xe0;" horiz-adv-x="623" 
d="M248 -9q-96 0 -155 70t-59 205q0 136 59 206t155 70q65 0 111 -29.5t65 -78.5h7l5 98h120v-532h-125v99h-7q-19 -48 -65 -78t-111 -30zM295 93q44 0 74 21t45 54t15 71v55q0 38 -15 71.5t-45 54t-74 20.5q-60 0 -97 -43t-37 -131q0 -87 37 -130t97 -43zM263 597l-89 143
h125l58 -143h-94z" />
    <glyph glyph-name="aacute" unicode="&#xe1;" horiz-adv-x="623" 
d="M248 -9q-96 0 -155 70t-59 205q0 136 59 206t155 70q65 0 111 -29.5t65 -78.5h7l5 98h120v-532h-125v99h-7q-19 -48 -65 -78t-111 -30zM295 93q44 0 74 21t45 54t15 71v55q0 38 -15 71.5t-45 54t-74 20.5q-60 0 -97 -43t-37 -131q0 -87 37 -130t97 -43zM261 597l58 143
h125l-89 -143h-94z" />
    <glyph glyph-name="acircumflex" unicode="&#xe2;" horiz-adv-x="623" 
d="M248 -9q-96 0 -155 70t-59 205q0 136 59 206t155 70q65 0 111 -29.5t65 -78.5h7l5 98h120v-532h-125v99h-7q-19 -48 -65 -78t-111 -30zM295 93q44 0 74 21t45 54t15 71v55q0 38 -15 71.5t-45 54t-74 20.5q-60 0 -97 -43t-37 -131q0 -87 37 -130t97 -43zM138 597l112 143
h118l113 -143h-108l-64 82l-64 -82h-107z" />
    <glyph glyph-name="atilde" unicode="&#xe3;" horiz-adv-x="623" 
d="M248 -9q-96 0 -155 70t-59 205q0 136 59 206t155 70q65 0 111 -29.5t65 -78.5h7l5 98h120v-532h-125v99h-7q-19 -48 -65 -78t-111 -30zM295 93q44 0 74 21t45 54t15 71v55q0 38 -15 71.5t-45 54t-74 20.5q-60 0 -97 -43t-37 -131q0 -87 37 -130t97 -43zM369 606
q-27 0 -46.5 8.5t-37 17t-39.5 8.5q-20 0 -34 -9.5t-26 -25.5l-50 34q22 52 52 70.5t60 17.5q25 0 44.5 -8.5t38 -16.5t41.5 -8q24 0 37.5 12t21.5 23l51 -32q-20 -49 -50 -70.5t-63 -20.5z" />
    <glyph glyph-name="adieresis" unicode="&#xe4;" horiz-adv-x="623" 
d="M248 -9q-96 0 -155 70t-59 205q0 136 59 206t155 70q65 0 111 -29.5t65 -78.5h7l5 98h120v-532h-125v99h-7q-19 -48 -65 -78t-111 -30zM295 93q44 0 74 21t45 54t15 71v55q0 38 -15 71.5t-45 54t-74 20.5q-60 0 -97 -43t-37 -131q0 -87 37 -130t97 -43zM157 613v127h108
v-127h-108zM353 613v127h108v-127h-108z" />
    <glyph glyph-name="aring" unicode="&#xe5;" horiz-adv-x="623" 
d="M248 -9q-96 0 -155 70t-59 205q0 136 59 206t155 70q65 0 111 -29.5t65 -78.5h7l5 98h120v-532h-125v99h-7q-19 -48 -65 -78t-111 -30zM295 93q44 0 74 21t45 54t15 71v55q0 38 -15 71.5t-45 54t-74 20.5q-60 0 -97 -43t-37 -131q0 -87 37 -130t97 -43zM310 594
q-51 0 -82.5 29.5t-31.5 77.5t31.5 77.5t82.5 29.5t82.5 -29.5t31.5 -77.5t-31.5 -77.5t-82.5 -29.5zM310 653q21 0 34 13.5t13 34.5q0 22 -13 35t-34 13t-34 -13t-13 -35q0 -21 13 -34.5t34 -13.5z" />
    <glyph glyph-name="ae" unicode="&#xe6;" horiz-adv-x="1001" 
d="M247 -9q-95 0 -154 70t-59 205q0 136 59 206t154 70q66 0 112 -29.5t65 -78.5h7l5 98h97v-92h7q23 47 73 74.5t113 27.5q86 0 142.5 -39t81 -107t15.5 -157h-382q0 -72 38 -112t100 -40q48 0 81 21.5t42 57.5h118q-7 -52 -39 -91.5t-82.5 -61.5t-113.5 -22
q-68 0 -118.5 26.5t-70.5 75.5h-7v-93h-96l-4 99h-7q-19 -48 -65 -78t-112 -30zM584 319h259q-2 64 -37 95.5t-90 31.5q-57 0 -92.5 -34.5t-39.5 -92.5zM295 93q44 0 74 21t45 54t15 71v55q0 38 -15 71.5t-45 54t-74 20.5q-60 0 -97 -43t-37 -131q0 -87 37 -130t97 -43z" />
    <glyph glyph-name="ccedilla" unicode="&#xe7;" horiz-adv-x="568" 
d="M295 -9q-79 0 -138 34t-91 96t-32 145t32.5 145t92 96.5t140.5 34.5q67 0 119 -25t83.5 -70t34.5 -103h-122q-8 47 -40.5 71t-77.5 24q-66 0 -101 -47.5t-35 -125.5q0 -85 37 -128.5t98 -43.5q52 0 84 27.5t37 71.5h122q-4 -61 -36 -106.5t-85.5 -70.5t-121.5 -25z
M283 -240q-54 0 -89.5 27.5t-35.5 75.5h80q0 -15 10 -26.5t29 -11.5q20 0 30.5 12t10.5 31q0 21 -12.5 31t-34.5 10h-23v109h70v-66q41 -4 63.5 -28t22.5 -61q0 -49 -34.5 -76t-86.5 -27z" />
    <glyph glyph-name="egrave" unicode="&#xe8;" horiz-adv-x="575" 
d="M288 -9q-81 0 -138 33.5t-86.5 95t-29.5 143.5q0 85 30 147.5t86 97t134 34.5q87 0 143.5 -39t81.5 -107t18 -156h-371q0 -77 36 -115.5t96 -38.5q47 0 78 22t40 58h118q-7 -54 -39 -93.5t-83 -60.5t-114 -21zM284 447q-55 0 -88.5 -33t-38.5 -93h247q-2 64 -35.5 95
t-84.5 31zM241 597l-89 143h125l58 -143h-94z" />
    <glyph glyph-name="eacute" unicode="&#xe9;" horiz-adv-x="575" 
d="M288 -9q-81 0 -138 33.5t-86.5 95t-29.5 143.5q0 85 30 147.5t86 97t134 34.5q87 0 143.5 -39t81.5 -107t18 -156h-371q0 -77 36 -115.5t96 -38.5q47 0 78 22t40 58h118q-7 -54 -39 -93.5t-83 -60.5t-114 -21zM284 447q-55 0 -88.5 -33t-38.5 -93h247q-2 64 -35.5 95
t-84.5 31zM240 597l58 143h125l-89 -143h-94z" />
    <glyph glyph-name="ecircumflex" unicode="&#xea;" horiz-adv-x="575" 
d="M288 -9q-81 0 -138 33.5t-86.5 95t-29.5 143.5q0 85 30 147.5t86 97t134 34.5q87 0 143.5 -39t81.5 -107t18 -156h-371q0 -77 36 -115.5t96 -38.5q47 0 78 22t40 58h118q-7 -54 -39 -93.5t-83 -60.5t-114 -21zM284 447q-55 0 -88.5 -33t-38.5 -93h247q-2 64 -35.5 95
t-84.5 31zM117 597l112 143h118l113 -143h-108l-64 82l-64 -82h-107z" />
    <glyph glyph-name="edieresis" unicode="&#xeb;" horiz-adv-x="575" 
d="M288 -9q-81 0 -138 33.5t-86.5 95t-29.5 143.5q0 85 30 147.5t86 97t134 34.5q87 0 143.5 -39t81.5 -107t18 -156h-371q0 -77 36 -115.5t96 -38.5q47 0 78 22t40 58h118q-7 -54 -39 -93.5t-83 -60.5t-114 -21zM284 447q-55 0 -88.5 -33t-38.5 -93h247q-2 64 -35.5 95
t-84.5 31zM136 613v127h108v-127h-108zM332 613v127h108v-127h-108z" />
    <glyph glyph-name="igrave" unicode="&#xec;" horiz-adv-x="260" 
d="M67 0v532h125v-532h-125zM84 597l-89 143h125l58 -143h-94z" />
    <glyph glyph-name="iacute" unicode="&#xed;" horiz-adv-x="260" 
d="M67 0v532h125v-532h-125zM83 597l58 143h125l-89 -143h-94z" />
    <glyph glyph-name="icircumflex" unicode="&#xee;" horiz-adv-x="260" 
d="M67 0v532h125v-532h-125zM-41 597l112 143h118l113 -143h-108l-64 82l-64 -82h-107z" />
    <glyph glyph-name="idieresis" unicode="&#xef;" horiz-adv-x="260" 
d="M67 0v532h125v-532h-125zM-22 613v127h108v-127h-108zM174 613v127h108v-127h-108z" />
    <glyph glyph-name="ntilde" unicode="&#xf1;" horiz-adv-x="624" 
d="M67 0v532h120l5 -101h6q23 55 70 83t105 28q54 0 96.5 -22.5t67.5 -71t25 -129.5v-319h-125v292q0 75 -27 111t-85 36q-42 0 -71.5 -20t-45.5 -53t-16 -73v-293h-125zM375 606q-27 0 -46.5 8.5t-37 17t-39.5 8.5q-20 0 -34 -9.5t-26 -25.5l-50 34q22 52 52 70.5t60 17.5
q25 0 44.5 -8.5t38 -16.5t41.5 -8q24 0 37.5 12t21.5 23l51 -32q-20 -49 -50 -70.5t-63 -20.5z" />
    <glyph glyph-name="ograve" unicode="&#xf2;" horiz-adv-x="594" 
d="M298 -9q-79 0 -138.5 33t-92.5 95t-33 147q0 82 31.5 144t90.5 97t142 35q78 0 137 -33.5t92 -95t33 -147.5q0 -82 -31.5 -144t-90 -96.5t-140.5 -34.5zM297 94q62 0 99.5 43.5t37.5 128.5t-37 129t-99 44t-100 -44t-38 -129q0 -84 37 -128t100 -44zM250 597l-89 143h125
l58 -143h-94z" />
    <glyph glyph-name="oacute" unicode="&#xf3;" horiz-adv-x="594" 
d="M298 -9q-79 0 -138.5 33t-92.5 95t-33 147q0 82 31.5 144t90.5 97t142 35q78 0 137 -33.5t92 -95t33 -147.5q0 -82 -31.5 -144t-90 -96.5t-140.5 -34.5zM297 94q62 0 99.5 43.5t37.5 128.5t-37 129t-99 44t-100 -44t-38 -129q0 -84 37 -128t100 -44zM249 597l58 143h125
l-89 -143h-94z" />
    <glyph glyph-name="ocircumflex" unicode="&#xf4;" horiz-adv-x="594" 
d="M298 -9q-79 0 -138.5 33t-92.5 95t-33 147q0 82 31.5 144t90.5 97t142 35q78 0 137 -33.5t92 -95t33 -147.5q0 -82 -31.5 -144t-90 -96.5t-140.5 -34.5zM297 94q62 0 99.5 43.5t37.5 128.5t-37 129t-99 44t-100 -44t-38 -129q0 -84 37 -128t100 -44zM126 597l112 143h118
l113 -143h-108l-64 82l-64 -82h-107z" />
    <glyph glyph-name="otilde" unicode="&#xf5;" horiz-adv-x="594" 
d="M298 -9q-79 0 -138.5 33t-92.5 95t-33 147q0 82 31.5 144t90.5 97t142 35q78 0 137 -33.5t92 -95t33 -147.5q0 -82 -31.5 -144t-90 -96.5t-140.5 -34.5zM297 94q62 0 99.5 43.5t37.5 128.5t-37 129t-99 44t-100 -44t-38 -129q0 -84 37 -128t100 -44zM357 606
q-27 0 -46.5 8.5t-37 17t-39.5 8.5q-20 0 -34 -9.5t-26 -25.5l-50 34q22 52 52 70.5t60 17.5q25 0 44.5 -8.5t38 -16.5t41.5 -8q24 0 37.5 12t21.5 23l51 -32q-20 -49 -50 -70.5t-63 -20.5z" />
    <glyph glyph-name="odieresis" unicode="&#xf6;" horiz-adv-x="594" 
d="M298 -9q-79 0 -138.5 33t-92.5 95t-33 147q0 82 31.5 144t90.5 97t142 35q78 0 137 -33.5t92 -95t33 -147.5q0 -82 -31.5 -144t-90 -96.5t-140.5 -34.5zM297 94q62 0 99.5 43.5t37.5 128.5t-37 129t-99 44t-100 -44t-38 -129q0 -84 37 -128t100 -44zM145 613v127h108
v-127h-108zM341 613v127h108v-127h-108z" />
    <glyph glyph-name="divide" unicode="&#xf7;" horiz-adv-x="659" 
d="M273 484v103h114v-103h-114zM81 311v99h498v-99h-498zM273 135v102h114v-102h-114z" />
    <glyph glyph-name="oslash" unicode="&#xf8;" horiz-adv-x="594" 
d="M298 -9q-79 0 -138.5 33t-92.5 95t-33 147q0 82 31.5 144t90.5 97t142 35q78 0 137 -33.5t92 -95t33 -147.5q0 -82 -31.5 -144t-90 -96.5t-140.5 -34.5zM297 94q62 0 99.5 43.5t37.5 128.5t-37 129t-99 44t-100 -44t-38 -129q0 -84 37 -128t100 -44zM16 -60l481 652h80
l-480 -652h-81z" />
    <glyph glyph-name="ugrave" unicode="&#xf9;" horiz-adv-x="619" 
d="M253 -9q-92 0 -141.5 53.5t-49.5 157.5v330h125v-297q0 -68 26.5 -105t87.5 -37q60 0 95.5 43t35.5 106v290h125v-532h-120l-5 103h-6q-20 -54 -67 -83t-106 -29zM264 597l-89 143h125l58 -143h-94z" />
    <glyph glyph-name="uacute" unicode="&#xfa;" horiz-adv-x="619" 
d="M253 -9q-92 0 -141.5 53.5t-49.5 157.5v330h125v-297q0 -68 26.5 -105t87.5 -37q60 0 95.5 43t35.5 106v290h125v-532h-120l-5 103h-6q-20 -54 -67 -83t-106 -29zM262 597l58 143h125l-89 -143h-94z" />
    <glyph glyph-name="ucircumflex" unicode="&#xfb;" horiz-adv-x="619" 
d="M253 -9q-92 0 -141.5 53.5t-49.5 157.5v330h125v-297q0 -68 26.5 -105t87.5 -37q60 0 95.5 43t35.5 106v290h125v-532h-120l-5 103h-6q-20 -54 -67 -83t-106 -29zM139 597l112 143h118l113 -143h-108l-64 82l-64 -82h-107z" />
    <glyph glyph-name="udieresis" unicode="&#xfc;" horiz-adv-x="619" 
d="M253 -9q-92 0 -141.5 53.5t-49.5 157.5v330h125v-297q0 -68 26.5 -105t87.5 -37q60 0 95.5 43t35.5 106v290h125v-532h-120l-5 103h-6q-20 -54 -67 -83t-106 -29zM158 613v127h108v-127h-108zM354 613v127h108v-127h-108z" />
    <glyph glyph-name="yacute" unicode="&#xfd;" horiz-adv-x="521" 
d="M42 -167v103h59q35 0 54.5 14t30.5 44l18 46l-206 492h137l109 -304l20 -60h5l18 60l103 304h133l-215 -567q-28 -77 -73 -104.5t-111 -27.5h-82zM213 597l58 143h125l-89 -143h-94z" />
    <glyph glyph-name="thorn" unicode="&#xfe;" horiz-adv-x="623" 
d="M67 -167l1 896h124v-295h7q19 48 65 78t110 30q97 0 156 -70t59 -206q0 -135 -59 -205.5t-156 -70.5q-64 0 -110 30t-65 78h-7v-265h-125zM328 92q60 0 97 43.5t37 130.5q0 88 -37 131t-97 43q-45 0 -75 -21t-45 -54t-15 -71v-56q0 -37 15 -70.5t45 -54.5t75 -21z" />
    <glyph glyph-name="ydieresis" unicode="&#xff;" horiz-adv-x="521" 
d="M42 -167v103h59q35 0 54.5 14t30.5 44l18 46l-206 492h137l109 -304l20 -60h5l18 60l103 304h133l-215 -567q-28 -77 -73 -104.5t-111 -27.5h-82zM109 613v127h108v-127h-108zM305 613v127h108v-127h-108z" />
    <glyph glyph-name="dotlessi" unicode="&#x131;" horiz-adv-x="260" 
d="M67 0v532h125v-532h-125z" />
    <glyph glyph-name="OE" unicode="&#x152;" horiz-adv-x="1124" 
d="M370 0q-106 0 -180.5 45.5t-113.5 128t-39 191.5t39 191t113.5 127.5t180.5 45.5h703v-114h-388v-190h339v-107h-339v-204h390v-114h-705zM391 113h162v502h-162q-65 0 -114 -25.5t-76.5 -81t-27.5 -146.5q0 -89 27.5 -144t76.5 -80t114 -25z" />
    <glyph glyph-name="oe" unicode="&#x153;" horiz-adv-x="979" 
d="M298 -9q-79 0 -138.5 33t-92.5 95t-33 147q0 82 31.5 144t90.5 97t142 35q64 0 115.5 -24t85.5 -67q32 43 81.5 67t113.5 24q90 0 148.5 -39.5t83.5 -108t17 -155.5h-382q1 -73 38.5 -112.5t99.5 -39.5q48 0 81 21.5t41 57.5h119q-7 -52 -40 -91.5t-85 -61.5t-116 -22
q-66 0 -117 23.5t-84 66.5q-33 -42 -84 -66t-116 -24zM693 446q-56 0 -92 -33.5t-40 -93.5h259q-2 63 -37 95t-90 32zM297 94q62 0 99.5 43.5t37.5 128.5t-37 129t-99 44t-100 -44t-38 -129q0 -84 37 -128t100 -44z" />
    <glyph glyph-name="Wcircumflex" unicode="&#x174;" horiz-adv-x="974" 
d="M166 0l-158 729h146l75 -385l36 -199h7l134 584h164l136 -586h7l34 200l73 386h146l-158 -729h-183l-134 554h-7l-136 -554h-182zM316 794l112 143h118l113 -143h-108l-64 82l-64 -82h-107z" />
    <glyph glyph-name="wcircumflex" unicode="&#x175;" horiz-adv-x="773" 
d="M136 0l-129 533h127l92 -410h5l82 410h141l85 -411h3l92 411h123l-130 -533h-164l-81 374h-5l-77 -374h-164zM216 597l112 143h118l113 -143h-108l-64 82l-64 -82h-107z" />
    <glyph glyph-name="Ycircumflex" unicode="&#x176;" horiz-adv-x="679" 
d="M272 0v282l-270 447h151l182 -318h7l184 318h150l-272 -447v-282h-132zM168 794l112 143h118l113 -143h-108l-64 82l-64 -82h-107z" />
    <glyph glyph-name="ycircumflex" unicode="&#x177;" horiz-adv-x="521" 
d="M42 -167v103h59q35 0 54.5 14t30.5 44l18 46l-206 492h137l109 -304l20 -60h5l18 60l103 304h133l-215 -567q-28 -77 -73 -104.5t-111 -27.5h-82zM90 597l112 143h118l113 -143h-108l-64 82l-64 -82h-107z" />
    <glyph glyph-name="Ydieresis" unicode="&#x178;" horiz-adv-x="679" 
d="M272 0v282l-270 447h151l182 -318h7l184 318h150l-272 -447v-282h-132zM187 810v127h108v-127h-108zM383 810v127h108v-127h-108z" />
    <glyph glyph-name="uni0237" unicode="&#x237;" horiz-adv-x="247" 
d="M-44 -176v91h42q31 0 44 14t13 48v555h125v-557q0 -70 -33.5 -110.5t-110.5 -40.5h-80z" />
    <glyph glyph-name="circumflex" unicode="&#x2c6;" horiz-adv-x="500" 
d="M79 740l112 143h118l113 -143h-108l-64 82l-64 -82h-107z" />
    <glyph glyph-name="caron" unicode="&#x2c7;" horiz-adv-x="423" 
d="M153 740l-113 143h108l63 -83l64 83h108l-113 -143h-117z" />
    <glyph glyph-name="breve" unicode="&#x2d8;" horiz-adv-x="399" 
d="M200 730q-74 0 -117 40.5t-43 110.5h85q0 -39 20 -58.5t55 -19.5q34 0 54.5 20t20.5 58h84q0 -70 -42.5 -110.5t-116.5 -40.5z" />
    <glyph glyph-name="dotaccent" unicode="&#x2d9;" horiz-adv-x="500" 
d="M188 756v132h125v-132h-125z" />
    <glyph glyph-name="ring" unicode="&#x2da;" horiz-adv-x="500" 
d="M250 737q-51 0 -82.5 29.5t-31.5 77.5t31.5 77.5t82.5 29.5t82.5 -29.5t31.5 -77.5t-31.5 -77.5t-82.5 -29.5zM250 796q21 0 34 13.5t13 34.5q0 22 -13 35t-34 13t-34 -13t-13 -35q0 -21 13 -34.5t34 -13.5z" />
    <glyph glyph-name="ogonek" unicode="&#x2db;" horiz-adv-x="276" 
d="M156 -187q-56 0 -87.5 26t-31.5 70q0 38 22 66t56 38l70 -13q-26 -8 -42.5 -26.5t-16.5 -41.5q0 -22 14.5 -34t38.5 -12q14 0 30.5 3t26.5 8v-70q-12 -6 -34 -10t-46 -4z" />
    <glyph glyph-name="tilde" unicode="&#x2dc;" horiz-adv-x="500" 
d="M310 750q-27 0 -46.5 8.5t-37 17t-39.5 8.5q-20 0 -34 -9.5t-26 -25.5l-50 34q22 52 52 70.5t60 17.5q25 0 44.5 -8.5t38 -16.5t41.5 -8q24 0 37.5 12t21.5 23l51 -32q-20 -49 -50 -70.5t-63 -20.5z" />
    <glyph glyph-name="hungarumlaut" unicode="&#x2dd;" horiz-adv-x="463" 
d="M40 740l59 143h120l-89 -143h-90zM215 740l82 143h126l-109 -143h-99z" />
    <glyph glyph-name="gravecomb" unicode="&#x300;" 
d="M248 740l-89 143h125l58 -143h-94z" />
    <glyph glyph-name="acutecomb" unicode="&#x301;" 
d="M159 740l58 143h125l-89 -143h-94z" />
    <glyph glyph-name="uni0302" unicode="&#x302;" 
d="M79 740l112 143h118l113 -143h-108l-64 82l-64 -82h-107z" />
    <glyph glyph-name="tildecomb" unicode="&#x303;" 
d="M310 750q-27 0 -46.5 8.5t-37 17t-39.5 8.5q-20 0 -34 -9.5t-26 -25.5l-50 34q22 52 52 70.5t60 17.5q25 0 44.5 -8.5t38 -16.5t41.5 -8q24 0 37.5 12t21.5 23l51 -32q-20 -49 -50 -70.5t-63 -20.5z" />
    <glyph glyph-name="uni0304" unicode="&#x304;" 
d="M49 760v94h331v-94h-331z" />
    <glyph glyph-name="uni0306" unicode="&#x306;" 
d="M200 730q-74 0 -117 40.5t-43 110.5h85q0 -39 20 -58.5t55 -19.5q34 0 54.5 20t20.5 58h84q0 -70 -42.5 -110.5t-116.5 -40.5z" />
    <glyph glyph-name="uni0307" unicode="&#x307;" 
d="M188 756v132h125v-132h-125z" />
    <glyph glyph-name="uni0308" unicode="&#x308;" 
d="M98 756v127h108v-127h-108zM294 756v127h108v-127h-108z" />
    <glyph glyph-name="uni030A" unicode="&#x30a;" 
d="M250 737q-51 0 -82.5 29.5t-31.5 77.5t31.5 77.5t82.5 29.5t82.5 -29.5t31.5 -77.5t-31.5 -77.5t-82.5 -29.5zM250 796q21 0 34 13.5t13 34.5q0 22 -13 35t-34 13t-34 -13t-13 -35q0 -21 13 -34.5t34 -13.5z" />
    <glyph glyph-name="uni030B" unicode="&#x30b;" 
d="M40 740l59 143h120l-89 -143h-90zM215 740l82 143h126l-109 -143h-99z" />
    <glyph glyph-name="uni030C" unicode="&#x30c;" 
d="M153 740l-113 143h108l63 -83l64 83h108l-113 -143h-117z" />
    <glyph glyph-name="uni0327" unicode="&#x327;" 
d="M252 -240q-54 0 -89.5 27.5t-35.5 75.5h80q0 -15 10 -26.5t29 -11.5q20 0 30.5 12t10.5 31q0 21 -12.5 31t-34.5 10h-23v109h70v-66q41 -4 63.5 -28t22.5 -61q0 -49 -34.5 -76t-86.5 -27z" />
    <glyph glyph-name="uni0328" unicode="&#x328;" 
d="M156 -187q-56 0 -87.5 26t-31.5 70q0 38 22 66t56 38l70 -13q-26 -8 -42.5 -26.5t-16.5 -41.5q0 -22 14.5 -34t38.5 -12q14 0 30.5 3t26.5 8v-70q-12 -6 -34 -10t-46 -4z" />
    <glyph glyph-name="uni0337" unicode="&#x337;" 
d="M83 -60l481 652h80l-480 -652h-81z" />
    <glyph glyph-name="uni0338" unicode="&#x338;" 
d="M50 -81l597 810h96l-594 -810h-99z" />
    <glyph glyph-name="uni03BC" unicode="&#x3bc;" horiz-adv-x="619" 
d="M62 -132v664h125v-323q0 -56 30.5 -86t85.5 -30q67 0 98 41t31 108v290h125v-532h-120l-5 103h-7q-20 -57 -66 -84.5t-105 -27.5q-37 0 -67 11v-134h-125z" />
    <glyph glyph-name="pi" unicode="&#x3c0;" horiz-adv-x="601" 
d="M513 -6q-54 0 -83 19t-40 51t-11 71v295h-164v-430h-122v430h-83v102h573v-102h-82v-279q0 -65 50 -65q7 0 16 1.5t15 4.5v-87q-13 -5 -33 -8t-36 -3z" />
    <glyph glyph-name="Wgrave" unicode="&#x1e80;" horiz-adv-x="974" 
d="M166 0l-158 729h146l75 -385l36 -199h7l134 584h164l136 -586h7l34 200l73 386h146l-158 -729h-183l-134 554h-7l-136 -554h-182zM441 794l-89 143h125l58 -143h-94z" />
    <glyph glyph-name="wgrave" unicode="&#x1e81;" horiz-adv-x="773" 
d="M136 0l-129 533h127l92 -410h5l82 410h141l85 -411h3l92 411h123l-130 -533h-164l-81 374h-5l-77 -374h-164zM340 597l-89 143h125l58 -143h-94z" />
    <glyph glyph-name="Wacute" unicode="&#x1e82;" horiz-adv-x="974" 
d="M166 0l-158 729h146l75 -385l36 -199h7l134 584h164l136 -586h7l34 200l73 386h146l-158 -729h-183l-134 554h-7l-136 -554h-182zM440 794l58 143h125l-89 -143h-94z" />
    <glyph glyph-name="wacute" unicode="&#x1e83;" horiz-adv-x="773" 
d="M136 0l-129 533h127l92 -410h5l82 410h141l85 -411h3l92 411h123l-130 -533h-164l-81 374h-5l-77 -374h-164zM339 597l58 143h125l-89 -143h-94z" />
    <glyph glyph-name="Wdieresis" unicode="&#x1e84;" horiz-adv-x="974" 
d="M166 0l-158 729h146l75 -385l36 -199h7l134 584h164l136 -586h7l34 200l73 386h146l-158 -729h-183l-134 554h-7l-136 -554h-182zM335 810v127h108v-127h-108zM531 810v127h108v-127h-108z" />
    <glyph glyph-name="wdieresis" unicode="&#x1e85;" horiz-adv-x="773" 
d="M136 0l-129 533h127l92 -410h5l82 410h141l85 -411h3l92 411h123l-130 -533h-164l-81 374h-5l-77 -374h-164zM235 613v127h108v-127h-108zM431 613v127h108v-127h-108z" />
    <glyph glyph-name="uni1E9E" unicode="&#x1e9e;" horiz-adv-x="702" 
d="M84 0v729h537v-126l-144 -186v-6q89 -5 138.5 -58.5t49.5 -138.5q0 -101 -68 -157.5t-185 -56.5h-132v108h111q72 0 104 34t32 87q0 120 -140 120h-42v65l154 204h-283v-618h-132z" />
    <glyph glyph-name="Ygrave" unicode="&#x1ef2;" horiz-adv-x="679" 
d="M272 0v282l-270 447h151l182 -318h7l184 318h150l-272 -447v-282h-132zM293 794l-89 143h125l58 -143h-94z" />
    <glyph glyph-name="ygrave" unicode="&#x1ef3;" horiz-adv-x="521" 
d="M42 -167v103h59q35 0 54.5 14t30.5 44l18 46l-206 492h137l109 -304l20 -60h5l18 60l103 304h133l-215 -567q-28 -77 -73 -104.5t-111 -27.5h-82zM214 597l-89 143h125l58 -143h-94z" />
    <glyph glyph-name="endash" unicode="&#x2013;" horiz-adv-x="498" 
d="M30 213v106h438v-106h-438z" />
    <glyph glyph-name="emdash" unicode="&#x2014;" horiz-adv-x="667" 
d="M30 213v106h607v-106h-607z" />
    <glyph glyph-name="quoteleft" unicode="&#x2018;" horiz-adv-x="219" 
d="M190 729v-64l-18 -1q-29 -1 -41 -16.5t-12 -41.5v-41h55v-120h-121v167q0 64 28 89.5t77 27.5h32z" />
    <glyph glyph-name="quoteright" unicode="&#x2019;" horiz-adv-x="219" 
d="M29 445v64l17 1q30 1 42 16.5t12 41.5v41h-56v120h122v-167q0 -63 -28 -89t-77 -27z" />
    <glyph glyph-name="quotesinglbase" unicode="&#x201a;" horiz-adv-x="219" 
d="M29 -164v64l17 1q30 1 42 16.5t12 41.5v41h-56v120h122v-167q0 -63 -28 -89t-77 -27z" />
    <glyph glyph-name="quotedblleft" unicode="&#x201c;" horiz-adv-x="419" 
d="M390 729v-64l-17 -1q-30 -1 -42 -16.5t-12 -41.5v-41h56v-120h-122v167q0 64 28 89.5t77 27.5h32zM190 729v-64l-18 -1q-29 -1 -41 -16.5t-12 -41.5v-41h55v-120h-121v167q0 64 28 89.5t77 27.5h32z" />
    <glyph glyph-name="quotedblright" unicode="&#x201d;" horiz-adv-x="419" 
d="M29 445v64l17 1q30 1 42 16.5t12 41.5v41h-56v120h122v-167q0 -63 -28 -89t-77 -27zM229 445v64l17 1q30 1 42 16.5t12 41.5v41h-56v120h122v-167q0 -63 -28 -89t-77 -27z" />
    <glyph glyph-name="quotedblbase" unicode="&#x201e;" horiz-adv-x="419" 
d="M29 -164v64l17 1q30 1 42 16.5t12 41.5v41h-56v120h122v-167q0 -63 -28 -89t-77 -27zM229 -164v64l17 1q30 1 42 16.5t12 41.5v41h-56v120h122v-167q0 -63 -28 -89t-77 -27z" />
    <glyph glyph-name="bullet" unicode="&#x2022;" horiz-adv-x="345" 
d="M49 277q0 53 35 88t89 35q56 0 90 -35t34 -88t-34 -88t-90 -35q-54 0 -89 35t-35 88z" />
    <glyph glyph-name="ellipsis" unicode="&#x2026;" horiz-adv-x="681" 
d="M53 0v120h121v-120h-121zM280 0v120h121v-120h-121zM507 0v120h121v-120h-121z" />
    <glyph glyph-name="perthousand" unicode="&#x2030;" horiz-adv-x="1214" 
d="M158 0l463 729h89l-464 -729h-88zM195 336q-71 0 -110.5 53t-39.5 143q0 92 41.5 143t110.5 51q70 0 109.5 -53t39.5 -143q0 -93 -42 -143.5t-109 -50.5zM195 408q28 0 46.5 24.5t18.5 98.5t-18.5 98t-46.5 24q-18 0 -32.5 -10t-23 -36.5t-8.5 -75.5q0 -74 18 -98.5
t46 -24.5zM672 -4q-71 0 -110.5 53.5t-39.5 142.5q0 93 42 143.5t110 50.5q70 0 109.5 -53t39.5 -142q0 -94 -41.5 -144.5t-109.5 -50.5zM1018 -4q-71 0 -110.5 53.5t-39.5 142.5q0 93 42 143.5t110 50.5q70 0 109.5 -53t39.5 -142q0 -94 -42 -144.5t-109 -50.5zM673 69
q18 0 32.5 10t23 36.5t8.5 75.5q0 50 -8.5 76.5t-23 36.5t-32.5 10t-33 -10t-23.5 -36.5t-8.5 -76.5q0 -49 8.5 -75.5t23.5 -36.5t33 -10zM1019 69q18 0 32.5 10t23 36.5t8.5 75.5q0 50 -8.5 76.5t-23 36.5t-32.5 10q-19 0 -33.5 -10t-23 -36.5t-8.5 -76.5q0 -49 8.5 -75.5
t23 -36.5t33.5 -10z" />
    <glyph glyph-name="guilsinglleft" unicode="&#x2039;" horiz-adv-x="288" 
d="M155 0l-125 267l125 265h108l-117 -265l117 -267h-108z" />
    <glyph glyph-name="guilsinglright" unicode="&#x203a;" horiz-adv-x="288" 
d="M133 532l125 -267l-125 -265h-108l117 265l-117 267h108z" />
    <glyph glyph-name="fraction" unicode="&#x2044;" horiz-adv-x="149" 
d="M-221 0l496 721h95l-497 -721h-94z" />
    <glyph glyph-name="uni2070" unicode="&#x2070;" horiz-adv-x="365" 
d="M183 322q-77 0 -120.5 59.5t-43.5 162.5q0 106 45.5 163t119.5 57q76 0 119 -59.5t43 -161.5q0 -107 -45 -164t-118 -57zM183 394q35 0 56.5 31.5t21.5 117.5q0 85 -21.5 117t-56.5 32t-56.5 -31.5t-21.5 -117.5t21.5 -117.5t56.5 -31.5z" />
    <glyph glyph-name="uni2074" unicode="&#x2074;" horiz-adv-x="392" 
d="M227 326l-1 100h-203v64l183 269h106v-263h57l-1 -70h-56v-100h-85zM107 496h120v172z" />
    <glyph glyph-name="uni2075" unicode="&#x2075;" horiz-adv-x="374" 
d="M186 320q-71 0 -113.5 38t-43.5 99h85q2 -29 21.5 -45.5t50.5 -16.5q35 0 54.5 21t19.5 53q0 34 -20.5 55.5t-54.5 21.5q-25 0 -42.5 -11.5t-24.5 -30.5h-81l12 255h272v-75h-197l-5 -94l4 -2q13 13 35.5 21t45.5 8q66 0 104 -41t38 -105q0 -67 -43 -109t-117 -42z" />
    <glyph glyph-name="uni2076" unicode="&#x2076;" horiz-adv-x="373" 
d="M191 321q-77 0 -120.5 52t-43.5 159q0 117 44 174.5t126 57.5q65 0 104 -32t44 -86h-82q-5 21 -23 32.5t-44 11.5q-44 0 -63.5 -33.5t-18.5 -96.5h3q11 24 37 38t61 14q60 0 97 -39t37 -103q0 -71 -43.5 -110t-114.5 -39zM193 395q33 0 52 21t19 56t-19 55.5t-52 20.5
t-52.5 -21.5t-19.5 -55.5q0 -35 19.5 -55.5t52.5 -20.5z" />
    <glyph glyph-name="uni2077" unicode="&#x2077;" horiz-adv-x="373" 
d="M121 326q0 83 17.5 148t44.5 116.5t56 93.5h-145v-76h-68v151h314v-62q-35 -51 -64 -103t-46 -116t-17 -152h-92z" />
    <glyph glyph-name="uni2078" unicode="&#x2078;" horiz-adv-x="374" 
d="M187 322q-72 0 -116.5 32t-44.5 89q0 38 22 66.5t58 34.5v4q-37 8 -54.5 35t-17.5 61q0 53 40.5 86.5t112.5 33.5q73 0 113.5 -34t40.5 -87q0 -32 -17 -59.5t-55 -35.5v-4q37 -6 58 -34t21 -67q0 -56 -44.5 -88.5t-116.5 -32.5zM187 578q34 0 51 16t17 42q0 27 -18.5 42
t-49.5 15t-49 -15t-18 -42t17.5 -42.5t49.5 -15.5zM187 395q33 0 52.5 15.5t19.5 43.5q0 25 -18 41t-54 16t-53.5 -16t-17.5 -41q0 -28 19.5 -43.5t51.5 -15.5z" />
    <glyph glyph-name="uni2079" unicode="&#x2079;" horiz-adv-x="374" 
d="M179 321q-66 0 -104.5 33t-43.5 84h83q4 -19 21.5 -31.5t44.5 -12.5q45 0 63 34.5t17 96.5h-3q-11 -23 -36.5 -37.5t-61.5 -14.5q-60 0 -97 39.5t-37 102.5q0 71 43.5 110t113.5 39q78 0 121.5 -52.5t43.5 -159.5q0 -120 -43.5 -175.5t-124.5 -55.5zM180 537q34 0 53 22
t19 56t-19 54.5t-52 20.5t-52 -21t-19 -56t19 -55.5t51 -20.5z" />
    <glyph glyph-name="uni2080" unicode="&#x2080;" horiz-adv-x="365" 
d="M183 -34q-77 0 -120.5 59.5t-43.5 162.5q0 106 45.5 163t119.5 57q76 0 119 -59.5t43 -161.5q0 -107 -45 -164t-118 -57zM183 38q35 0 56.5 31.5t21.5 117.5q0 85 -21.5 117t-56.5 32t-56.5 -31.5t-21.5 -117.5t21.5 -117.5t56.5 -31.5z" />
    <glyph glyph-name="uni2081" unicode="&#x2081;" horiz-adv-x="262" 
d="M123 -30v293h-109v65h19q42 0 66.5 20.5t28.5 54.5h80v-433h-85z" />
    <glyph glyph-name="uni2082" unicode="&#x2082;" horiz-adv-x="355" 
d="M24 -30v12q0 54 21.5 90t53 62t63.5 47t53.5 43t21.5 51q0 28 -18 44t-46 16q-29 0 -47.5 -18.5t-15.5 -54.5h-84q-2 67 40.5 106.5t111.5 39.5q66 0 106.5 -34.5t40.5 -94.5q0 -38 -16.5 -66.5t-42 -50t-52.5 -39.5t-49.5 -36.5t-31.5 -41.5h195v-75h-304z" />
    <glyph glyph-name="uni2083" unicode="&#x2083;" horiz-adv-x="367" 
d="M177 -36q-74 0 -114.5 39t-41.5 101h84q0 -29 19.5 -48t53.5 -19q32 0 51.5 17.5t19.5 46.5q0 28 -17.5 43t-45.5 15h-52v64h46q31 0 47 16t16 41q0 27 -18 41t-46 14q-32 0 -50.5 -17.5t-19.5 -47.5h-85q1 63 44 100.5t114 37.5q67 0 107.5 -31.5t40.5 -84.5
q0 -36 -17.5 -61.5t-44.5 -34.5v-4q32 -8 50.5 -34t18.5 -65q0 -58 -44.5 -93.5t-115.5 -35.5z" />
    <glyph glyph-name="uni2084" unicode="&#x2084;" horiz-adv-x="392" 
d="M227 -30l-1 100h-203v64l183 269h106v-263h57l-1 -70h-56v-100h-85zM107 140h120v172z" />
    <glyph glyph-name="uni2085" unicode="&#x2085;" horiz-adv-x="374" 
d="M186 -36q-71 0 -113.5 38t-43.5 99h85q2 -28 21.5 -45t50.5 -17q35 0 54.5 21t19.5 53q0 34 -20.5 55.5t-54.5 21.5q-25 0 -42.5 -11.5t-24.5 -30.5h-81l12 255h272v-75h-197l-5 -94l4 -2q13 13 35.5 21t45.5 8q66 0 104 -41t38 -105q0 -67 -43 -109t-117 -42z" />
    <glyph glyph-name="uni2086" unicode="&#x2086;" horiz-adv-x="373" 
d="M191 -35q-77 0 -120.5 52t-43.5 159q0 117 44 174.5t126 57.5q65 0 104 -32t44 -86h-82q-5 21 -23 32.5t-44 11.5q-44 0 -63.5 -33.5t-18.5 -96.5h3q11 24 37 38t61 14q60 0 97 -39t37 -103q0 -71 -43.5 -110t-114.5 -39zM193 39q33 0 52 21t19 56t-19 55.5t-52 20.5
t-52.5 -21.5t-19.5 -55.5q0 -35 19.5 -55.5t52.5 -20.5z" />
    <glyph glyph-name="uni2087" unicode="&#x2087;" horiz-adv-x="373" 
d="M121 -30q0 83 17.5 148t44.5 116.5t56 93.5h-145v-76h-68v151h314v-62q-35 -51 -64 -103t-46 -116t-17 -152h-92z" />
    <glyph glyph-name="uni2088" unicode="&#x2088;" horiz-adv-x="374" 
d="M187 -34q-72 0 -116.5 32t-44.5 89q0 38 22 66.5t58 34.5v4q-37 8 -54.5 35t-17.5 61q0 53 40.5 86.5t112.5 33.5q73 0 113.5 -34t40.5 -87q0 -32 -17 -59.5t-55 -35.5v-4q37 -6 58 -34t21 -67q0 -56 -44.5 -88.5t-116.5 -32.5zM187 222q34 0 51 16t17 42q0 27 -18.5 42
t-49.5 15t-49 -15t-18 -42t17.5 -42.5t49.5 -15.5zM187 39q33 0 52.5 15.5t19.5 43.5q0 25 -18 41t-54 16t-53.5 -16t-17.5 -41q0 -28 19.5 -43.5t51.5 -15.5z" />
    <glyph glyph-name="uni2089" unicode="&#x2089;" horiz-adv-x="374" 
d="M179 -35q-66 0 -104.5 33t-43.5 84h83q4 -19 21.5 -31.5t44.5 -12.5q45 0 63 34.5t17 96.5h-3q-11 -23 -36.5 -37.5t-61.5 -14.5q-60 0 -97 39.5t-37 102.5q0 71 43.5 110t113.5 39q78 0 121.5 -52.5t43.5 -159.5q0 -120 -43.5 -175.5t-124.5 -55.5zM180 181q34 0 53 22
t19 56t-19 54.5t-52 20.5t-52 -21t-19 -56t19 -55.5t51 -20.5z" />
    <glyph glyph-name="uni20AA" unicode="&#x20aa;" horiz-adv-x="814" 
d="M388 0q-51 0 -82.5 23.5t-31.5 92.5v437h92v-451h256v627h108v-729h-342zM84 0v729h342q52 0 83 -23.5t31 -92.5v-436h-92v450h-256v-627h-108z" />
    <glyph glyph-name="Euro" unicode="&#x20ac;" horiz-adv-x="831" 
d="M37 247v68h61q-2 24 -2 50q0 25 2 49h-61v67h72q31 122 123 189.5t226 67.5q91 0 163.5 -32t117.5 -90t55 -135h-137q-14 62 -66.5 101.5t-132.5 39.5q-76 0 -129 -36t-77 -105h238l-10 -67h-242q-3 -24 -3 -49q0 -26 3 -50h228l-10 -68h-203q23 -69 76 -104.5t129 -35.5
q78 0 132 39t67 104h137q-9 -79 -54.5 -137t-118 -90t-163.5 -32q-134 0 -226 67t-123 189h-72z" />
    <glyph glyph-name="uni20B9" unicode="&#x20b9;" horiz-adv-x="630" 
d="M414 0q-4 3 -10 14.5t-10 31.5l-23 128q-8 44 -25 66.5t-42 30t-58 7.5h-162v95h182q71 0 105.5 24.5t41.5 67.5h-329v70h329q-8 47 -44 69.5t-103 22.5h-182v102h546v-81h-151v-6q28 -12 47.5 -40.5t23.5 -61.5h80v-81h-81q-10 -54 -50 -88.5t-99 -45.5v-8
q47 -10 74 -40.5t36 -88.5l23 -135q2 -17 8 -26.5t11 -12.5v-14h-138z" />
    <glyph glyph-name="uni20BA" unicode="&#x20ba;" horiz-adv-x="641" 
d="M99 0v273l-86 -33v96l86 35v90l-86 -34v95l86 36v171h125v-123l162 67v-96l-162 -68v-90l162 67v-96l-162 -67v-202q115 0 179 60t75 158h129q-9 -110 -61 -185.5t-139.5 -114.5t-202.5 -39h-105z" />
    <glyph glyph-name="uni20BF" unicode="&#x20bf;" horiz-adv-x="693" 
d="M84 0v729h122v86h76v-86h90v86h76v-87q93 -9 140.5 -59t47.5 -127q0 -57 -29.5 -101t-84.5 -59v-7q65 -13 99 -59.5t34 -108.5q0 -84 -52.5 -138.5t-154.5 -65.5v-88h-76v85h-90v-85h-77v85h-121zM212 422h173q56 0 84 28t28 73q0 50 -32.5 77t-86.5 27h-166v-205z
M212 103h171q66 0 99 30.5t33 82.5q0 51 -31.5 79t-92.5 28h-179v-220z" />
    <glyph glyph-name="uni2117" unicode="&#x2117;" horiz-adv-x="822" 
d="M411 -9q-113 0 -200 46.5t-136.5 130.5t-49.5 196t49.5 196t136.5 131t200 47q114 0 201 -47t136 -131t49 -196t-49 -196t-136 -130.5t-201 -46.5zM411 44q98 0 171.5 40.5t114.5 112t41 167.5t-41 168t-114.5 112t-171.5 40q-97 0 -170.5 -40t-115 -112t-41.5 -168
t41.5 -167.5t115 -112t170.5 -40.5zM272 166v397h182q74 0 113 -34t39 -95q0 -58 -38 -94t-115 -36h-88v-138h-93zM431 497h-66v-132h66q36 0 58.5 15t22.5 52q0 36 -23 50.5t-58 14.5z" />
    <glyph glyph-name="trademark" unicode="&#x2122;" horiz-adv-x="758" 
d="M326 417l-1 312h111l83 -211h3l82 211h112v-312h-79v117l2 97h-3l-85 -214h-62l-85 214h-2l1 -97v-117h-77zM99 417v241h-94v71h274v-71h-97v-241h-83z" />
    <glyph glyph-name="oneeighth" unicode="&#x215b;" horiz-adv-x="729" 
d="M107 337v260h-98v57h16q40 0 61.5 19t24.5 48h72v-384h-76zM16 0l496 721h95l-497 -721h-94zM557 -3q-65 0 -105.5 28.5t-40.5 78.5q0 32 19.5 58t52.5 31v4q-29 6 -47 29t-18 56q0 48 37 77.5t102 29.5t102 -30t37 -77q0 -30 -16.5 -54t-48.5 -31v-4q33 -5 52.5 -29.5
t19.5 -59.5q0 -50 -40.5 -78.5t-105.5 -28.5zM557 224q32 0 47 14t15 37q0 24 -16.5 37.5t-45.5 13.5t-45.5 -14t-16.5 -37q0 -24 16 -37.5t46 -13.5zM557 62q30 0 48 13.5t18 38.5q0 22 -16.5 36t-49.5 14q-34 0 -50 -14t-16 -36q0 -25 18 -38.5t48 -13.5z" />
    <glyph glyph-name="threeeighths" unicode="&#x215c;" horiz-adv-x="829" 
d="M164 332q-66 0 -103.5 34.5t-38.5 88.5h75q0 -26 18.5 -42t48.5 -16q29 0 47.5 15.5t18.5 40.5q0 24 -16 38t-43 14h-47v56h42q28 0 43 14.5t15 36.5q0 23 -16.5 36t-43.5 13q-28 0 -45.5 -15.5t-18.5 -42.5h-75q1 58 41 90.5t101 32.5q59 0 97 -28t38 -76
q0 -29 -15.5 -52.5t-41.5 -32.5v-3q31 -8 47 -32t16 -56q0 -51 -40.5 -82.5t-103.5 -31.5zM116 0l496 721h95l-497 -721h-94zM657 -3q-65 0 -105.5 28.5t-40.5 78.5q0 32 19.5 58t52.5 31v4q-29 6 -47 29t-18 56q0 48 37 77.5t102 29.5t102 -30t37 -77q0 -30 -16.5 -54
t-48.5 -31v-4q33 -5 52.5 -29.5t19.5 -59.5q0 -50 -40.5 -78.5t-105.5 -28.5zM657 224q32 0 47 14t15 37q0 24 -16.5 37.5t-45.5 13.5t-45.5 -14t-16.5 -37q0 -24 16 -37.5t46 -13.5zM657 62q30 0 48 13.5t18 38.5q0 22 -16.5 36t-49.5 14q-34 0 -50 -14t-16 -36
q0 -25 18 -38.5t48 -13.5z" />
    <glyph glyph-name="fiveeighths" unicode="&#x215d;" horiz-adv-x="838" 
d="M171 332q-64 0 -102 34t-39 88h76q1 -25 19.5 -40.5t46.5 -15.5q30 0 49 18.5t19 47.5t-18.5 48.5t-49.5 19.5q-48 0 -63 -38h-71l9 227h243v-66h-175l-4 -84l3 -2q24 26 74 26q58 0 93 -36.5t35 -92.5q0 -60 -39 -97t-106 -37zM124 0l496 721h95l-497 -721h-94zM666 -3
q-65 0 -105.5 28.5t-40.5 78.5q0 32 19.5 58t52.5 31v4q-29 6 -47 29t-18 56q0 48 37 77.5t102 29.5t102 -30t37 -77q0 -30 -16.5 -54t-48.5 -31v-4q33 -5 52.5 -29.5t19.5 -59.5q0 -50 -40.5 -78.5t-105.5 -28.5zM666 224q32 0 47 14t15 37q0 24 -16.5 37.5t-45.5 13.5
t-45.5 -14t-16.5 -37q0 -24 16 -37.5t46 -13.5zM666 62q30 0 48 13.5t18 38.5q0 22 -16.5 36t-49.5 14q-34 0 -50 -14t-16 -36q0 -25 18 -38.5t48 -13.5z" />
    <glyph glyph-name="seveneighths" unicode="&#x215e;" horiz-adv-x="745" 
d="M96 337q0 74 15.5 131.5t40.5 103t52 83.5h-134v-68h-61v134h285v-55q-33 -46 -59.5 -92t-42 -102.5t-15.5 -134.5h-81zM32 0l496 721h95l-497 -721h-94zM574 -3q-65 0 -105.5 28.5t-40.5 78.5q0 32 19.5 58t52.5 31v4q-29 6 -47 29t-18 56q0 48 37 77.5t102 29.5
t102 -30t37 -77q0 -30 -16.5 -54t-48.5 -31v-4q33 -5 52.5 -29.5t19.5 -59.5q0 -50 -40.5 -78.5t-105.5 -28.5zM574 224q32 0 47 14t15 37q0 24 -16.5 37.5t-45.5 13.5t-45.5 -14t-16.5 -37q0 -24 16 -37.5t46 -13.5zM574 62q30 0 48 13.5t18 38.5q0 22 -16.5 36t-49.5 14
q-34 0 -50 -14t-16 -36q0 -25 18 -38.5t48 -13.5z" />
    <glyph glyph-name="arrowleft" unicode="&#x2190;" horiz-adv-x="746" 
d="M651 420v-110h-413l107 -155h-113l-144 210l144 210h113l-107 -155h413z" />
    <glyph glyph-name="arrowup" unicode="&#x2191;" horiz-adv-x="539" 
d="M215 83v414l-155 -107v113l210 143l209 -143v-113l-155 107v-414h-109z" />
    <glyph glyph-name="arrowright" unicode="&#x2192;" horiz-adv-x="746" 
d="M95 420h413l-107 155h113l144 -210l-144 -210h-113l107 155h-413v110z" />
    <glyph glyph-name="arrowdown" unicode="&#x2193;" horiz-adv-x="536" 
d="M217 646h109v-414l155 107v-113l-210 -143l-209 143v113l155 -107v414z" />
    <glyph glyph-name="arrowboth" unicode="&#x2194;" horiz-adv-x="830" 
d="M189 155l-143 210l143 210h113l-107 -155h440l-107 155h113l143 -210l-143 -210h-113l107 155h-440l107 -155h-113z" />
    <glyph glyph-name="emptyset" unicode="&#x2205;" horiz-adv-x="775" 
d="M388 -4q-76 0 -142 26.5t-115.5 76t-77.5 117.5t-28 150q0 81 28 148t77.5 116.5t115.5 76t142 26.5t142 -27t115.5 -76t77 -116t27.5 -148q0 -82 -27.5 -150t-77 -117.5t-115.5 -76t-142 -26.5zM111 229l527 322q-42 61 -107 95t-143 34q-63 0 -118.5 -23t-97.5 -65
t-66 -99.5t-24 -126.5q0 -37 7.5 -72t21.5 -65zM388 49q63 0 118.5 23.5t97.5 66t65.5 100.5t23.5 127q0 38 -7.5 73t-21.5 67l-529 -323q42 -62 108.5 -98t144.5 -36z" />
    <glyph glyph-name="product" unicode="&#x220f;" horiz-adv-x="787" 
d="M84 -151v880h620v-880h-132v761h-356v-761h-132z" />
    <glyph glyph-name="summation" unicode="&#x2211;" horiz-adv-x="666" 
d="M84 -151v138l238 294v16l-238 294v138h498v-128h-193l-141 1v-7l250 -306l-250 -306v-7l141 1h193v-128h-498z" />
    <glyph glyph-name="minus" unicode="&#x2212;" horiz-adv-x="663" 
d="M94 311v99h476v-99h-476z" />
    <glyph glyph-name="radical" unicode="&#x221a;" horiz-adv-x="705" 
d="M244 -151l-148 473h-87v118h191l127 -452h6l222 741h141l-280 -880h-172z" />
    <glyph glyph-name="infinity" unicode="&#x221e;" horiz-adv-x="907" 
d="M248 141q-61 0 -108.5 28t-75 78t-27.5 116q0 63 27 114.5t74.5 81.5t109.5 30q47 0 85 -19.5t68 -51.5t52 -69q23 37 52.5 69t67.5 51.5t86 19.5q62 0 109.5 -30.5t74 -81.5t26.5 -114q0 -64 -27 -114t-74 -79t-108 -29q-71 0 -121 38.5t-86 98.5q-34 -58 -84.5 -97.5
t-120.5 -39.5zM255 256q42 0 75.5 30t64.5 80q-30 48 -63 77.5t-78 29.5t-72 -31t-27 -77q0 -47 27 -78t73 -31zM652 256q45 0 72 32t27 77t-27 76.5t-72 31.5t-77.5 -30t-62.5 -77q31 -50 63.5 -80t76.5 -30z" />
    <glyph glyph-name="integral" unicode="&#x222b;" horiz-adv-x="424" 
d="M9 -151v101h140v665q0 54 30 84t81 30h155v-102h-141v-665q0 -52 -29 -82.5t-82 -30.5h-154z" />
    <glyph glyph-name="approxequal" unicode="&#x2248;" horiz-adv-x="657" 
d="M418 397q-41 0 -72.5 14t-58 28.5t-51.5 14.5q-26 0 -37 -19t-9 -40h-64q-4 58 11 92.5t41 49.5t55 15q36 0 65 -14.5t56 -28.5t57 -14q28 0 42.5 17t14.5 45h64q6 -83 -27.5 -121.5t-86.5 -38.5zM418 174q-41 0 -72.5 14.5t-58 29.5t-51.5 15t-36.5 -19.5t-9.5 -41.5
h-64q-5 62 11.5 96.5t43 48.5t52.5 14q36 0 65 -14.5t56 -28.5t57 -14q28 0 42.5 17t14.5 44h64q4 -57 -11 -92.5t-42.5 -52t-60.5 -16.5z" />
    <glyph glyph-name="notequal" unicode="&#x2260;" horiz-adv-x="631" 
d="M137 76l56 120h-115v98h158l64 133h-222v99h265l55 119h97l-56 -119h114v-99h-156l-64 -133h220v-98h-263l-56 -120h-97z" />
    <glyph glyph-name="lessequal" unicode="&#x2264;" horiz-adv-x="685" 
d="M591 147l-497 174v138l497 170v-113l-373 -123v-7l373 -126v-113zM94 0v89h497v-89h-497z" />
    <glyph glyph-name="greaterequal" unicode="&#x2265;" horiz-adv-x="685" 
d="M94 147v113l374 126v7l-374 123v113l497 -170v-138zM94 0v89h497v-89h-497z" />
    <glyph glyph-name="uni2639" unicode="&#x2639;" horiz-adv-x="804" 
d="M403 -10q-82 0 -151 27t-120 77t-79 119t-28 154q0 83 28 151t79 117.5t120 76.5t151 27q81 0 150 -27t119.5 -76.5t78.5 -118t28 -150.5q0 -113 -48.5 -197.5t-134 -132t-193.5 -47.5zM403 44q93 0 165 40.5t112.5 113t40.5 169.5q0 95 -40.5 166.5t-112.5 111.5
t-165 40q-95 0 -166.5 -40t-112.5 -111.5t-41 -166.5q0 -97 41 -169.5t112.5 -113t166.5 -40.5zM314 391q-27 0 -40.5 19.5t-13.5 48.5q0 33 15 50t39 17q27 0 40.5 -19.5t13.5 -47.5q0 -35 -15 -51.5t-39 -16.5zM493 391q-27 0 -41 19.5t-14 48.5q0 33 15.5 50t39.5 17
q27 0 41 -19.5t14 -47.5q0 -34 -15.5 -51t-39.5 -17zM174 176q22 68 84 105.5t144 37.5t144 -37.5t85 -105.5h-51q-22 46 -70 72t-108 26q-61 0 -108.5 -27t-69.5 -71h-50z" />
    <glyph glyph-name="smileface" unicode="&#x263a;" horiz-adv-x="804" 
d="M403 -10q-82 0 -151 27t-120 77t-79 119t-28 154q0 83 28 151t79 117.5t120 76.5t151 27q81 0 150 -27t119.5 -76.5t78.5 -118t28 -150.5q0 -113 -48.5 -197.5t-134 -132t-193.5 -47.5zM403 44q93 0 165 40.5t112.5 113t40.5 169.5q0 95 -40.5 166.5t-112.5 111.5
t-165 40q-95 0 -166.5 -40t-112.5 -111.5t-41 -166.5q0 -97 41 -169.5t112.5 -113t166.5 -40.5zM314 391q-27 0 -40.5 19.5t-13.5 48.5q0 33 15 50t39 17q27 0 40.5 -19.5t13.5 -47.5q0 -35 -15 -51.5t-39 -16.5zM493 391q-27 0 -41 19.5t-14 48.5q0 33 15.5 50t39.5 17
q27 0 41 -19.5t14 -47.5q0 -34 -15.5 -51t-39.5 -17zM402 116q-63 0 -113.5 23.5t-83 65.5t-41.5 98h-30v26h119v-26h-36q12 -62 62.5 -99t122.5 -37t122.5 37t62.5 99h-35v26h118v-26h-29q-10 -56 -42.5 -98t-83 -65.5t-113.5 -23.5z" />
    <glyph glyph-name="uni2713" unicode="&#x2713;" horiz-adv-x="935" 
d="M327 97l-220 273l78 71l151 -190l421 377l70 -83z" />
    <glyph glyph-name="uni2776" unicode="&#x2776;" horiz-adv-x="872" 
d="M436 -9q-115 0 -202 46.5t-136 130.5t-49 196t49 196t136.5 131t201.5 47t201.5 -47t137 -131t49.5 -196q0 -111 -49.5 -195.5t-137 -131t-201.5 -46.5zM428 166h71v397h-67q-3 -29 -23.5 -48.5t-59.5 -19.5h-15v-54h94v-275z" />
    <glyph glyph-name="uni2777" unicode="&#x2777;" horiz-adv-x="872" 
d="M436 -9q-115 0 -202 46.5t-136 130.5t-49 196t49 196t136.5 131t201.5 47t201.5 -47t137 -131t49.5 -196q0 -111 -49.5 -195.5t-137 -131t-201.5 -46.5zM306 163h262v63h-98q-42 0 -73 -3q10 23 29.5 42t43.5 37t45.5 38.5t35.5 46t14 60.5q0 54 -35 86t-91 32
q-59 0 -96 -36t-35 -96h70q-2 30 13.5 50t43.5 20q24 0 40 -16t16 -43q0 -28 -19 -49t-46.5 -40.5t-54.5 -43t-46 -56.5t-19 -82v-10z" />
    <glyph glyph-name="uni2778" unicode="&#x2778;" horiz-adv-x="872" 
d="M436 -9q-115 0 -202 46.5t-136 130.5t-49 196t49 196t136.5 131t201.5 47t201.5 -47t137 -131t49.5 -196q0 -111 -49.5 -195.5t-137 -131t-201.5 -46.5zM436 161q59 0 97.5 32.5t38.5 85.5q0 32 -15 57t-45 34v3q24 9 39.5 32.5t15.5 56.5q0 49 -36.5 77.5t-91.5 28.5
q-60 0 -97 -34t-38 -92h71q0 28 16.5 46t44.5 18q25 0 41 -14t16 -40q0 -23 -14.5 -39t-41.5 -16h-40v-55h46q24 0 40 -15t16 -42t-18 -44.5t-46 -17.5q-27 0 -45 18t-18 47h-71q1 -57 37 -92t98 -35z" />
    <glyph glyph-name="uni2779" unicode="&#x2779;" horiz-adv-x="872" 
d="M49 364q0 112 49 196t136.5 131t201.5 47t201.5 -47t137 -131t49.5 -196q0 -111 -49.5 -195.5t-137 -131t-201.5 -46.5q-115 0 -202 46.5t-136 130.5t-49 196zM285 259h177v-93h72v93h48l1 60h-49v244h-89l-160 -249v-55zM355 319l107 162v-162h-107z" />
    <glyph glyph-name="uni277A" unicode="&#x277a;" horiz-adv-x="872" 
d="M436 -9q-115 0 -202 46.5t-136 130.5t-49 196t49 196t136.5 131t201.5 47t201.5 -47t137 -131t49.5 -196q0 -111 -49.5 -195.5t-137 -131t-201.5 -46.5zM435 163q63 0 100.5 38.5t37.5 100.5q0 57 -33.5 95t-88.5 38q-23 0 -41.5 -8.5t-29.5 -21.5l-3 1l3 97h168v62h-231
l-9 -232h68q14 42 59 42q29 0 47.5 -22t18.5 -54t-18.5 -52.5t-46.5 -20.5t-45 17.5t-18 45.5h-73q1 -56 38 -91t97 -35z" />
    <glyph glyph-name="uni277B" unicode="&#x277b;" horiz-adv-x="872" 
d="M436 -9q-115 0 -202 46.5t-136 130.5t-49 196t49 196t136.5 131t201.5 47t201.5 -47t137 -131t49.5 -196q0 -111 -49.5 -195.5t-137 -131t-201.5 -46.5zM441 161q59 0 97 35t38 103q0 57 -30 92.5t-87 35.5q-29 0 -51.5 -13.5t-32.5 -37.5h-3q0 59 15.5 94t56.5 35
q22 0 38.5 -11.5t20.5 -33.5h69q-5 50 -39 79t-89 29q-70 0 -107.5 -53.5t-37.5 -161.5q0 -97 37 -144.5t105 -47.5zM442 223q-29 0 -46 20t-17 54q0 33 16.5 55t46.5 22q28 0 45 -20.5t17 -54.5t-17.5 -55t-44.5 -21z" />
    <glyph glyph-name="uni277C" unicode="&#x277c;" horiz-adv-x="872" 
d="M436 -9q-115 0 -202 46.5t-136 130.5t-49 196t49 196t136.5 131t201.5 47t201.5 -47t137 -131t49.5 -196q0 -111 -49.5 -195.5t-137 -131t-201.5 -46.5zM383 166h78q0 79 14 137.5t39 108t58 99.5v52h-271v-134h58v72h128q-42 -65 -73 -144.5t-31 -190.5z" />
    <glyph glyph-name="uni277D" unicode="&#x277d;" horiz-adv-x="872" 
d="M49 364q0 112 49 196t136.5 131t201.5 47t201.5 -47t137 -131t49.5 -196q0 -111 -49.5 -195.5t-137 -131t-201.5 -46.5q-115 0 -202 46.5t-136 130.5t-49 196zM298 272q0 -51 39 -80.5t101 -29.5q61 0 99.5 30t38.5 80q0 33 -17.5 60t-51.5 33v3q32 8 47.5 33.5
t15.5 56.5q0 48 -35.5 78.5t-96.5 30.5q-63 0 -98 -30.5t-35 -77.5q0 -32 15.5 -57.5t47.5 -33.5v-3q-32 -6 -51 -32t-19 -61zM378 450q0 26 15.5 41t43.5 15q27 0 43 -15t16 -41q0 -25 -14.5 -41t-44.5 -16q-29 0 -44 16t-15 41zM374 281q0 24 15.5 40t47.5 16
q31 0 46.5 -16t15.5 -40q0 -27 -17 -42.5t-45 -15.5q-29 0 -46 15t-17 43z" />
    <glyph glyph-name="uni277E" unicode="&#x277e;" horiz-adv-x="872" 
d="M436 -9q-115 0 -202 46.5t-136 130.5t-49 196t49 196t136.5 131t201.5 47t201.5 -47t137 -131t49.5 -196q0 -111 -49.5 -195.5t-137 -131t-201.5 -46.5zM431 161q67 0 106 48t39 166q0 97 -38 145t-105 48q-59 0 -96.5 -35t-37.5 -102q0 -58 30.5 -93.5t86.5 -35.5
q33 0 54 15t29 36h3q1 -59 -14.5 -94.5t-55.5 -35.5q-25 0 -40 13.5t-18 31.5h-69q5 -52 39.5 -79.5t86.5 -27.5zM433 356q-28 0 -45 20t-17 55q0 33 17 53.5t45 20.5q29 0 46 -20t17 -54q0 -33 -16.5 -54t-46.5 -21z" />
    <glyph glyph-name="uni2780" unicode="&#x2780;" horiz-adv-x="869" 
d="M434 -9q-113 0 -200 46.5t-136 130.5t-49 196t49 196t136 131t200 47q114 0 201 -47t136.5 -131t49.5 -196t-49.5 -196t-136.5 -130.5t-201 -46.5zM434 44q98 0 171.5 40.5t115 112t41.5 167.5t-41.5 168t-115 112t-171.5 40q-97 0 -170.5 -40t-114.5 -112t-41 -168
t41 -167.5t114.5 -112t170.5 -40.5zM427 166v275h-94v54h15q39 0 59.5 19.5t23.5 48.5h67v-397h-71z" />
    <glyph glyph-name="uni2781" unicode="&#x2781;" horiz-adv-x="869" 
d="M434 -9q-113 0 -200 46.5t-136 130.5t-49 196t49 196t136 131t200 47q114 0 201 -47t136.5 -131t49.5 -196t-49.5 -196t-136.5 -130.5t-201 -46.5zM434 44q98 0 171.5 40.5t115 112t41.5 167.5t-41.5 168t-115 112t-171.5 40q-97 0 -170.5 -40t-114.5 -112t-41 -168
t41 -167.5t114.5 -112t170.5 -40.5zM305 163v10q0 49 18.5 82t46 56.5t55 43t46 40.5t18.5 49q0 27 -15.5 43t-40.5 16q-28 0 -43 -20t-13 -50h-71q-2 60 35 96t96 36q57 0 91.5 -32t34.5 -86q0 -35 -14 -60.5t-35.5 -46t-45 -38.5t-43.5 -37t-30 -42q32 3 74 3h97v-63h-261
z" />
    <glyph glyph-name="uni2782" unicode="&#x2782;" horiz-adv-x="869" 
d="M434 -9q-113 0 -200 46.5t-136 130.5t-49 196t49 196t136 131t200 47q114 0 201 -47t136.5 -131t49.5 -196t-49.5 -196t-136.5 -130.5t-201 -46.5zM434 44q98 0 171.5 40.5t115 112t41.5 167.5t-41.5 168t-115 112t-171.5 40q-97 0 -170.5 -40t-114.5 -112t-41 -168
t41 -167.5t114.5 -112t170.5 -40.5zM434 161q-61 0 -97 35t-37 92h71q-1 -29 17 -47t46 -18t46 17.5t18 44.5t-16 42t-40 15h-46v55h40q27 0 41.5 16t14.5 39q0 26 -16 40t-41 14q-28 0 -44.5 -18t-16.5 -46h-71q0 58 37.5 92t97.5 34q55 0 91.5 -28.5t36.5 -77.5
q0 -33 -16 -56.5t-39 -32.5v-3q30 -9 45 -34t15 -57q0 -53 -38.5 -85.5t-98.5 -32.5z" />
    <glyph glyph-name="uni2783" unicode="&#x2783;" horiz-adv-x="869" 
d="M49 364q0 112 49 196t136 131t200 47q114 0 201 -47t136.5 -131t49.5 -196t-49.5 -196t-136.5 -130.5t-201 -46.5q-113 0 -200 46.5t-136 130.5t-49 196zM108 364q0 -96 41 -167.5t114.5 -112t170.5 -40.5q98 0 171.5 40.5t115 112t41.5 167.5t-41.5 168t-115 112
t-171.5 40q-97 0 -170.5 -40t-114.5 -112t-41 -168zM274 259v55l160 249h89v-244h49v-60h-49v-93h-72v93h-177zM345 319h106v162z" />
    <glyph glyph-name="uni2784" unicode="&#x2784;" horiz-adv-x="869" 
d="M434 -9q-113 0 -200 46.5t-136 130.5t-49 196t49 196t136 131t200 47q114 0 201 -47t136.5 -131t49.5 -196t-49.5 -196t-136.5 -130.5t-201 -46.5zM434 44q98 0 171.5 40.5t115 112t41.5 167.5t-41.5 168t-115 112t-171.5 40q-97 0 -170.5 -40t-114.5 -112t-41 -168
t41 -167.5t114.5 -112t170.5 -40.5zM434 163q-60 0 -97 35t-38 91h73q0 -28 17.5 -45.5t45.5 -17.5t46 20.5t18 52.5t-18 54t-47 22q-46 0 -59 -42h-68l9 232h231v-62h-168l-3 -97l3 -1q10 13 29 21.5t41 8.5q56 0 89.5 -38t33.5 -95q0 -62 -38 -100.5t-100 -38.5z" />
    <glyph glyph-name="uni2785" unicode="&#x2785;" horiz-adv-x="869" 
d="M434 -9q-113 0 -200 46.5t-136 130.5t-49 196t49 196t136 131t200 47q114 0 201 -47t136.5 -131t49.5 -196t-49.5 -196t-136.5 -130.5t-201 -46.5zM434 44q98 0 171.5 40.5t115 112t41.5 167.5t-41.5 168t-115 112t-171.5 40q-97 0 -170.5 -40t-114.5 -112t-41 -168
t41 -167.5t114.5 -112t170.5 -40.5zM440 161q-68 0 -105.5 47.5t-37.5 144.5q0 108 37.5 161.5t108.5 53.5q54 0 88 -29t40 -79h-70q-4 22 -20.5 33.5t-37.5 11.5q-41 0 -57 -35t-16 -94h3q10 24 32.5 37.5t52.5 13.5q56 0 86 -35.5t30 -92.5q0 -68 -37.5 -103t-96.5 -35z
M440 223q27 0 44.5 21t17.5 55t-17 54.5t-45 20.5q-29 0 -46 -22t-17 -55q0 -34 17.5 -54t45.5 -20z" />
    <glyph glyph-name="uni2786" unicode="&#x2786;" horiz-adv-x="869" 
d="M434 -9q-113 0 -200 46.5t-136 130.5t-49 196t49 196t136 131t200 47q114 0 201 -47t136.5 -131t49.5 -196t-49.5 -196t-136.5 -130.5t-201 -46.5zM434 44q98 0 171.5 40.5t115 112t41.5 167.5t-41.5 168t-115 112t-171.5 40q-97 0 -170.5 -40t-114.5 -112t-41 -168
t41 -167.5t114.5 -112t170.5 -40.5zM382 166q0 111 31 190.5t73 144.5h-128v-72h-58v134h271v-52q-33 -50 -58 -99.5t-39 -108t-14 -137.5h-78z" />
    <glyph glyph-name="uni2787" unicode="&#x2787;" horiz-adv-x="869" 
d="M434 -9q-113 0 -200 46.5t-136 130.5t-49 196t49 196t136 131t200 47q114 0 201 -47t136.5 -131t49.5 -196t-49.5 -196t-136.5 -130.5t-201 -46.5zM434 44q98 0 171.5 40.5t115 112t41.5 167.5t-41.5 168t-115 112t-171.5 40q-97 0 -170.5 -40t-114.5 -112t-41 -168
t41 -167.5t114.5 -112t170.5 -40.5zM436 162q-62 0 -101 29.5t-39 80.5q0 35 19 61t51 32v3q-32 8 -47.5 33.5t-15.5 57.5q0 47 35 77.5t98 30.5q61 0 96.5 -30.5t35.5 -78.5q0 -31 -15.5 -56.5t-47.5 -33.5v-3q34 -6 51.5 -33t17.5 -60q0 -50 -38.5 -80t-99.5 -30zM436 393
q29 0 44 16t15 41q0 26 -16.5 41t-42.5 15q-28 0 -43.5 -15t-15.5 -41q0 -25 15 -41t44 -16zM436 223q28 0 45 15.5t17 42.5q0 24 -16 40t-46 16q-32 0 -47.5 -16t-15.5 -40q0 -28 17 -43t46 -15z" />
    <glyph glyph-name="uni2788" unicode="&#x2788;" horiz-adv-x="869" 
d="M434 -9q-113 0 -200 46.5t-136 130.5t-49 196t49 196t136 131t200 47q114 0 201 -47t136.5 -131t49.5 -196t-49.5 -196t-136.5 -130.5t-201 -46.5zM434 44q98 0 171.5 40.5t115 112t41.5 167.5t-41.5 168t-115 112t-171.5 40q-97 0 -170.5 -40t-114.5 -112t-41 -168
t41 -167.5t114.5 -112t170.5 -40.5zM430 161q-52 0 -87 27.5t-40 79.5h70q2 -18 17 -31.5t40 -13.5q41 0 56 35.5t15 94.5h-4q-8 -21 -29 -36t-54 -15q-56 0 -86.5 35.5t-30.5 93.5q0 67 37.5 102t97.5 35q67 0 104.5 -48t37.5 -145q0 -118 -39 -166t-105 -48zM431 356
q31 0 47 21t16 54q0 34 -17 54t-45 20q-29 0 -46 -20.5t-17 -53.5q0 -35 17 -55t45 -20z" />
    <glyph glyph-name="G.ss01" horiz-adv-x="825" 
d="M378 -9q-100 0 -177 45t-120.5 128t-43.5 197q0 118 46.5 202t129.5 129t194 45q93 0 166 -29.5t118.5 -84t54.5 -130.5h-135q-15 60 -68.5 95t-134.5 35q-117 0 -175.5 -71.5t-58.5 -189.5q0 -128 61.5 -194.5t165.5 -66.5q98 0 156 50.5t58 135.5v10h-231v97h370v-394
h-105l-7 127h-7q-22 -61 -92 -98.5t-165 -37.5z" />
    <glyph glyph-name="a.ss01" horiz-adv-x="559" 
d="M202 -9q-78 0 -126.5 42t-48.5 110q0 58 28 95.5t76.5 55.5t110.5 18h131v38q0 43 -24.5 68.5t-78.5 25.5q-53 0 -81 -22.5t-28 -58.5h-117q1 82 63.5 130.5t170.5 48.5q103 0 161.5 -47.5t58.5 -149.5v-237q0 -20 1 -42.5t3 -40.5t5 -25h-118q-8 23 -9 88h-6
q-14 -44 -61.5 -70.5t-110.5 -26.5zM250 85q57 0 90 28.5t33 76.5v46h-109q-111 0 -111 -75q0 -36 25 -56t72 -20z" />
    <glyph glyph-name="aacute.ss01" horiz-adv-x="571" 
d="M202 -9q-78 0 -126.5 42t-48.5 110q0 58 28 95.5t76.5 55.5t110.5 18h131v38q0 43 -24.5 68.5t-78.5 25.5q-53 0 -81 -22.5t-28 -58.5h-117q1 82 63.5 130.5t170.5 48.5q103 0 161.5 -47.5t58.5 -149.5v-237q0 -20 1 -42.5t3 -40.5t5 -25h-118q-8 23 -9 88h-6
q-14 -44 -61.5 -70.5t-110.5 -26.5zM250 85q57 0 90 28.5t33 76.5v46h-109q-111 0 -111 -75q0 -36 25 -56t72 -20zM238 597l58 143h125l-89 -143h-94z" />
    <glyph glyph-name="acircumflex.ss01" horiz-adv-x="571" 
d="M202 -9q-78 0 -126.5 42t-48.5 110q0 58 28 95.5t76.5 55.5t110.5 18h131v38q0 43 -24.5 68.5t-78.5 25.5q-53 0 -81 -22.5t-28 -58.5h-117q1 82 63.5 130.5t170.5 48.5q103 0 161.5 -47.5t58.5 -149.5v-237q0 -20 1 -42.5t3 -40.5t5 -25h-118q-8 23 -9 88h-6
q-14 -44 -61.5 -70.5t-110.5 -26.5zM250 85q57 0 90 28.5t33 76.5v46h-109q-111 0 -111 -75q0 -36 25 -56t72 -20zM115 597l112 143h118l113 -143h-108l-64 82l-64 -82h-107z" />
    <glyph glyph-name="adieresis.ss01" horiz-adv-x="571" 
d="M202 -9q-78 0 -126.5 42t-48.5 110q0 58 28 95.5t76.5 55.5t110.5 18h131v38q0 43 -24.5 68.5t-78.5 25.5q-53 0 -81 -22.5t-28 -58.5h-117q1 82 63.5 130.5t170.5 48.5q103 0 161.5 -47.5t58.5 -149.5v-237q0 -20 1 -42.5t3 -40.5t5 -25h-118q-8 23 -9 88h-6
q-14 -44 -61.5 -70.5t-110.5 -26.5zM250 85q57 0 90 28.5t33 76.5v46h-109q-111 0 -111 -75q0 -36 25 -56t72 -20zM134 613v127h108v-127h-108zM330 613v127h108v-127h-108z" />
    <glyph glyph-name="agrave.ss01" horiz-adv-x="571" 
d="M202 -9q-78 0 -126.5 42t-48.5 110q0 58 28 95.5t76.5 55.5t110.5 18h131v38q0 43 -24.5 68.5t-78.5 25.5q-53 0 -81 -22.5t-28 -58.5h-117q1 82 63.5 130.5t170.5 48.5q103 0 161.5 -47.5t58.5 -149.5v-237q0 -20 1 -42.5t3 -40.5t5 -25h-118q-8 23 -9 88h-6
q-14 -44 -61.5 -70.5t-110.5 -26.5zM250 85q57 0 90 28.5t33 76.5v46h-109q-111 0 -111 -75q0 -36 25 -56t72 -20zM240 597l-89 143h125l58 -143h-94z" />
    <glyph glyph-name="aring.ss01" horiz-adv-x="571" 
d="M202 -9q-78 0 -126.5 42t-48.5 110q0 58 28 95.5t76.5 55.5t110.5 18h131v38q0 43 -24.5 68.5t-78.5 25.5q-53 0 -81 -22.5t-28 -58.5h-117q1 82 63.5 130.5t170.5 48.5q103 0 161.5 -47.5t58.5 -149.5v-237q0 -20 1 -42.5t3 -40.5t5 -25h-118q-8 23 -9 88h-6
q-14 -44 -61.5 -70.5t-110.5 -26.5zM250 85q57 0 90 28.5t33 76.5v46h-109q-111 0 -111 -75q0 -36 25 -56t72 -20zM287 594q-51 0 -82.5 29.5t-31.5 77.5t31.5 77.5t82.5 29.5t82.5 -29.5t31.5 -77.5t-31.5 -77.5t-82.5 -29.5zM287 653q21 0 34 13.5t13 34.5q0 22 -13 35
t-34 13t-34 -13t-13 -35q0 -21 13 -34.5t34 -13.5z" />
    <glyph glyph-name="atilde.ss01" horiz-adv-x="571" 
d="M202 -9q-78 0 -126.5 42t-48.5 110q0 58 28 95.5t76.5 55.5t110.5 18h131v38q0 43 -24.5 68.5t-78.5 25.5q-53 0 -81 -22.5t-28 -58.5h-117q1 82 63.5 130.5t170.5 48.5q103 0 161.5 -47.5t58.5 -149.5v-237q0 -20 1 -42.5t3 -40.5t5 -25h-118q-8 23 -9 88h-6
q-14 -44 -61.5 -70.5t-110.5 -26.5zM250 85q57 0 90 28.5t33 76.5v46h-109q-111 0 -111 -75q0 -36 25 -56t72 -20zM346 606q-27 0 -46.5 8.5t-37 17t-39.5 8.5q-20 0 -34 -9.5t-26 -25.5l-50 34q22 52 52 70.5t60 17.5q25 0 44.5 -8.5t38 -16.5t41.5 -8q24 0 37.5 12
t21.5 23l51 -32q-20 -49 -50 -70.5t-63 -20.5z" />
    <glyph glyph-name="g.ss01" horiz-adv-x="561" 
d="M192 -167q-93 0 -136 32t-43 84q0 43 31.5 71t72.5 33v7q-31 10 -48.5 32.5t-17.5 51.5q0 35 23.5 59.5t60.5 33.5v9q-34 19 -53.5 52t-19.5 78q0 74 59 120t157 46q18 0 39 -3t38 -10q15 55 62 86.5t120 31.5v-98q-41 1 -73 -10.5t-48 -35.5q35 -19 56 -55t21 -81
q0 -74 -57 -118t-159 -44q-45 0 -84 10q-18 -2 -28.5 -13.5t-10.5 -26.5q0 -22 22.5 -28.5t50.5 -6.5h136q175 0 178 -139q2 -86 -55 -127t-149 -41h-145zM279 285q47 0 72.5 24.5t25.5 63.5q0 42 -27.5 65.5t-71.5 23.5q-47 0 -73 -25.5t-26 -63.5q0 -41 27.5 -64.5
t72.5 -23.5zM208 -95h130q39 0 59 16t20 45q0 35 -22.5 45t-51.5 10h-169q-24 -5 -38 -20t-14 -37q0 -30 22.5 -44.5t63.5 -14.5z" />
    <glyph glyph-name="zero.tf" horiz-adv-x="600" 
d="M300 -8q-83 0 -143 44.5t-92.5 127t-32.5 198.5q0 119 34 201t94.5 124.5t141.5 42.5q83 0 142 -44t91.5 -126.5t32.5 -198.5q0 -119 -34 -201.5t-94 -125t-140 -42.5zM158 362q0 -29 1 -55l271 189q-16 69 -49.5 98.5t-80.5 29.5q-43 0 -75 -25t-49.5 -82.5
t-17.5 -154.5zM300 98q43 0 75 25.5t50 83.5t18 155q0 27 -2 51l-270 -188q16 -68 49.5 -97.5t79.5 -29.5z" />
    <glyph glyph-name="one.tf" horiz-adv-x="600" 
d="M37 0v110h215v380h-186v95h33q75 0 114.5 40.5t44.5 95.5h119v-611h187v-110h-527z" />
    <glyph glyph-name="two.tf" horiz-adv-x="600" 
d="M52 0v19q0 73 26 126t67 93t87 72t87 62t67 63t26 76q0 52 -32 81.5t-85 29.5q-55 0 -89 -34t-30 -96h-122q-2 72 28.5 125.5t87.5 83t133 29.5q72 0 125.5 -26t83 -73.5t29.5 -112.5q0 -55 -21 -97t-55.5 -75.5t-74 -62t-77.5 -55.5t-66.5 -55.5t-39.5 -62.5h342v-110
h-497z" />
    <glyph glyph-name="three.tf" horiz-adv-x="600" 
d="M297 -9q-79 0 -135.5 30t-86.5 82t-31 120h123q-1 -56 36 -90.5t94 -34.5q58 0 94.5 32.5t36.5 84.5q0 50 -32 78.5t-84 28.5h-85v95h76q55 0 84.5 29.5t29.5 74.5q0 48 -33 75t-85 27q-55 0 -90 -32.5t-36 -89.5h-124q1 70 33.5 121.5t89.5 79.5t132 28q70 0 124.5 -23
t85.5 -66.5t31 -102.5t-29 -102t-78 -60v-5q58 -16 88 -61t30 -106q0 -64 -33 -111.5t-91.5 -74.5t-134.5 -27z" />
    <glyph glyph-name="four.tf" horiz-adv-x="600" 
d="M359 0v171h-328v95l295 455h158v-447h86v-103h-86v-171h-125zM150 274h209v319z" />
    <glyph glyph-name="five.tf" horiz-adv-x="600" 
d="M296 -9q-75 0 -131.5 28.5t-88.5 80t-33 119.5h126q1 -54 37 -86.5t91 -32.5q60 0 96.5 38.5t36.5 99.5t-36.5 101t-96.5 40q-46 0 -77 -21.5t-44 -54.5h-118l18 418h435v-109h-325l-9 -182l6 -2q21 25 59.5 40t81.5 15q70 0 122.5 -31t81.5 -85.5t29 -125.5
q0 -74 -32 -130.5t-91 -88t-138 -31.5z" />
    <glyph glyph-name="six.tf" horiz-adv-x="600" 
d="M305 -9q-127 0 -196.5 86.5t-69.5 260.5q0 200 70.5 296t204.5 96q105 0 168 -52.5t72 -140.5h-122q-7 41 -40 63t-79 22q-56 0 -88 -30t-45.5 -85t-13.5 -130h5q18 44 62.5 71t105.5 27q66 0 116 -29.5t78 -83t28 -124.5q0 -78 -32.5 -133t-90 -84.5t-133.5 -29.5z
M307 100q58 0 93 38.5t35 102.5q0 65 -34.5 102t-92.5 37q-60 0 -94.5 -40t-34.5 -102q0 -64 35 -101t93 -37z" />
    <glyph glyph-name="seven.tf" horiz-adv-x="600" 
d="M203 0q0 141 30 251t77 198t99 163h-265v-133h-101v242h514v-90q-45 -66 -85 -131.5t-70.5 -139t-47.5 -161.5t-17 -199h-134z" />
    <glyph glyph-name="eight.tf" horiz-adv-x="600" 
d="M300 -7q-78 0 -137.5 24t-92.5 69t-33 107t36.5 110.5t101.5 59.5v5q-62 14 -93.5 59.5t-31.5 104.5q0 88 66.5 143t183.5 55q118 0 185 -55.5t67 -144.5q0 -57 -31 -103t-94 -59v-5q65 -10 101 -57.5t36 -111.5q0 -62 -33 -107t-92.5 -69.5t-138.5 -24.5zM300 414
q64 0 94.5 29.5t30.5 75.5q0 50 -33.5 78.5t-91.5 28.5q-57 0 -89.5 -29t-32.5 -78q0 -48 31 -76.5t91 -28.5zM300 101q61 0 96.5 29t35.5 80q0 46 -33 75t-99 29t-98 -30t-32 -74q0 -53 36 -81t94 -28z" />
    <glyph glyph-name="nine.tf" horiz-adv-x="600" 
d="M290 -9q-103 0 -166.5 53t-71.5 140h121q7 -39 38.5 -61.5t79.5 -22.5q56 0 87 29.5t44 84.5t12 130h-5q-19 -43 -62.5 -70t-105.5 -27q-66 0 -116 29.5t-78 83t-28 124.5q0 77 32.5 132.5t90 84.5t133.5 29q127 0 196.5 -86.5t69.5 -261.5q0 -139 -31.5 -225t-92 -126
t-147.5 -40zM291 342q61 0 95.5 40t34.5 102q0 63 -35 100t-94 37q-58 0 -93 -38.5t-35 -102.5t35 -101t92 -37z" />
    <glyph glyph-name="zero.tf.ss03" horiz-adv-x="600" 
d="M300 -8q-83 0 -143 44.5t-92.5 127t-32.5 198.5q0 119 34 201t94.5 124.5t141.5 42.5q83 0 142 -44t91.5 -126.5t32.5 -198.5q0 -119 -34 -201.5t-94 -125t-140 -42.5zM300 624q-60 0 -98 -50t-43 -173h283q-6 123 -44 173t-98 50zM300 98q60 0 98 50t44 173h-283
q5 -123 43 -173t98 -50z" />
    <glyph glyph-name="zero.dnom" horiz-adv-x="350" 
d="M175 -4q-69 0 -108.5 53t-39.5 144q0 95 41 145.5t109 50.5t107 -52.5t39 -144.5q0 -94 -41 -145t-107 -51zM175 60q32 0 52 28t20 105q0 76 -20 104t-52 28t-52 -28t-20 -104q0 -77 20 -105t52 -28z" />
    <glyph glyph-name="one.dnom" horiz-adv-x="237" 
d="M107 0v260h-98v58h16q40 0 61.5 18.5t24.5 47.5h72v-384h-76z" />
    <glyph glyph-name="two.dnom" horiz-adv-x="332" 
d="M29 0v11q0 47 19.5 79.5t48.5 55.5t57.5 41.5t48 38t19.5 45.5q0 24 -15.5 38.5t-42.5 14.5q-28 0 -44.5 -17.5t-14.5 -47.5h-74q-2 60 36.5 95t101.5 35q59 0 95.5 -30.5t36.5 -84.5q0 -33 -14.5 -57.5t-37 -44t-47.5 -36.5t-45.5 -34t-31.5 -38q21 1 41.5 2t35.5 1h103
v-67h-276z" />
    <glyph glyph-name="three.dnom" horiz-adv-x="337" 
d="M164 -5q-66 0 -103.5 34.5t-38.5 89.5h75q0 -27 18.5 -43t48.5 -16q29 0 47.5 15.5t18.5 40.5q0 24 -16 38t-43 14h-47v57h42q28 0 43 14t15 36q0 23 -16.5 36t-43.5 13q-28 0 -45.5 -15.5t-18.5 -41.5h-75q1 57 41 89.5t101 32.5q59 0 97 -28t38 -75q0 -30 -15.5 -53
t-41.5 -33v-2q31 -9 47 -33t16 -56q0 -51 -40.5 -82.5t-103.5 -31.5z" />
    <glyph glyph-name="four.dnom" horiz-adv-x="331" 
d="M195 0l-1 88h-185v57l166 239h96v-234h51v-62h-51v-88h-76zM84 150h111v160z" />
    <glyph glyph-name="five.dnom" horiz-adv-x="345" 
d="M171 -5q-64 0 -102 34.5t-39 87.5h76q1 -25 19.5 -40t46.5 -15q30 0 49 18t19 47t-18.5 48.5t-49.5 19.5q-48 0 -63 -37h-71l9 226h243v-66h-175l-4 -84l3 -1q24 26 74 26q58 0 93 -37t35 -93q0 -60 -39 -97t-106 -37z" />
    <glyph glyph-name="six.dnom" horiz-adv-x="343" 
d="M176 -5q-70 0 -109.5 46.5t-39.5 141.5q0 104 39.5 155t114.5 51q57 0 93 -28t41 -76h-74q-4 18 -20.5 28.5t-40.5 10.5q-43 0 -59.5 -31.5t-16.5 -84.5h3q10 21 33.5 33.5t55.5 12.5q55 0 88.5 -35t33.5 -91q0 -63 -39.5 -98t-102.5 -35zM177 62q30 0 48 18.5t18 49.5
t-18 49t-47 18q-31 0 -49 -19t-18 -50t18 -48.5t48 -17.5z" />
    <glyph glyph-name="seven.dnom" horiz-adv-x="303" 
d="M96 0q0 74 15.5 131.5t40.5 103t52 83.5h-134v-67h-61v133h285v-55q-33 -45 -59.5 -91t-42 -103t-15.5 -135h-81z" />
    <glyph glyph-name="eight.dnom" horiz-adv-x="344" 
d="M172 -3q-65 0 -105.5 28.5t-40.5 78.5q0 32 19.5 58t52.5 31v4q-29 6 -47 29t-18 56q0 48 37 77.5t102 29.5t102 -30t37 -77q0 -30 -16.5 -54t-48.5 -31v-4q33 -5 52.5 -29.5t19.5 -59.5q0 -50 -40.5 -78.5t-105.5 -28.5zM172 224q32 0 47 14t15 37q0 24 -16.5 37.5
t-45.5 13.5t-45.5 -14t-16.5 -37q0 -24 16 -37.5t46 -13.5zM172 62q30 0 48 13.5t18 38.5q0 22 -16.5 36t-49.5 14q-34 0 -50 -14t-16 -36q0 -25 18 -38.5t48 -13.5z" />
    <glyph glyph-name="nine.dnom" horiz-adv-x="343" 
d="M165 -5q-58 0 -93 28.5t-41 76.5h74q3 -17 19.5 -28t41.5 -11q41 0 57.5 30.5t16.5 84.5h-4q-10 -20 -33.5 -32.5t-55.5 -12.5q-54 0 -88 34.5t-34 91.5q0 62 40 97t103 35q70 0 109.5 -46.5t39.5 -141.5q0 -107 -40 -156.5t-112 -49.5zM166 187q31 0 48.5 19.5
t17.5 49.5q0 31 -17.5 49t-48.5 18q-29 0 -47 -18.5t-18 -49.5t18 -49.5t47 -18.5z" />
    <glyph glyph-name="zero.numr" horiz-adv-x="350" 
d="M175 333q-69 0 -108.5 52.5t-39.5 144.5q0 94 41 145t109 51t107 -53t39 -144q0 -95 -41 -145.5t-107 -50.5zM175 397q32 0 52 28t20 104q0 77 -20 105t-52 28t-52 -28t-20 -105q0 -76 20 -104t52 -28z" />
    <glyph glyph-name="one.numr" horiz-adv-x="237" 
d="M107 337v260h-98v57h16q40 0 61.5 19t24.5 48h72v-384h-76z" />
    <glyph glyph-name="two.numr" horiz-adv-x="332" 
d="M29 337v10q0 48 19.5 80t48.5 55t57.5 41.5t48 38t19.5 45.5q0 25 -15.5 39t-42.5 14q-28 0 -44.5 -17t-14.5 -47h-74q-2 60 36.5 95t101.5 35q59 0 95.5 -31t36.5 -84q0 -33 -14.5 -58t-37 -44t-47.5 -36t-45.5 -34.5t-31.5 -38.5q21 2 41.5 2.5t35.5 0.5h103v-66h-276z
" />
    <glyph glyph-name="three.numr" horiz-adv-x="337" 
d="M164 332q-66 0 -103.5 34.5t-38.5 88.5h75q0 -26 18.5 -42t48.5 -16q29 0 47.5 15.5t18.5 40.5q0 24 -16 38t-43 14h-47v56h42q28 0 43 14.5t15 36.5q0 23 -16.5 36t-43.5 13q-28 0 -45.5 -15.5t-18.5 -42.5h-75q1 58 41 90.5t101 32.5q59 0 97 -28t38 -76
q0 -29 -15.5 -52.5t-41.5 -32.5v-3q31 -8 47 -32t16 -56q0 -51 -40.5 -82.5t-103.5 -31.5z" />
    <glyph glyph-name="four.numr" horiz-adv-x="331" 
d="M195 337l-1 88h-185v57l166 239h96v-234h51v-62h-51v-88h-76zM84 487h111v160z" />
    <glyph glyph-name="five.numr" horiz-adv-x="345" 
d="M171 332q-64 0 -102 34t-39 88h76q1 -25 19.5 -40.5t46.5 -15.5q30 0 49 18.5t19 47.5t-18.5 48.5t-49.5 19.5q-48 0 -63 -38h-71l9 227h243v-66h-175l-4 -84l3 -2q24 26 74 26q58 0 93 -36.5t35 -92.5q0 -60 -39 -97t-106 -37z" />
    <glyph glyph-name="six.numr" horiz-adv-x="343" 
d="M176 332q-70 0 -109.5 46t-39.5 141q0 104 39.5 155.5t114.5 51.5q57 0 93 -28t41 -77h-74q-4 18 -20.5 28.5t-40.5 10.5q-43 0 -59.5 -31.5t-16.5 -83.5h3q10 20 33.5 33t55.5 13q55 0 88.5 -35t33.5 -92q0 -62 -39.5 -97t-102.5 -35zM177 398q30 0 48 18.5t18 49.5
t-18 49.5t-47 18.5q-31 0 -49 -19.5t-18 -49.5q0 -31 18 -49t48 -18z" />
    <glyph glyph-name="seven.numr" horiz-adv-x="303" 
d="M96 337q0 74 15.5 131.5t40.5 103t52 83.5h-134v-68h-61v134h285v-55q-33 -46 -59.5 -92t-42 -102.5t-15.5 -134.5h-81z" />
    <glyph glyph-name="eight.numr" horiz-adv-x="344" 
d="M172 333q-65 0 -105.5 28.5t-40.5 78.5q0 33 19.5 58.5t52.5 31.5v3q-29 7 -47 30t-18 56q0 47 37 77t102 30t102 -30t37 -78q0 -30 -16.5 -53.5t-48.5 -31.5v-3q33 -5 52.5 -30t19.5 -59q0 -50 -40.5 -79t-105.5 -29zM172 561q32 0 47 14t15 36q0 25 -16.5 38.5
t-45.5 13.5t-45.5 -14t-16.5 -38q0 -23 16 -36.5t46 -13.5zM172 399q30 0 48 13t18 38q0 23 -16.5 37t-49.5 14q-34 0 -50 -14.5t-16 -36.5q0 -25 18 -38t48 -13z" />
    <glyph glyph-name="nine.numr" horiz-adv-x="343" 
d="M165 332q-58 0 -93 28t-41 76h74q3 -17 19.5 -28t41.5 -11q41 0 57.5 30.5t16.5 85.5h-4q-10 -21 -33.5 -33.5t-55.5 -12.5q-54 0 -88 35t-34 91q0 63 40 98t103 35q70 0 109.5 -46.5t39.5 -142.5q0 -107 -40 -156t-112 -49zM166 524q31 0 48.5 19.5t17.5 49.5
t-17.5 48.5t-48.5 18.5q-29 0 -47 -19t-18 -50t18 -49t47 -18z" />
    <glyph glyph-name="parenleft.case" horiz-adv-x="350" 
d="M212 -63q-51 47 -88 115.5t-57 149t-20 163.5t20 163.5t57 149t88 115.5h108q-46 -48 -80.5 -117t-53 -149t-18.5 -162q0 -84 19.5 -164.5t53.5 -148.5t79 -115h-108z" />
    <glyph glyph-name="parenright.case" horiz-adv-x="350" 
d="M30 -63q45 47 79.5 115t53.5 148.5t19 164.5q0 82 -18.5 162t-52.5 149t-81 117h108q52 -47 89 -115.5t56.5 -149t19.5 -163.5t-19.5 -163.5t-56.5 -149t-89 -115.5h-108z" />
    <glyph glyph-name="braceleft.case" horiz-adv-x="396" 
d="M220 -63q-46 0 -68.5 26t-22.5 64v210q0 39 -18 59.5t-45 20.5h-26v96h26q28 0 45.5 21.5t17.5 59.5v209q0 38 22.5 64t68.5 26h167v-90h-140v-213q0 -56 -23.5 -85t-57.5 -35v-3q41 -11 61 -44t20 -79v-217h140v-90h-167z" />
    <glyph glyph-name="braceright.case" horiz-adv-x="396" 
d="M9 -63v90h140v217q0 46 20 79t61 44v3q-34 6 -57.5 35t-23.5 85v213h-140v90h166q47 0 69 -26t22 -64v-209q0 -38 18 -59.5t45 -21.5h27v-96h-27q-26 0 -44.5 -20.5t-18.5 -59.5v-210q0 -38 -22 -64t-69 -26h-166z" />
    <glyph glyph-name="bracketleft.case" horiz-adv-x="350" 
d="M84 -63v856h257v-90h-140v-676h140v-90h-257z" />
    <glyph glyph-name="bracketright.case" horiz-adv-x="350" 
d="M9 -63v90h140v676h-140v90h257v-856h-257z" />
    <glyph glyph-name="a.ss01.BRACKET.varAlt01" horiz-adv-x="571" 
d="M209 -9q-79 0 -127 41.5t-48 109.5q0 58 27.5 95t76 55t110.5 18h131v42q0 41 -24.5 66.5t-78.5 25.5q-53 0 -80.5 -22t-28.5 -58h-116q0 82 62.5 130t170.5 48q103 0 161.5 -47.5t58.5 -147.5v-233q0 -19 6 -26.5t19 -7.5q16 0 27 9v-78q-14 -11 -34.5 -15.5t-39.5 -4.5
q-96 0 -96 86v11h-6q-14 -44 -61.5 -70.5t-109.5 -26.5zM257 85q56 0 89.5 28t33.5 76v49h-110q-111 0 -111 -78q0 -36 25.5 -55.5t72.5 -19.5z" />
    <glyph glyph-name="aacute.ss01.BRACKET.varAlt01" horiz-adv-x="571" 
d="M209 -9q-79 0 -127 41.5t-48 109.5q0 58 27.5 95t76 55t110.5 18h131v42q0 41 -24.5 66.5t-78.5 25.5q-53 0 -80.5 -22t-28.5 -58h-116q0 82 62.5 130t170.5 48q103 0 161.5 -47.5t58.5 -147.5v-233q0 -19 6 -26.5t19 -7.5q16 0 27 9v-78q-14 -11 -34.5 -15.5t-39.5 -4.5
q-96 0 -96 86v11h-6q-14 -44 -61.5 -70.5t-109.5 -26.5zM257 85q56 0 89.5 28t33.5 76v49h-110q-111 0 -111 -78q0 -36 25.5 -55.5t72.5 -19.5zM238 597l58 143h125l-89 -143h-94z" />
    <glyph glyph-name="acircumflex.ss01.BRACKET.varAlt01" horiz-adv-x="571" 
d="M209 -9q-79 0 -127 41.5t-48 109.5q0 58 27.5 95t76 55t110.5 18h131v42q0 41 -24.5 66.5t-78.5 25.5q-53 0 -80.5 -22t-28.5 -58h-116q0 82 62.5 130t170.5 48q103 0 161.5 -47.5t58.5 -147.5v-233q0 -19 6 -26.5t19 -7.5q16 0 27 9v-78q-14 -11 -34.5 -15.5t-39.5 -4.5
q-96 0 -96 86v11h-6q-14 -44 -61.5 -70.5t-109.5 -26.5zM257 85q56 0 89.5 28t33.5 76v49h-110q-111 0 -111 -78q0 -36 25.5 -55.5t72.5 -19.5zM115 597l112 143h118l113 -143h-108l-64 82l-64 -82h-107z" />
    <glyph glyph-name="adieresis.ss01.BRACKET.varAlt01" horiz-adv-x="571" 
d="M209 -9q-79 0 -127 41.5t-48 109.5q0 58 27.5 95t76 55t110.5 18h131v42q0 41 -24.5 66.5t-78.5 25.5q-53 0 -80.5 -22t-28.5 -58h-116q0 82 62.5 130t170.5 48q103 0 161.5 -47.5t58.5 -147.5v-233q0 -19 6 -26.5t19 -7.5q16 0 27 9v-78q-14 -11 -34.5 -15.5t-39.5 -4.5
q-96 0 -96 86v11h-6q-14 -44 -61.5 -70.5t-109.5 -26.5zM257 85q56 0 89.5 28t33.5 76v49h-110q-111 0 -111 -78q0 -36 25.5 -55.5t72.5 -19.5zM134 613v127h108v-127h-108zM330 613v127h108v-127h-108z" />
    <glyph glyph-name="agrave.ss01.BRACKET.varAlt01" horiz-adv-x="571" 
d="M209 -9q-79 0 -127 41.5t-48 109.5q0 58 27.5 95t76 55t110.5 18h131v42q0 41 -24.5 66.5t-78.5 25.5q-53 0 -80.5 -22t-28.5 -58h-116q0 82 62.5 130t170.5 48q103 0 161.5 -47.5t58.5 -147.5v-233q0 -19 6 -26.5t19 -7.5q16 0 27 9v-78q-14 -11 -34.5 -15.5t-39.5 -4.5
q-96 0 -96 86v11h-6q-14 -44 -61.5 -70.5t-109.5 -26.5zM257 85q56 0 89.5 28t33.5 76v49h-110q-111 0 -111 -78q0 -36 25.5 -55.5t72.5 -19.5zM240 597l-89 143h125l58 -143h-94z" />
    <glyph glyph-name="aring.ss01.BRACKET.varAlt01" horiz-adv-x="571" 
d="M209 -9q-79 0 -127 41.5t-48 109.5q0 58 27.5 95t76 55t110.5 18h131v42q0 41 -24.5 66.5t-78.5 25.5q-53 0 -80.5 -22t-28.5 -58h-116q0 82 62.5 130t170.5 48q103 0 161.5 -47.5t58.5 -147.5v-233q0 -19 6 -26.5t19 -7.5q16 0 27 9v-78q-14 -11 -34.5 -15.5t-39.5 -4.5
q-96 0 -96 86v11h-6q-14 -44 -61.5 -70.5t-109.5 -26.5zM257 85q56 0 89.5 28t33.5 76v49h-110q-111 0 -111 -78q0 -36 25.5 -55.5t72.5 -19.5zM287 594q-51 0 -82.5 29.5t-31.5 77.5t31.5 77.5t82.5 29.5t82.5 -29.5t31.5 -77.5t-31.5 -77.5t-82.5 -29.5zM287 653
q21 0 34 13.5t13 34.5q0 22 -13 35t-34 13t-34 -13t-13 -35q0 -21 13 -34.5t34 -13.5z" />
    <glyph glyph-name="atilde.ss01.BRACKET.varAlt01" horiz-adv-x="571" 
d="M209 -9q-79 0 -127 41.5t-48 109.5q0 58 27.5 95t76 55t110.5 18h131v42q0 41 -24.5 66.5t-78.5 25.5q-53 0 -80.5 -22t-28.5 -58h-116q0 82 62.5 130t170.5 48q103 0 161.5 -47.5t58.5 -147.5v-233q0 -19 6 -26.5t19 -7.5q16 0 27 9v-78q-14 -11 -34.5 -15.5t-39.5 -4.5
q-96 0 -96 86v11h-6q-14 -44 -61.5 -70.5t-109.5 -26.5zM257 85q56 0 89.5 28t33.5 76v49h-110q-111 0 -111 -78q0 -36 25.5 -55.5t72.5 -19.5zM346 606q-27 0 -46.5 8.5t-37 17t-39.5 8.5q-20 0 -34 -9.5t-26 -25.5l-50 34q22 52 52 70.5t60 17.5q25 0 44.5 -8.5t38 -16.5
t41.5 -8q24 0 37.5 12t21.5 23l51 -32q-20 -49 -50 -70.5t-63 -20.5z" />
    <glyph glyph-name="cent.BRACKET.varAlt01" horiz-adv-x="578" 
d="M248 -85v80q-97 16 -154 88.5t-57 182.5t57 182t154 89v79h84v-76q59 -5 104.5 -31t73 -68.5t30.5 -96.5h-122q-7 38 -30 61t-56 30v-338q37 8 60.5 33.5t27.5 62.5h122q-6 -84 -63.5 -138t-146.5 -63v-77h-84zM164 266q0 -66 22.5 -107t61.5 -56v326q-41 -16 -62.5 -59
t-21.5 -104z" />
    <glyph glyph-name="dollar.BRACKET.varAlt01" horiz-adv-x="646" 
d="M277 -85v78q-118 11 -178 75t-61 160h134q1 -51 26 -85.5t79 -45.5v222q-69 14 -119 37t-77.5 63t-27.5 104q0 90 59.5 146.5t164.5 66.5v79h90v-80q101 -11 158 -68t58 -144h-132q-2 45 -25 72t-59 37v-202q45 -8 87.5 -20t76.5 -35.5t54 -64t20 -104.5q0 -88 -60 -146
t-178 -67v-78h-90zM190 540q0 -40 20 -59.5t67 -32.5v186q-42 -8 -64.5 -32.5t-22.5 -61.5zM468 194q0 47 -22.5 70t-78.5 37v-206q46 7 73.5 31.5t27.5 67.5z" />
    </font>
</defs>
</svg>
