<?xml version="1.0" standalone="no"?>
<!DOCTYPE svg PUBLIC "-//W3C//DTD SVG 1.1//EN" "http://www.w3.org/Graphics/SVG/1.1/DTD/svg11.dtd" >
<svg xmlns="http://www.w3.org/2000/svg" xmlns:xlink="http://www.w3.org/1999/xlink" version="1.1">
<metadata>
Created by FontForge 20170731 at Fri Sep  1 12:11:45 2023
 By Aleksey,,,
Copyright 2022 The Mona Sans Project Authors (https://github.com/github/mona-sans), with Reserved Font Name "Mona"
</metadata>
<defs>
<font id="MonaSans-Light" horiz-adv-x="871" >
  <font-face 
    font-family="Mona Sans Light"
    font-weight="300"
    font-stretch="normal"
    units-per-em="1000"
    panose-1="0 0 0 0 0 0 0 0 0 0"
    ascent="800"
    descent="-200"
    x-height="521"
    cap-height="729"
    bbox="-217 -217 1141 993"
    underline-thickness="50"
    underline-position="-175"
    unicode-range="U+0020-FB02"
  />
<missing-glyph horiz-adv-x="865" 
d="M432 738q80 0 149.5 -29.5t122 -82t82 -122t29.5 -148.5q0 -85 -33.5 -158.5t-92 -127t-134.5 -78.5q-12 -3 -19.5 2t-7.5 16v105q0 26 -8 44.5t-18 26.5q32 4 63.5 13t56.5 29.5t40 56t15 91.5q0 30 -10.5 56t-29.5 45q3 8 8 35t-12 67l-11 0.5t-33.5 -7t-59.5 -33.5
q-24 8 -48 11t-49 3q-24 0 -48 -3t-48 -11q-36 26 -59 33.5t-34 7l-11 -0.5q-16 -40 -11.5 -67t7.5 -35q-19 -19 -29.5 -45t-10.5 -56q0 -55 15 -90.5t40 -56t56.5 -30t63.5 -13.5q-8 -7 -15.5 -20.5t-10.5 -31.5q-10 -4 -30 -8t-41.5 3t-37.5 36l-7 9.5t-20.5 20
t-32.5 11.5l-7.5 -1t-9 -6t15.5 -17l14 -11t26 -45l5.5 -10t19.5 -21.5t39.5 -17t65.5 2.5v-70q0 -11 -7 -16t-18 -2q-77 25 -136 78.5t-92.5 127t-33.5 158.5q0 79 29.5 148.5t82 122t122 82t148.5 29.5zM196 189q-1 -4 -8 -2q-4 3 -3 5q0 2 2 2.5t4 -2.5q5 0 5 -3z
M209 171q-1 -2 -3 -1l-4 2q-5 5 -2 8q5 3 9 -1q2 -7 0 -8zM227 148q-2 -1 -5.5 0t-5.5 3q-1 2 -1 5.5t1 4.5q5 3 11 -3q2 -7 0 -10zM246 127q-5 -5 -9 2q-6 6 -3 10q5 3 10 -2q5 -7 2 -10zM274 115q-2 -5 -10 -3q-5 3 -5 8q2 6 10 3q5 -2 5 -8zM334 118q2 -2 -1 -4t-6 -3
q-8 0 -8 4q-1 2 1 4.5t6 2.5q3 1 5.5 -0.5t2.5 -3.5zM305 114q0 -5 -7 -9q-3 0 -5 3.5t-2 5.5q0 4 7 4t7 -4z" />
    <glyph glyph-name="fl" unicode="fl" horiz-adv-x="559" 
d="M119 0v472h-104v49h104v99q0 55 31 82t83 27h80v-47h-69q-39 0 -52.5 -19t-13.5 -50v-92h241v208h59v-729h-59v472h-241v-472h-59z" />
    <glyph glyph-name="f_f.liga" unicode="ff" horiz-adv-x="598" 
d="M119 0v472h-104v49h104v99q0 55 31 82t83 27h80v-47h-69q-39 0 -52.5 -19t-13.5 -50v-92h227v99q0 55 31 82t83 27h80v-47h-69q-40 0 -53 -19t-13 -50v-92h123v-49h-123v-472h-59v472h-227v-472h-59z" />
    <glyph glyph-name="t_t.liga" unicode="tt" horiz-adv-x="619" 
d="M206 0q-49 0 -69.5 22t-20.5 67v383h-105v49h105v160l58 10v-170h228v160l58 10v-170h126v-49h-126v-372q0 -30 10 -39.5t39 -9.5h77v-51h-94q-50 0 -70 22t-20 67v383h-228v-372q0 -30 10 -39.5t39 -9.5h77v-51h-94z" />
    <glyph glyph-name=".notdef" horiz-adv-x="865" 
d="M432 738q80 0 149.5 -29.5t122 -82t82 -122t29.5 -148.5q0 -85 -33.5 -158.5t-92 -127t-134.5 -78.5q-12 -3 -19.5 2t-7.5 16v105q0 26 -8 44.5t-18 26.5q32 4 63.5 13t56.5 29.5t40 56t15 91.5q0 30 -10.5 56t-29.5 45q3 8 8 35t-12 67l-11 0.5t-33.5 -7t-59.5 -33.5
q-24 8 -48 11t-49 3q-24 0 -48 -3t-48 -11q-36 26 -59 33.5t-34 7l-11 -0.5q-16 -40 -11.5 -67t7.5 -35q-19 -19 -29.5 -45t-10.5 -56q0 -55 15 -90.5t40 -56t56.5 -30t63.5 -13.5q-8 -7 -15.5 -20.5t-10.5 -31.5q-10 -4 -30 -8t-41.5 3t-37.5 36l-7 9.5t-20.5 20
t-32.5 11.5l-7.5 -1t-9 -6t15.5 -17l14 -11t26 -45l5.5 -10t19.5 -21.5t39.5 -17t65.5 2.5v-70q0 -11 -7 -16t-18 -2q-77 25 -136 78.5t-92.5 127t-33.5 158.5q0 79 29.5 148.5t82 122t122 82t148.5 29.5zM196 189q-1 -4 -8 -2q-4 3 -3 5q0 2 2 2.5t4 -2.5q5 0 5 -3z
M209 171q-1 -2 -3 -1l-4 2q-5 5 -2 8q5 3 9 -1q2 -7 0 -8zM227 148q-2 -1 -5.5 0t-5.5 3q-1 2 -1 5.5t1 4.5q5 3 11 -3q2 -7 0 -10zM246 127q-5 -5 -9 2q-6 6 -3 10q5 3 10 -2q5 -7 2 -10zM274 115q-2 -5 -10 -3q-5 3 -5 8q2 6 10 3q5 -2 5 -8zM334 118q2 -2 -1 -4t-6 -3
q-8 0 -8 4q-1 2 1 4.5t6 2.5q3 1 5.5 -0.5t2.5 -3.5zM305 114q0 -5 -7 -9q-3 0 -5 3.5t-2 5.5q0 4 7 4t7 -4z" />
    <glyph glyph-name=".null" horiz-adv-x="0" 
 />
    <glyph glyph-name="nonmarkingreturn" horiz-adv-x="333" 
 />
    <glyph glyph-name="space" unicode=" " horiz-adv-x="234" 
 />
    <glyph glyph-name="exclam" unicode="!" horiz-adv-x="236" 
d="M102 192l-14 300v237h61v-237l-16 -300h-31zM87 0v76h62v-76h-62z" />
    <glyph glyph-name="quotedbl" unicode="&#x22;" horiz-adv-x="356" 
d="M106 438h-29l-12 160v131h53v-131zM280 438h-29l-13 160v131h53v-131z" />
    <glyph glyph-name="numbersign" unicode="#" horiz-adv-x="648" 
d="M161 0v215h-126v46h126v228h-126v45h126v195h52v-195h227v195h52v-195h121v-45h-121v-228h121v-46h-121v-215h-52v215h-227v-215h-52zM213 261h227v228h-227v-228z" />
    <glyph glyph-name="dollar" unicode="$" horiz-adv-x="629" 
d="M291 -85v77q-122 7 -180 72t-60 162h64q2 -79 44.5 -127.5t131.5 -55.5v309q-72 15 -122 36.5t-76 58t-26 96.5q0 84 59.5 136.5t164.5 57.5v77h47v-78q105 -7 160 -63.5t57 -145.5h-64q-2 71 -42 111t-111 47v-280q49 -9 92 -21.5t76.5 -35t52.5 -60.5t19 -98
q0 -85 -62 -139t-178 -59v-77h-47zM132 551q0 -42 16 -67.5t51 -41t92 -27.5v271q-76 -3 -117.5 -39.5t-41.5 -95.5zM514 186q0 47 -17 76.5t-56 48t-103 32.5v-300q80 4 128 39t48 104z" />
    <glyph glyph-name="percent" unicode="%" horiz-adv-x="845" 
d="M165 0l461 729h54l-462 -729h-53zM187 324q-65 0 -103.5 52.5t-38.5 148.5q0 98 39 149t103 51t102 -52t38 -148q0 -98 -39 -149.5t-101 -51.5zM187 366q42 0 66.5 38.5t24.5 120.5q0 81 -24.5 119.5t-66.5 38.5q-44 0 -68.5 -38.5t-24.5 -119.5t24.5 -120t68.5 -39z
M659 -5q-65 0 -103 52.5t-38 149.5q0 96 38.5 148t103.5 52q63 0 101.5 -52.5t38.5 -149.5t-39 -148.5t-102 -51.5zM660 37q41 0 65.5 38t24.5 121q0 82 -24.5 120t-65.5 38q-44 0 -68.5 -38t-24.5 -120t24.5 -120.5t68.5 -38.5z" />
    <glyph glyph-name="ampersand" unicode="&#x26;" horiz-adv-x="706" 
d="M272 -10q-58 0 -106.5 21.5t-78 64.5t-29.5 107q0 69 44 127.5t130 95.5q-40 45 -63.5 85t-23.5 89q0 69 46.5 114t126.5 45q46 0 82.5 -19.5t57 -53.5t20.5 -79q0 -67 -46 -115t-118 -73v-4l190 -213q19 38 28.5 94t10.5 104h154v-45h-107q-3 -47 -16 -100.5t-35 -90.5
l129 -144h-71l-91 102q-40 -57 -101.5 -84.5t-132.5 -27.5zM281 429h4q63 23 101.5 61.5t38.5 91.5q0 47 -30 77.5t-79 30.5q-55 0 -84.5 -32.5t-29.5 -79.5q0 -44 22.5 -77t56.5 -72zM117 188q0 -73 47 -110t116 -37q66 0 114.5 27t76.5 72l-208 233q-70 -29 -108 -77.5
t-38 -107.5z" />
    <glyph glyph-name="quotesingle" unicode="'" horiz-adv-x="183" 
d="M106 438h-29l-12 160v131h53v-131z" />
    <glyph glyph-name="parenleft" unicode="(" horiz-adv-x="322" 
d="M237 -167q-58 54 -99 130.5t-62.5 166.5t-21.5 183t21.5 183t62.5 166.5t99 130.5h55q-57 -54 -97.5 -130.5t-61.5 -166.5t-21 -183q0 -98 22.5 -188.5t63.5 -165.5t94 -126h-55z" />
    <glyph glyph-name="parenright" unicode=")" horiz-adv-x="322" 
d="M85 793q58 -54 99 -130.5t62.5 -166.5t21.5 -183t-21.5 -183t-62.5 -166.5t-99 -130.5h-55q57 54 97.5 130.5t61.5 166.5t21 183q0 98 -22.5 188.5t-63 165.5t-94.5 126h55z" />
    <glyph glyph-name="asterisk" unicode="*" horiz-adv-x="324" 
d="M144 452v56l10 67l-54 -40l-49 -29l-18 31l49 28l60 26l-60 26l-48 27l17 30l49 -27l54 -39l-10 66v55h35v-55l-9 -66l55 39l49 27l16 -30l-48 -27l-59 -26l59 -26l49 -28l-17 -31l-49 29l-55 40l9 -67v-56h-35z" />
    <glyph glyph-name="plus" unicode="+" horiz-adv-x="547" 
d="M248 122v215h-213v48h213v215h51v-215h213v-48h-213v-215h-51z" />
    <glyph glyph-name="comma" unicode="," horiz-adv-x="182" 
d="M42 -150v36l9 1q21 2 28.5 17t7.5 39v57h-29v76h64v-139q0 -44 -16.5 -64t-49.5 -23h-14z" />
    <glyph glyph-name="hyphen" unicode="-" horiz-adv-x="333" 
d="M30 235v51h273v-51h-273z" />
    <glyph glyph-name="period" unicode="." horiz-adv-x="185" 
d="M60 0v76h65v-76h-65z" />
    <glyph glyph-name="slash" unicode="/" horiz-adv-x="459" 
d="M30 -81l321 810h57l-319 -810h-59z" />
    <glyph glyph-name="zero" unicode="0" horiz-adv-x="577" 
d="M290 -9q-113 0 -182 94t-69 276q0 181 69 274.5t182 93.5q111 0 179 -94t68 -275q0 -121 -31 -203t-87 -124t-129 -42zM289 43q90 0 139.5 81t49.5 236t-49.5 236t-139.5 81q-91 0 -140 -80.5t-49 -236.5q0 -155 49 -236t140 -81z" />
    <glyph glyph-name="one" unicode="1" horiz-adv-x="375" 
d="M204 0v560h-167v46h26q74 0 105 31.5t36 83.5h59v-721h-59z" />
    <glyph glyph-name="two" unicode="2" horiz-adv-x="556" 
d="M47 0v15q0 56 21 100.5t55.5 80t75.5 65.5t82 58.5t75.5 59t55.5 66t21 80.5q0 69 -44.5 111t-116.5 42q-77 0 -123.5 -46t-43.5 -123h-57q-2 66 26.5 116t80.5 77.5t121 27.5q66 0 115 -26t76 -71.5t27 -104.5q0 -57 -26.5 -101t-67.5 -80.5t-88 -69.5t-90 -66.5
t-72.5 -71.5t-33.5 -86h388v-53h-457z" />
    <glyph glyph-name="three" unicode="3" horiz-adv-x="566" 
d="M274 -8q-71 0 -123 28.5t-80 80t-27 120.5h57q-2 -80 45 -128.5t127 -48.5t128 42.5t48 114.5q0 75 -44.5 111.5t-117.5 36.5h-70v48h69q75 0 113 41.5t38 101.5q0 66 -44 102t-117 36q-81 0 -125.5 -48t-43.5 -127h-56q-2 69 26 120t79.5 79t121.5 28q102 0 161.5 -50.5
t59.5 -134.5q0 -64 -33 -108t-88 -60v-5q63 -13 98 -60t35 -115q0 -62 -29.5 -108t-83 -71.5t-124.5 -25.5z" />
    <glyph glyph-name="four" unicode="4" horiz-adv-x="617" 
d="M419 0v190h-369v49l342 482h86v-481h103v-50h-103v-190h-59zM114 240h305v429z" />
    <glyph glyph-name="five" unicode="5" horiz-adv-x="587" 
d="M288 -8q-71 0 -123 28.5t-81 79.5t-28 120h58q-2 -79 46 -127t129 -48q86 0 133.5 52t47.5 137q0 91 -49 141t-129 50q-60 0 -103 -26.5t-62 -69.5h-56l15 392h413v-52h-360l-13 -277l4 -1q24 39 69.5 62t103.5 23q69 0 121 -30t80.5 -84t28.5 -125q0 -74 -30.5 -129
t-86 -85.5t-128.5 -30.5z" />
    <glyph glyph-name="six" unicode="6" horiz-adv-x="578" 
d="M294 -8q-125 0 -184.5 86.5t-59.5 242.5q0 213 63 311t193 98q95 0 152.5 -49t64.5 -133h-56q-7 63 -51.5 96t-109.5 33q-62 0 -100.5 -25.5t-59.5 -72.5t-29 -111t-9 -140h3q17 62 70 100.5t129 38.5q66 0 116 -29.5t78 -82.5t28 -124q0 -74 -30.5 -127.5t-84 -82.5
t-123.5 -29zM297 45q78 0 125.5 51.5t47.5 137.5q0 85 -47.5 134.5t-124.5 49.5q-55 0 -95 -25.5t-61 -68.5t-21 -97q0 -85 48.5 -133.5t127.5 -48.5z" />
    <glyph glyph-name="seven" unicode="7" horiz-adv-x="570" 
d="M207 0q0 112 19.5 205t53 173t76.5 151t90 140h-353v-156h-50v208h474v-41q-49 -72 -93.5 -144t-79 -152t-54.5 -174t-20 -210h-63z" />
    <glyph glyph-name="eight" unicode="8" horiz-adv-x="590" 
d="M295 -8q-74 0 -130 24t-87.5 68t-31.5 103q0 42 18 79.5t54 63t89 31.5v3q-51 8 -84 33.5t-49 62.5t-16 79q0 87 64.5 138.5t172.5 51.5q73 0 126.5 -24t83 -67t29.5 -101q0 -41 -16 -78t-49 -62.5t-84 -32.5v-3q79 -6 119 -55.5t40 -116.5q0 -60 -31.5 -104t-87 -68.5
t-130.5 -24.5zM295 388q64 0 103 20t56.5 52.5t17.5 72.5q0 68 -49 106.5t-128 38.5q-81 0 -128 -39.5t-47 -105.5q0 -62 41.5 -103.5t133.5 -41.5zM295 45q85 0 135 41t50 110q0 60 -44.5 100t-140.5 40q-64 0 -104.5 -19.5t-59.5 -51.5t-19 -69q0 -71 50.5 -111t132.5 -40
z" />
    <glyph glyph-name="nine" unicode="9" horiz-adv-x="576" 
d="M279 -8q-92 0 -149.5 49t-64.5 133h55q7 -60 49.5 -95t110.5 -35q61 0 98 25.5t56.5 72t26.5 111t8 141.5h-4q-17 -61 -69 -99.5t-131 -38.5q-65 0 -115 29t-78 82t-28 124q0 74 30.5 127.5t84 82.5t123.5 29q125 0 185 -87t60 -245q0 -153 -28.5 -242t-83.5 -126.5
t-136 -37.5zM277 304q56 0 96 25.5t61.5 69t21.5 97.5q0 84 -48.5 132.5t-128.5 48.5q-78 0 -126 -51.5t-48 -137.5t48 -135t124 -49z" />
    <glyph glyph-name="colon" unicode=":" horiz-adv-x="185" 
d="M60 445v76h65v-76h-65zM60 0v76h65v-76h-65z" />
    <glyph glyph-name="semicolon" unicode=";" horiz-adv-x="182" 
d="M58 445v76h64v-76h-64zM42 -150v36l9 1q21 2 28.5 17t7.5 39v57h-29v76h64v-139q0 -44 -16.5 -64t-49.5 -23h-14z" />
    <glyph glyph-name="less" unicode="&#x3c;" horiz-adv-x="686" 
d="M586 125l-485 202v68l485 202v-58l-429 -176v-5l429 -175v-58z" />
    <glyph glyph-name="equal" unicode="=" horiz-adv-x="667" 
d="M95 448v49h477v-49h-477zM95 225v49h477v-49h-477z" />
    <glyph glyph-name="greater" unicode="&#x3e;" horiz-adv-x="686" 
d="M101 125v58l429 175v5l-429 176v58l485 -202v-68z" />
    <glyph glyph-name="question" unicode="?" horiz-adv-x="531" 
d="M248 177v18q0 46 17 81.5t42.5 65.5l51 60t43 65t17.5 80q0 71 -41.5 105.5t-108.5 34.5q-77 0 -119 -45.5t-41 -115.5h-58q-1 63 26.5 111t77.5 74.5t117 26.5q100 0 154 -51.5t54 -136.5q0 -50 -18 -88t-44 -70t-52.5 -62t-44 -62t-17.5 -72v-19h-56zM244 0v76h65v-76
h-65z" />
    <glyph glyph-name="at" unicode="@" horiz-adv-x="891" 
d="M456 -101q-123 0 -216 51.5t-144.5 145t-51.5 217.5q0 127 52 222.5t145.5 149t217.5 53.5q114 0 201.5 -46.5t137 -130t49.5 -194.5q0 -76 -22.5 -135.5t-62.5 -93t-94 -33.5q-50 0 -76.5 29.5t-27.5 80.5h-4q-17 -56 -54 -82.5t-77 -26.5q-39 0 -72.5 20.5t-53.5 62.5
t-20 106q0 65 20.5 115t56.5 78t84 28q43 0 75.5 -25.5t44.5 -72.5h3l9 86h38l-17 -246q-3 -58 15 -85.5t55 -27.5q39 0 69 28t47 77t17 114q0 100 -43 175t-120 116t-179 41q-112 0 -194 -48t-126.5 -134t-44.5 -198q0 -108 42.5 -193t123.5 -133.5t196 -48.5
q69 0 127 17.5t98 49.5l17 -37q-29 -24 -70 -40t-85.5 -24t-85.5 -8zM434 148q56 0 89.5 48.5t37.5 125.5q-3 76 -32 115.5t-78 39.5q-59 0 -90.5 -51t-31.5 -129q0 -74 28.5 -111.5t76.5 -37.5z" />
    <glyph glyph-name="A" unicode="A" horiz-adv-x="645" 
d="M6 0l275 729h84l275 -729h-65l-71 190h-362l-71 -190h-65zM159 240h327l-99 264l-61 166h-5l-61 -166z" />
    <glyph glyph-name="B" unicode="B" horiz-adv-x="695" 
d="M98 0v729h316q103 0 159.5 -51.5t56.5 -134.5q0 -59 -30.5 -104.5t-93.5 -60.5v-4q71 -13 107 -61t36 -111q0 -94 -64.5 -148t-175.5 -54h-311zM159 399h259q74 0 112 37.5t38 97.5q0 68 -44.5 105.5t-118.5 37.5h-246v-278zM159 53h247q89 0 134 42.5t45 109.5
q0 68 -43 105.5t-121 37.5h-262v-295z" />
    <glyph glyph-name="C" unicode="C" horiz-adv-x="760" 
d="M393 -8q-105 0 -183.5 46.5t-122 130t-43.5 195.5q0 113 43.5 196.5t122 129.5t183.5 46q86 0 154.5 -30t112.5 -85t56 -130h-63q-11 56 -45.5 98.5t-89 67t-125.5 24.5q-88 0 -152 -39t-98 -110t-34 -168t34 -168t98 -110t152 -39q106 0 175.5 53t84.5 141l63 -1
q-10 -76 -53.5 -131.5t-112.5 -86t-157 -30.5z" />
    <glyph glyph-name="D" unicode="D" horiz-adv-x="744" 
d="M98 0v729h278q102 0 174.5 -45.5t111 -127.5t38.5 -192t-38.5 -191.5t-111 -127t-174.5 -45.5h-278zM160 56h210q124 0 195 82t71 227q0 149 -72.5 229t-193.5 80h-210v-618z" />
    <glyph glyph-name="E" unicode="E" horiz-adv-x="642" 
d="M98 0v729h491v-55h-429v-274h381v-52h-381v-292h429v-56h-491z" />
    <glyph glyph-name="F" unicode="F" horiz-adv-x="619" 
d="M98 0v729h489v-55h-427v-284h387v-54h-387v-336h-62z" />
    <glyph glyph-name="G" unicode="G" horiz-adv-x="786" 
d="M396 -8q-107 0 -186.5 46.5t-122.5 130.5t-43 195q0 113 44.5 196.5t124.5 129.5t185 46q87 0 156.5 -30t114 -85.5t54.5 -129.5h-63q-11 61 -48.5 103t-92.5 64t-121 22q-88 0 -153.5 -38.5t-101.5 -109t-36 -167.5t35.5 -168.5t100.5 -110.5t154 -39q82 0 144 32t98 93
t38 148h-264v51h328v-35q0 -107 -43 -184t-120.5 -118.5t-181.5 -41.5z" />
    <glyph glyph-name="H" unicode="H" horiz-adv-x="793" 
d="M98 0v729h62v-331h473v331h62v-729h-62v342h-473v-342h-62z" />
    <glyph glyph-name="I" unicode="I" horiz-adv-x="258" 
d="M98 0v729h62v-729h-62z" />
    <glyph glyph-name="J" unicode="J" horiz-adv-x="389" 
d="M107 -8q-29 0 -52.5 6t-39.5 15v54q15 -9 36.5 -15t47.5 -6q62 0 96.5 30.5t34.5 101.5v551h61v-558q0 -94 -49 -136.5t-135 -42.5z" />
    <glyph glyph-name="K" unicode="K" horiz-adv-x="670" 
d="M98 0v729h62v-419l399 419h78l-292 -304l299 -425h-74l-267 381l-143 -149v-232h-62z" />
    <glyph glyph-name="L" unicode="L" horiz-adv-x="540" 
d="M98 0v729h62v-672h370v-57h-432z" />
    <glyph glyph-name="M" unicode="M" horiz-adv-x="905" 
d="M98 0v729h102l251 -639h2l253 639h101v-729h-61v394l3 268h-7l-262 -662h-57l-260 662h-6l2 -269v-393h-61z" />
    <glyph glyph-name="N" unicode="N" horiz-adv-x="786" 
d="M98 0v729h81l447 -652h6l-5 255v397h61v-729h-79l-447 650h-5l3 -243v-407h-62z" />
    <glyph glyph-name="O" unicode="O" horiz-adv-x="794" 
d="M397 -8q-107 0 -186.5 46t-123 130t-43.5 196q0 113 44 197t123.5 129.5t185.5 45.5q107 0 186.5 -46t123 -129.5t43.5 -196.5t-44 -197t-123.5 -129.5t-185.5 -45.5zM397 47q89 0 154 39.5t100 110.5t35 167q0 97 -35 168t-100 110t-154 39t-154 -39t-99.5 -110
t-34.5 -168q0 -96 35 -167.5t99.5 -110.5t153.5 -39z" />
    <glyph glyph-name="P" unicode="P" horiz-adv-x="652" 
d="M98 0v729h276q114 0 181 -58.5t67 -165.5q0 -68 -30 -118.5t-86 -78.5t-133 -27l-213 1v-282h-62zM367 673h-207v-338l207 -1q90 -1 141 44.5t51 125.5q0 81 -51 125t-141 44z" />
    <glyph glyph-name="Q" unicode="Q" horiz-adv-x="794" 
d="M648 -168l-253 160q-106 0 -185 46.5t-122.5 130t-43.5 195.5q0 113 44 197t123.5 129.5t185.5 45.5q107 0 186.5 -46t123 -129.5t43.5 -196.5q0 -99 -34.5 -176t-98 -125.5t-150.5 -63.5l191 -108v-59h-10zM397 47q89 0 154 39.5t100 110.5t35 167q0 97 -35 168
t-100 110t-154 39t-154 -39t-99.5 -110t-34.5 -168q0 -96 35 -167.5t99.5 -110.5t153.5 -39z" />
    <glyph glyph-name="R" unicode="R" horiz-adv-x="706" 
d="M98 0v729h320q111 0 169.5 -50.5t58.5 -142.5q0 -67 -33 -113.5t-97 -64.5v-7q62 -10 88 -46.5t26 -99.5v-130q0 -18 1.5 -36.5t10.5 -38.5h-63q-7 16 -9 35t-2 43v116q0 43 -12.5 71.5t-44.5 42.5t-91 14h-260v-322h-62zM160 375h250q93 0 133 43t40 111
q0 76 -47.5 110.5t-125.5 34.5h-250v-299z" />
    <glyph glyph-name="S" unicode="S" horiz-adv-x="650" 
d="M328 -8q-95 0 -155.5 30t-90.5 83t-31 121h64q3 -85 53.5 -134t158.5 -49q93 0 150 35t57 108q0 51 -21.5 82t-68.5 49t-124 32q-83 15 -139 36.5t-84.5 58.5t-28.5 99q0 88 67 141t185 53q123 0 187.5 -57.5t66.5 -152.5h-64q-2 78 -53.5 118.5t-140.5 40.5
q-88 0 -135.5 -37t-47.5 -98q0 -47 21.5 -73.5t69 -42t124.5 -30.5q51 -9 96 -21.5t80 -35t54.5 -60.5t19.5 -98q0 -89 -70 -143.5t-200 -54.5z" />
    <glyph glyph-name="T" unicode="T" horiz-adv-x="568" 
d="M253 0v673h-243v56h548v-56h-244v-673h-61z" />
    <glyph glyph-name="U" unicode="U" horiz-adv-x="756" 
d="M378 -8q-133 0 -209.5 71.5t-76.5 199.5v466h62v-462q0 -110 60.5 -164t163.5 -54q115 0 170 59t55 159v462h61v-466q0 -123 -74.5 -197t-211.5 -74z" />
    <glyph glyph-name="V" unicode="V" horiz-adv-x="653" 
d="M284 0l-278 729h69l210 -565l38 -106h6l39 106l211 565h67l-277 -729h-85z" />
    <glyph glyph-name="W" unicode="W" horiz-adv-x="923" 
d="M179 0l-169 729h67l99 -440l48 -221h6l190 661h83l191 -662h6l47 222l99 440h67l-169 -729h-88l-192 657h-5l-193 -657h-87z" />
    <glyph glyph-name="X" unicode="X" horiz-adv-x="629" 
d="M-3 0l276 395l-234 334h71l203 -293h3l203 293h71l-234 -333l276 -396h-74l-243 350h-2l-243 -350h-73z" />
    <glyph glyph-name="Y" unicode="Y" horiz-adv-x="613" 
d="M274 0v296l-270 433h71l229 -373h4l230 373h70l-272 -433v-296h-62z" />
    <glyph glyph-name="Z" unicode="Z" horiz-adv-x="641" 
d="M44 0v50l462 623h-447v56h527v-49l-463 -624h475v-56h-554z" />
    <glyph glyph-name="bracketleft" unicode="[" horiz-adv-x="324" 
d="M98 -167v960h217v-48h-161v-864h161v-48h-217z" />
    <glyph glyph-name="backslash" unicode="\" horiz-adv-x="459" 
d="M370 -81l-319 810h57l321 -810h-59z" />
    <glyph glyph-name="bracketright" unicode="]" horiz-adv-x="324" 
d="M226 793v-960h-216v48h160v864h-160v48h216z" />
    <glyph glyph-name="asciicircum" unicode="^" horiz-adv-x="395" 
d="M33 474l133 255h61l134 -255h-60l-104 202l-106 -202h-58z" />
    <glyph glyph-name="underscore" unicode="_" horiz-adv-x="341" 
d="M0 -51v51h341v-51h-341z" />
    <glyph glyph-name="grave" unicode="`" horiz-adv-x="500" 
d="M269 744l-82 138h63l64 -138h-45z" />
    <glyph glyph-name="a" unicode="a" horiz-adv-x="593" 
d="M259 -8q-65 0 -113.5 32t-76 92t-27.5 145t27.5 145t76 92t113.5 32q71 0 120.5 -33.5t69.5 -89.5h4l3 114h56v-521h-59v116h-4q-20 -56 -69.5 -90t-120.5 -34zM276 43q56 0 95.5 26.5t60 68.5t20.5 90v67q0 48 -20.5 90t-60 68.5t-95.5 26.5q-78 0 -125.5 -56.5
t-47.5 -162.5q0 -105 47.5 -161.5t125.5 -56.5z" />
    <glyph glyph-name="b" unicode="b" horiz-adv-x="593" 
d="M334 -9q-71 0 -121 34t-69 89h-4l-3 -114h-56v729h59v-322h4q19 55 69 89t121 34q64 0 113 -32t76.5 -92.5t27.5 -145.5q0 -84 -27.5 -144.5t-76.5 -92.5t-113 -32zM317 42q78 0 125.5 56.5t47.5 161.5q0 106 -47.5 162.5t-125.5 56.5q-57 0 -96.5 -26.5t-60 -68.5
t-20.5 -90v-67q0 -48 20.5 -90t60 -68.5t96.5 -26.5z" />
    <glyph glyph-name="c" unicode="c" horiz-adv-x="551" 
d="M288 -8q-74 0 -129.5 33.5t-86 93.5t-30.5 140q0 81 31 141.5t87 94.5t132 34q59 0 106 -22.5t76.5 -62.5t35.5 -93h-58q-11 61 -56 93.5t-107 32.5q-88 0 -137.5 -60.5t-49.5 -157.5q0 -101 51 -158t135 -57q69 0 114 37t52 98h58q-5 -57 -35 -99t-78.5 -65t-110.5 -23z
" />
    <glyph glyph-name="d" unicode="d" horiz-adv-x="593" 
d="M259 -8q-65 0 -113.5 32t-76 92t-27.5 145t27.5 145t76 92t113.5 32q71 0 120.5 -33.5t69.5 -89.5h4v322h59v-729h-57l-2 116h-4q-20 -56 -69.5 -90t-120.5 -34zM276 43q56 0 95.5 26.5t60 68.5t20.5 90v67q0 48 -20.5 90t-60 68.5t-95.5 26.5q-78 0 -125.5 -56.5
t-47.5 -162.5q0 -105 47.5 -161.5t125.5 -56.5z" />
    <glyph glyph-name="e" unicode="e" horiz-adv-x="526" 
d="M271 -9q-109 0 -169 73t-60 195t59 196t168 74q76 0 126 -35t72.5 -97t17.5 -144h-386q2 -108 48.5 -161t123.5 -53q64 0 104 32t51 84h57q-11 -79 -70 -121.5t-142 -42.5zM269 481q-72 0 -116.5 -45.5t-51.5 -135.5h327q-3 96 -46.5 138.5t-112.5 42.5z" />
    <glyph glyph-name="f" unicode="f" horiz-adv-x="301" 
d="M113 0v472h-98v49h98v99q0 55 30.5 82t83.5 27h73v-49h-63q-39 0 -52.5 -18.5t-13.5 -50.5v-90h118v-49h-118v-472h-58z" />
    <glyph glyph-name="g" unicode="g" horiz-adv-x="579" 
d="M274 -177q-85 0 -138.5 37t-63.5 103h57q8 -43 47 -68t98 -25q79 0 125.5 35.5t46.5 126.5v116h-5q-19 -54 -68 -86.5t-117 -32.5q-98 0 -156 67.5t-58 182.5q0 77 27 133.5t75.5 87t113.5 30.5q68 0 116 -32.5t67 -85.5h5v109h58v-488q0 -76 -29.5 -122t-81.5 -67
t-119 -21zM272 78q55 0 93.5 25t59 64t21.5 81l-1 64q0 40 -20 79t-58 64t-93 25q-79 0 -125 -54t-46 -147q0 -95 46.5 -148t122.5 -53z" />
    <glyph glyph-name="h" unicode="h" horiz-adv-x="596" 
d="M81 0v729h58v-321h4q26 60 77 90.5t112 30.5q54 0 96.5 -22.5t67 -71.5t24.5 -130v-305h-59v294q0 95 -35.5 139.5t-109.5 44.5q-54 0 -93.5 -26t-61.5 -71t-22 -102v-279h-58z" />
    <glyph glyph-name="i" unicode="i" horiz-adv-x="220" 
d="M81 614v115h59v-115h-59zM81 0v521h59v-521h-59z" />
    <glyph glyph-name="j" unicode="j" horiz-adv-x="213" 
d="M73 614v115h59v-115h-59zM-34 -176v50h45q35 0 48.5 17t13.5 49v581h59v-587q0 -52 -26 -81t-83 -29h-57z" />
    <glyph glyph-name="k" unicode="k" horiz-adv-x="543" 
d="M81 0v729h59v-490l48 49l235 233h75l-203 -200l214 -321h-69l-155 229l-32 51l-113 -109v-171h-59z" />
    <glyph glyph-name="l" unicode="l" horiz-adv-x="220" 
d="M81 0v729h59v-729h-59z" />
    <glyph glyph-name="m" unicode="m" horiz-adv-x="964" 
d="M81 0v521h55l3 -113h4q25 60 75 90.5t111 30.5t107.5 -30t65.5 -99h8q24 64 76.5 96.5t117.5 32.5q53 0 95 -22.5t65.5 -71.5t23.5 -130v-305h-58v294q0 95 -35 139.5t-108 44.5q-52 0 -91 -26t-60.5 -71t-21.5 -102v-279h-59v294q0 95 -35 139.5t-107 44.5
q-53 0 -92 -26t-60.5 -71t-21.5 -102v-279h-58z" />
    <glyph glyph-name="n" unicode="n" horiz-adv-x="596" 
d="M81 0v521h55l3 -113h4q26 60 77 90.5t112 30.5q54 0 96.5 -22.5t67 -71.5t24.5 -130v-305h-59v294q0 95 -35.5 139.5t-109.5 44.5q-54 0 -93.5 -26t-61.5 -71t-22 -102v-279h-58z" />
    <glyph glyph-name="o" unicode="o" horiz-adv-x="580" 
d="M291 -8q-74 0 -130 33.5t-87.5 93.5t-31.5 140t31 141t87 95t131 34q74 0 129.5 -33.5t86.5 -94t31 -141.5q0 -79 -31 -139.5t-86 -94.5t-130 -34zM290 44q84 0 135.5 57.5t51.5 158.5q0 99 -49.5 158t-136.5 59q-84 0 -136.5 -58t-52.5 -160q0 -98 51 -156.5t137 -58.5z
" />
    <glyph glyph-name="p" unicode="p" horiz-adv-x="594" 
d="M81 -167v688h57l2 -114h4q20 55 70 89t120 34q65 0 114 -32t76.5 -92.5t27.5 -145.5q0 -84 -27.5 -144.5t-76.5 -92.5t-114 -32q-70 0 -120 34t-70 89h-4v-281h-59zM318 42q78 0 125.5 56.5t47.5 161.5q0 106 -47.5 162.5t-125.5 56.5q-57 0 -96.5 -26.5t-60 -68.5
t-20.5 -90v-67q0 -48 20.5 -90t60 -68.5t96.5 -26.5z" />
    <glyph glyph-name="q" unicode="q" horiz-adv-x="593" 
d="M453 -167v283h-4q-20 -56 -69.5 -90t-120.5 -34q-65 0 -113.5 32t-76 92t-27.5 145t27.5 145t76 92t113.5 32q71 0 120.5 -33.5t69.5 -89.5h4l3 114h56v-688h-59zM276 43q56 0 95.5 26.5t60 68.5t20.5 90v67q0 48 -20.5 90t-60 68.5t-95.5 26.5q-78 0 -125.5 -56.5
t-47.5 -162.5q0 -105 47.5 -161.5t125.5 -56.5z" />
    <glyph glyph-name="r" unicode="r" horiz-adv-x="353" 
d="M81 0v521h52l4 -101h3q17 51 61 79.5t99 28.5q9 0 17 -0.5t14 -1.5v-56q-6 0 -14 0.5t-17 0.5q-67 0 -111.5 -38.5t-49.5 -107.5v-325h-58z" />
    <glyph glyph-name="s" unicode="s" horiz-adv-x="491" 
d="M248 -10q-100 0 -154 47.5t-54 124.5h58q0 -64 41.5 -94.5t109.5 -30.5t104 25.5t36 73.5q0 51 -33.5 71.5t-109.5 31.5q-95 14 -143.5 43.5t-48.5 100.5q0 66 53 107t139 41q91 0 142 -43.5t51 -118.5h-58q-1 61 -38 88t-97 27q-63 0 -98 -26t-35 -69q0 -47 36.5 -67.5
t112.5 -31.5q57 -8 99 -23t65 -44.5t23 -81.5q0 -73 -55.5 -112t-145.5 -39z" />
    <glyph glyph-name="t" unicode="t" horiz-adv-x="333" 
d="M206 0q-49 0 -69.5 22t-20.5 67v383h-105v49h105v160l58 10v-170h126v-49h-126v-372q0 -30 10 -39.5t39 -9.5h77v-51h-94z" />
    <glyph glyph-name="u" unicode="u" horiz-adv-x="591" 
d="M265 -8q-86 0 -137.5 52.5t-51.5 159.5v317h59v-304q0 -83 34.5 -128.5t113.5 -45.5q51 0 90 25t61 71t22 108v274h59v-521h-55l-4 116h-5q-20 -57 -70.5 -90.5t-115.5 -33.5z" />
    <glyph glyph-name="v" unicode="v" horiz-adv-x="451" 
d="M192 0l-196 522h64l131 -365l34 -101h3l33 101l130 365h64l-193 -522h-70z" />
    <glyph glyph-name="w" unicode="w" horiz-adv-x="681" 
d="M147 0l-138 521h57l121 -465h3l111 465h76l119 -465h2l118 465h56l-138 -521h-78l-115 447h-4l-107 -447h-83z" />
    <glyph glyph-name="x" unicode="x" horiz-adv-x="491" 
d="M-1 0l209 271l-187 250h70l155 -208h4l152 208h67l-183 -248l205 -273h-69l-174 232h-4l-179 -232h-66z" />
    <glyph glyph-name="y" unicode="y" horiz-adv-x="453" 
d="M28 -167v50h50q38 0 59 16t35 51l33 83l-209 488h64l144 -355l27 -69h4l26 69l136 355h61l-232 -588q-21 -53 -53 -76.5t-88 -23.5h-57z" />
    <glyph glyph-name="z" unicode="z" horiz-adv-x="483" 
d="M26 0v44l348 428h-336v49h409v-45l-348 -427h359v-49h-432z" />
    <glyph glyph-name="braceleft" unicode="{" horiz-adv-x="359" 
d="M186 -167q-27 0 -40 15.5t-13 39.5v314q0 40 -19.5 62t-43.5 22h-30v51h30q24 0 43.5 22t19.5 63v316q0 24 13 39.5t40 15.5h163v-48h-160v-324q0 -48 -22 -76t-51 -30v-4q32 -4 52.5 -34t20.5 -74v-322h160v-48h-163z" />
    <glyph glyph-name="bar" unicode="|" horiz-adv-x="254" 
d="M99 -67v796h56v-796h-56z" />
    <glyph glyph-name="braceright" unicode="}" horiz-adv-x="359" 
d="M173 793q27 0 40 -15.5t13 -39.5v-314q0 -40 19.5 -62t43.5 -22h30v-51h-30q-24 0 -43.5 -22t-19.5 -63v-316q0 -24 -13 -39.5t-40 -15.5h-163v48h160v324q0 48 22.5 76t50.5 30v4q-31 4 -52 34t-21 74v322h-160v48h163z" />
    <glyph glyph-name="asciitilde" unicode="~" horiz-adv-x="533" 
d="M96 296q-3 48 9.5 73.5t33 35t39.5 9.5q29 0 57 -12.5t55.5 -25t54.5 -12.5q55 0 54 63h39q3 -44 -9.5 -70.5t-34.5 -38t-48 -11.5q-31 0 -61.5 13t-57.5 25.5t-49 12.5t-34 -17t-9 -45h-39z" />
    <glyph glyph-name="uni00A0" unicode="&#xa0;" horiz-adv-x="234" 
 />
    <glyph glyph-name="exclamdown" unicode="&#xa1;" horiz-adv-x="236" 
d="M134 328l15 -300v-237h-61v237l15 300h31zM150 520v-76h-63v76h63z" />
    <glyph glyph-name="cent" unicode="&#xa2;" horiz-adv-x="558" 
d="M258 -85v78q-65 8 -113 42.5t-74.5 92t-26.5 131.5t26 131.5t74 93t114 43.5v78h43v-76q58 -2 103 -24.5t73.5 -62t33.5 -91.5h-57q-11 59 -53 91t-100 35v-433q64 3 106 39.5t49 95.5h58q-8 -83 -66.5 -133.5t-146.5 -53.5v-77h-43zM103 259q0 -91 42 -146.5t113 -66.5
v429q-73 -12 -114 -70t-41 -146z" />
    <glyph glyph-name="sterling" unicode="&#xa3;" horiz-adv-x="592" 
d="M22 0v54h85v282h-85v50h85v145q0 98 58.5 151.5t156.5 53.5q97 0 154 -53.5t57 -148.5v-29h-57v24q0 75 -42 114.5t-112 39.5q-76 0 -116 -41.5t-40 -112.5v-143h226v-50h-226v-282h329v130h54v-184h-527z" />
    <glyph glyph-name="currency" unicode="&#xa4;" horiz-adv-x="573" 
d="M66 92l-36 35l105 108q-18 22 -28.5 51.5t-10.5 61.5q0 34 10.5 64t29.5 52l-106 107l36 36l108 -109q21 15 50 24.5t63 9.5q30 0 59.5 -8.5t52.5 -25.5l108 109l36 -36l-106 -107q18 -23 28.5 -52.5t10.5 -63.5q0 -31 -10 -61t-30 -52l107 -108l-36 -35l-108 109
q-47 -37 -112 -37q-33 0 -62 9.5t-52 26.5zM287 215q59 0 97 38t38 96q0 59 -38.5 96.5t-96.5 37.5q-59 0 -98 -37.5t-39 -96.5q0 -58 38.5 -96t98.5 -38z" />
    <glyph glyph-name="yen" unicode="&#xa5;" horiz-adv-x="569" 
d="M256 0v148h-189v47h189v111h-189v47h160l-223 376h65l213 -370h4l213 370h65l-221 -376h157v-47h-186v-111h186v-47h-186v-148h-58z" />
    <glyph glyph-name="brokenbar" unicode="&#xa6;" horiz-adv-x="254" 
d="M99 412v317h56v-317h-56zM99 -67v317h56v-317h-56z" />
    <glyph glyph-name="dieresis" unicode="&#xa8;" horiz-adv-x="500" 
d="M136 766v116h56v-116h-56zM307 766v116h57v-116h-57z" />
    <glyph glyph-name="copyright" unicode="&#xa9;" horiz-adv-x="821" 
d="M33 363q0 112 47.5 196t132.5 130.5t197 46.5q113 0 198.5 -46.5t133 -130.5t47.5 -196q0 -111 -47.5 -195t-133 -131t-198.5 -47q-112 0 -197 47t-132.5 131t-47.5 195zM73 363q0 -100 42.5 -176t118.5 -118t176 -42q101 0 177.5 42t119 118t42.5 176q0 101 -42.5 177
t-119 118.5t-177.5 42.5q-100 0 -176 -42.5t-118.5 -118.5t-42.5 -177zM220 362q0 62 24 108t67.5 71.5t102.5 25.5q69 0 115.5 -38t52.5 -98h-48q-9 47 -44.5 70t-78.5 23q-66 0 -103.5 -45t-37.5 -117q0 -74 39 -116t101 -42q50 0 84.5 26t40.5 73h49q-5 -64 -52.5 -103.5
t-121.5 -39.5q-57 0 -99.5 25.5t-66.5 71t-24 105.5z" />
    <glyph glyph-name="ordfeminine" unicode="&#xaa;" horiz-adv-x="390" 
d="M167 384q-63 0 -102 46t-39 129q0 84 39 130t102 46q45 0 77 -21t45 -57h2l3 72h46v-340h-49v73h-2q-14 -37 -46.5 -57.5t-75.5 -20.5zM183 424q34 0 58.5 16.5t36.5 42.5t12 55v43q0 29 -12 55t-36.5 42.5t-58.5 16.5q-48 0 -77.5 -35t-29.5 -101q0 -65 29.5 -100
t77.5 -35z" />
    <glyph glyph-name="guillemotleft" unicode="&#xab;" horiz-adv-x="401" 
d="M159 0l-122 261l122 260h51l-117 -260l117 -261h-51zM320 0l-121 261l121 260h52l-118 -260l118 -261h-52z" />
    <glyph glyph-name="logicalnot" unicode="&#xac;" horiz-adv-x="666" 
d="M523 151v202h-427v48h475v-250h-48z" />
    <glyph glyph-name="registered" unicode="&#xae;" horiz-adv-x="599" 
d="M298 228q-72 0 -130 32.5t-91.5 90t-33.5 132.5t33.5 132.5t91.5 90t130 32.5q73 0 131.5 -32.5t93 -90t34.5 -132.5q0 -74 -34.5 -132t-93 -90.5t-131.5 -32.5zM299 259q63 0 113.5 28.5t80 79t29.5 116.5q0 65 -29.5 116t-80.5 80t-113 29q-63 0 -113.5 -29t-80 -80
t-29.5 -117q0 -65 29.5 -115.5t80 -79t113.5 -28.5zM205 361v249h115q38 0 63.5 -18t25.5 -56q0 -25 -12.5 -41.5t-32.5 -22.5v-1q40 -9 40 -55v-29v-11.5t3 -14.5h-43q-3 4 -3.5 9.5t-0.5 20.5v25q0 17 -8 27t-31 10h-74v-92h-42zM312 576h-65v-91h65q27 0 40.5 12.5
t13.5 34.5q0 44 -54 44z" />
    <glyph glyph-name="macron" unicode="&#xaf;" horiz-adv-x="409" 
d="M57 775v48h295v-48h-295z" />
    <glyph glyph-name="degree" unicode="&#xb0;" horiz-adv-x="399" 
d="M199 435q-44 0 -80 19t-57 53t-21 79t21 79t57 53t80 19q45 0 81 -19t57 -53t21 -79t-21 -79t-57 -53t-81 -19zM199 482q46 0 77 29t31 75t-31 75t-77 29q-45 0 -76 -29t-31 -75t31 -75t76 -29z" />
    <glyph glyph-name="plusminus" unicode="&#xb1;" horiz-adv-x="616" 
d="M283 167v192h-216v49h216v193h51v-193h216v-49h-216v-192h-51zM67 0v46h483v-46h-483z" />
    <glyph glyph-name="uni00B2" unicode="&#xb2;" horiz-adv-x="338" 
d="M27 326v10q0 41 16.5 71t42.5 53.5t55 43.5t54.5 39.5t42 42.5t16.5 52q0 39 -24.5 61.5t-64.5 22.5q-41 0 -67.5 -24.5t-24.5 -68.5h-45q-2 61 37.5 98t102.5 37q61 0 97.5 -34t36.5 -89q0 -40 -20.5 -70t-51.5 -54t-62.5 -46t-55 -46.5t-28.5 -56.5h224v-42h-281z" />
    <glyph glyph-name="uni00B3" unicode="&#xb3;" horiz-adv-x="346" 
d="M167 321q-66 0 -104 38t-38 99h46q-1 -41 24.5 -68.5t71.5 -27.5q45 0 71.5 23.5t26.5 63.5q0 41 -25 61.5t-64 20.5h-44v37h42q41 0 62.5 22.5t21.5 55.5q0 38 -25 57.5t-64 19.5q-45 0 -69.5 -26.5t-25.5 -68.5h-45q-1 61 38 98.5t104 37.5q62 0 99 -30.5t37 -81.5
q0 -40 -20.5 -65.5t-50.5 -34.5v-3q35 -8 56.5 -34.5t21.5 -69.5q0 -56 -40.5 -90t-106.5 -34z" />
    <glyph glyph-name="acute" unicode="&#xb4;" horiz-adv-x="500" 
d="M187 744l64 138h63l-82 -138h-45z" />
    <glyph glyph-name="paragraph" unicode="&#xb6;" horiz-adv-x="694" 
d="M197 -151v547q-90 -1 -138.5 45.5t-48.5 123.5q0 79 50 121.5t137 42.5h399v-54h-88v-826h-58v826h-195v-826h-58z" />
    <glyph glyph-name="periodcentered" unicode="&#xb7;" horiz-adv-x="273" 
d="M60 277q0 32 21.5 53.5t55.5 21.5q35 0 55 -21.5t20 -53.5t-20 -53.5t-55 -21.5q-34 0 -55.5 21.5t-21.5 53.5z" />
    <glyph glyph-name="cedilla" unicode="&#xb8;" horiz-adv-x="500" 
d="M250 -217q-40 0 -64.5 19.5t-24.5 52.5h42q1 -15 13.5 -25.5t31.5 -10.5q22 0 34.5 13t12.5 34q0 45 -47 45h-30v96h41v-67q41 -1 61 -22t20 -54q0 -39 -25 -60t-65 -21z" />
    <glyph glyph-name="uni00B9" unicode="&#xb9;" horiz-adv-x="234" 
d="M123 326v326h-102v36h16q44 0 64 19.5t23 51.5h46v-433h-47z" />
    <glyph glyph-name="ordmasculine" unicode="&#xba;" horiz-adv-x="379" 
d="M190 384q-73 0 -118.5 47.5t-45.5 126.5q0 78 44.5 127.5t119.5 49.5q73 0 118 -48t45 -128q0 -78 -44 -126.5t-119 -48.5zM190 425q51 0 82.5 35.5t31.5 98.5t-30.5 98.5t-83.5 35.5q-51 0 -82.5 -35.5t-31.5 -99.5q0 -61 30.5 -97t83.5 -36z" />
    <glyph glyph-name="guillemotright" unicode="&#xbb;" horiz-adv-x="401" 
d="M242 521l121 -261l-121 -260h-52l117 260l-117 261h52zM81 521l121 -261l-121 -260h-52l117 260l-117 261h52z" />
    <glyph glyph-name="onequarter" unicode="&#xbc;" horiz-adv-x="580" 
d="M103 327v296h-94v33h15q40 0 58.5 18t21.5 47h41v-394h-42zM-9 0l496 721h53l-497 -721h-52zM472 0v100h-199v35l183 259h59v-257h55v-37h-55v-100h-43zM317 137h155v218z" />
    <glyph glyph-name="onehalf" unicode="&#xbd;" horiz-adv-x="644" 
d="M103 327v296h-94v33h15q40 0 58.5 18t21.5 47h41v-394h-42zM-9 0l496 721h53l-497 -721h-52zM358 0v9q0 44 20.5 75t51.5 54.5t62 44.5t52 45t21 56q0 35 -22 56t-59 21q-41 0 -63.5 -24.5t-20.5 -61.5h-41q-2 56 34 90t94 34q55 0 89 -31.5t34 -80.5q0 -37 -18.5 -64
t-46.5 -49t-57 -42.5t-51 -43.5t-27 -52q17 1 41 1.5t42 0.5h122v-38h-257z" />
    <glyph glyph-name="threequarters" unicode="&#xbe;" horiz-adv-x="696" 
d="M157 322q-60 0 -95.5 36t-34.5 90h42q0 -40 24.5 -64t63.5 -24q40 0 65 22t25 57q0 34 -22.5 54t-60.5 20h-40v35h39q37 0 57 20.5t20 50.5q0 32 -23 50.5t-58 18.5q-38 0 -62.5 -23.5t-24.5 -62.5h-41q-1 59 37 91.5t92 32.5t89.5 -27.5t35.5 -74.5q0 -34 -17.5 -58
t-47.5 -34v-2q36 -9 53.5 -34.5t17.5 -60.5q0 -49 -37.5 -81t-96.5 -32zM107 0l496 721h53l-497 -721h-52zM587 0v100h-199v35l183 259h59v-257h55v-37h-55v-100h-43zM432 137h155v218z" />
    <glyph glyph-name="questiondown" unicode="&#xbf;" horiz-adv-x="531" 
d="M283 343v-17q0 -46 -17 -81.5t-42.5 -65.5l-51 -60t-43 -65t-17.5 -80q0 -71 41 -105.5t109 -34.5q76 0 118 45.5t42 115.5h58q0 -64 -27 -111.5t-77 -74t-117 -26.5q-100 0 -154 51.5t-54 136.5q0 50 17.5 88t44 70t53 62t44 62t17.5 72v18h56zM286 521v-76h-64v76h64z
" />
    <glyph glyph-name="Agrave" unicode="&#xc0;" horiz-adv-x="645" 
d="M6 0l275 729h84l275 -729h-65l-71 190h-362l-71 -190h-65zM159 240h327l-99 264l-61 166h-5l-61 -166zM302 800l-82 138h63l64 -138h-45z" />
    <glyph glyph-name="Aacute" unicode="&#xc1;" horiz-adv-x="645" 
d="M6 0l275 729h84l275 -729h-65l-71 190h-362l-71 -190h-65zM159 240h327l-99 264l-61 166h-5l-61 -166zM298 800l64 138h63l-82 -138h-45z" />
    <glyph glyph-name="Acircumflex" unicode="&#xc2;" horiz-adv-x="645" 
d="M6 0l275 729h84l275 -729h-65l-71 190h-362l-71 -190h-65zM159 240h327l-99 264l-61 166h-5l-61 -166zM187 800l111 138h50l112 -138h-59l-78 100l-78 -100h-58z" />
    <glyph glyph-name="Atilde" unicode="&#xc3;" horiz-adv-x="645" 
d="M6 0l275 729h84l275 -729h-65l-71 190h-362l-71 -190h-65zM159 240h327l-99 264l-61 166h-5l-61 -166zM380 825q-27 1 -47 8t-37.5 14t-37.5 7q-33 0 -56 -30l-26 17q19 33 39 46.5t48 13.5q20 0 40 -7.5t41 -15t42 -7.5q33 0 56 32l27 -18q-17 -32 -39 -46t-50 -14z" />
    <glyph glyph-name="Adieresis" unicode="&#xc4;" horiz-adv-x="645" 
d="M6 0l275 729h84l275 -729h-65l-71 190h-362l-71 -190h-65zM159 240h327l-99 264l-61 166h-5l-61 -166zM209 822v116h56v-116h-56zM380 822v116h57v-116h-57z" />
    <glyph glyph-name="Aring" unicode="&#xc5;" horiz-adv-x="645" 
d="M6 0l275 729h84l275 -729h-65l-71 190h-362l-71 -190h-65zM159 240h327l-99 264l-61 166h-5l-61 -166zM325 806q-44 0 -71 25.5t-27 67.5q0 43 27 68.5t71 25.5t71 -25.5t27 -68.5q0 -42 -27 -67.5t-71 -25.5zM325 842q26 0 42 16t16 41q0 26 -16 41.5t-42 15.5
t-42 -15.5t-16 -41.5q0 -25 16 -41t42 -16z" />
    <glyph glyph-name="AE" unicode="&#xc6;" horiz-adv-x="875" 
d="M6 0l275 729h541v-55h-429v-274h381v-52h-381v-292h430v-56h-490v190h-191l-71 -190h-65zM159 240h174v430h-12l-61 -166z" />
    <glyph glyph-name="Ccedilla" unicode="&#xc7;" horiz-adv-x="760" 
d="M393 -8q-105 0 -183.5 46.5t-122 130t-43.5 195.5q0 113 43.5 196.5t122 129.5t183.5 46q86 0 154.5 -30t112.5 -85t56 -130h-63q-11 56 -45.5 98.5t-89 67t-125.5 24.5q-88 0 -152 -39t-98 -110t-34 -168t34 -168t98 -110t152 -39q106 0 175.5 53t84.5 141l63 -1
q-10 -76 -53.5 -131.5t-112.5 -86t-157 -30.5zM381 -217q-40 0 -64.5 19.5t-24.5 52.5h42q1 -15 13.5 -25.5t31.5 -10.5q22 0 34.5 13t12.5 34q0 45 -47 45h-30v96h41v-67q41 -1 61 -22t20 -54q0 -39 -25 -60t-65 -21z" />
    <glyph glyph-name="Egrave" unicode="&#xc8;" horiz-adv-x="642" 
d="M98 0v729h491v-55h-429v-274h381v-52h-381v-292h429v-56h-491zM309 800l-82 138h63l64 -138h-45z" />
    <glyph glyph-name="Eacute" unicode="&#xc9;" horiz-adv-x="642" 
d="M98 0v729h491v-55h-429v-274h381v-52h-381v-292h429v-56h-491zM306 800l64 138h63l-82 -138h-45z" />
    <glyph glyph-name="Ecircumflex" unicode="&#xca;" horiz-adv-x="642" 
d="M98 0v729h491v-55h-429v-274h381v-52h-381v-292h429v-56h-491zM194 800l111 138h50l112 -138h-59l-78 100l-78 -100h-58z" />
    <glyph glyph-name="Edieresis" unicode="&#xcb;" horiz-adv-x="642" 
d="M98 0v729h491v-55h-429v-274h381v-52h-381v-292h429v-56h-491zM216 822v116h56v-116h-56zM387 822v116h57v-116h-57z" />
    <glyph glyph-name="Igrave" unicode="&#xcc;" horiz-adv-x="258" 
d="M98 0v729h62v-729h-62zM108 800l-82 138h63l64 -138h-45z" />
    <glyph glyph-name="Iacute" unicode="&#xcd;" horiz-adv-x="258" 
d="M98 0v729h62v-729h-62zM105 800l64 138h63l-82 -138h-45z" />
    <glyph glyph-name="Icircumflex" unicode="&#xce;" horiz-adv-x="258" 
d="M98 0v729h62v-729h-62zM-7 800l111 138h50l112 -138h-59l-78 100l-78 -100h-58z" />
    <glyph glyph-name="Idieresis" unicode="&#xcf;" horiz-adv-x="258" 
d="M98 0v729h62v-729h-62zM15 822v116h56v-116h-56zM186 822v116h57v-116h-57z" />
    <glyph glyph-name="Eth" unicode="&#xd0;" horiz-adv-x="745" 
d="M98 0v340h-95v49h95v340h278q102 0 174.5 -45.5t111 -127.5t38.5 -192t-38.5 -191.5t-111 -127t-174.5 -45.5h-278zM160 56h210q124 0 195 82t71 227q0 149 -72.5 229t-193.5 80h-210v-285h172v-49h-172v-284z" />
    <glyph glyph-name="Eth" unicode="&#xf0;" horiz-adv-x="745" 
d="M98 0v340h-95v49h95v340h278q102 0 174.5 -45.5t111 -127.5t38.5 -192t-38.5 -191.5t-111 -127t-174.5 -45.5h-278zM160 56h210q124 0 195 82t71 227q0 149 -72.5 229t-193.5 80h-210v-285h172v-49h-172v-284z" />
    <glyph glyph-name="Ntilde" unicode="&#xd1;" horiz-adv-x="786" 
d="M98 0v729h81l447 -652h6l-5 255v397h61v-729h-79l-447 650h-5l3 -243v-407h-62zM450 825q-27 1 -47 8t-37.5 14t-37.5 7q-33 0 -56 -30l-26 17q19 33 39 46.5t48 13.5q20 0 40 -7.5t41 -15t42 -7.5q33 0 56 32l27 -18q-17 -32 -39 -46t-50 -14z" />
    <glyph glyph-name="Ograve" unicode="&#xd2;" horiz-adv-x="794" 
d="M397 -8q-107 0 -186.5 46t-123 130t-43.5 196q0 113 44 197t123.5 129.5t185.5 45.5q107 0 186.5 -46t123 -129.5t43.5 -196.5t-44 -197t-123.5 -129.5t-185.5 -45.5zM397 47q89 0 154 39.5t100 110.5t35 167q0 97 -35 168t-100 110t-154 39t-154 -39t-99.5 -110
t-34.5 -168q0 -96 35 -167.5t99.5 -110.5t153.5 -39zM377 800l-82 138h63l64 -138h-45z" />
    <glyph glyph-name="Oacute" unicode="&#xd3;" horiz-adv-x="794" 
d="M397 -8q-107 0 -186.5 46t-123 130t-43.5 196q0 113 44 197t123.5 129.5t185.5 45.5q107 0 186.5 -46t123 -129.5t43.5 -196.5t-44 -197t-123.5 -129.5t-185.5 -45.5zM397 47q89 0 154 39.5t100 110.5t35 167q0 97 -35 168t-100 110t-154 39t-154 -39t-99.5 -110
t-34.5 -168q0 -96 35 -167.5t99.5 -110.5t153.5 -39zM373 800l64 138h63l-82 -138h-45z" />
    <glyph glyph-name="Ocircumflex" unicode="&#xd4;" horiz-adv-x="794" 
d="M397 -8q-107 0 -186.5 46t-123 130t-43.5 196q0 113 44 197t123.5 129.5t185.5 45.5q107 0 186.5 -46t123 -129.5t43.5 -196.5t-44 -197t-123.5 -129.5t-185.5 -45.5zM397 47q89 0 154 39.5t100 110.5t35 167q0 97 -35 168t-100 110t-154 39t-154 -39t-99.5 -110
t-34.5 -168q0 -96 35 -167.5t99.5 -110.5t153.5 -39zM261 800l111 138h50l112 -138h-59l-78 100l-78 -100h-58z" />
    <glyph glyph-name="Otilde" unicode="&#xd5;" horiz-adv-x="794" 
d="M397 -8q-107 0 -186.5 46t-123 130t-43.5 196q0 113 44 197t123.5 129.5t185.5 45.5q107 0 186.5 -46t123 -129.5t43.5 -196.5t-44 -197t-123.5 -129.5t-185.5 -45.5zM397 47q89 0 154 39.5t100 110.5t35 167q0 97 -35 168t-100 110t-154 39t-154 -39t-99.5 -110
t-34.5 -168q0 -96 35 -167.5t99.5 -110.5t153.5 -39zM454 825q-27 1 -47 8t-37.5 14t-37.5 7q-33 0 -56 -30l-26 17q19 33 39 46.5t48 13.5q20 0 40 -7.5t41 -15t42 -7.5q33 0 56 32l27 -18q-17 -32 -39 -46t-50 -14z" />
    <glyph glyph-name="Odieresis" unicode="&#xd6;" horiz-adv-x="794" 
d="M397 -8q-107 0 -186.5 46t-123 130t-43.5 196q0 113 44 197t123.5 129.5t185.5 45.5q107 0 186.5 -46t123 -129.5t43.5 -196.5t-44 -197t-123.5 -129.5t-185.5 -45.5zM397 47q89 0 154 39.5t100 110.5t35 167q0 97 -35 168t-100 110t-154 39t-154 -39t-99.5 -110
t-34.5 -168q0 -96 35 -167.5t99.5 -110.5t153.5 -39zM283 822v116h56v-116h-56zM454 822v116h57v-116h-57z" />
    <glyph glyph-name="multiply" unicode="&#xd7;" horiz-adv-x="582" 
d="M126 161l-35 35l165 165l-165 165l35 35l165 -165l165 165l35 -35l-165 -165l165 -165l-35 -35l-165 165z" />
    <glyph glyph-name="Oslash" unicode="&#xd8;" horiz-adv-x="794" 
d="M397 -8q-107 0 -186.5 46t-123 130t-43.5 196q0 113 44 197t123.5 129.5t185.5 45.5q107 0 186.5 -46t123 -129.5t43.5 -196.5t-44 -197t-123.5 -129.5t-185.5 -45.5zM397 47q89 0 154 39.5t100 110.5t35 167q0 97 -35 168t-100 110t-154 39t-154 -39t-99.5 -110
t-34.5 -168q0 -96 35 -167.5t99.5 -110.5t153.5 -39zM72 -40l597 810h53l-594 -810h-56z" />
    <glyph glyph-name="Ugrave" unicode="&#xd9;" horiz-adv-x="756" 
d="M378 -8q-133 0 -209.5 71.5t-76.5 199.5v466h62v-462q0 -110 60.5 -164t163.5 -54q115 0 170 59t55 159v462h61v-466q0 -123 -74.5 -197t-211.5 -74zM358 800l-82 138h63l64 -138h-45z" />
    <glyph glyph-name="Uacute" unicode="&#xda;" horiz-adv-x="756" 
d="M378 -8q-133 0 -209.5 71.5t-76.5 199.5v466h62v-462q0 -110 60.5 -164t163.5 -54q115 0 170 59t55 159v462h61v-466q0 -123 -74.5 -197t-211.5 -74zM354 800l64 138h63l-82 -138h-45z" />
    <glyph glyph-name="Ucircumflex" unicode="&#xdb;" horiz-adv-x="756" 
d="M378 -8q-133 0 -209.5 71.5t-76.5 199.5v466h62v-462q0 -110 60.5 -164t163.5 -54q115 0 170 59t55 159v462h61v-466q0 -123 -74.5 -197t-211.5 -74zM242 800l111 138h50l112 -138h-59l-78 100l-78 -100h-58z" />
    <glyph glyph-name="Udieresis" unicode="&#xdc;" horiz-adv-x="756" 
d="M378 -8q-133 0 -209.5 71.5t-76.5 199.5v466h62v-462q0 -110 60.5 -164t163.5 -54q115 0 170 59t55 159v462h61v-466q0 -123 -74.5 -197t-211.5 -74zM264 822v116h56v-116h-56zM435 822v116h57v-116h-57z" />
    <glyph glyph-name="Yacute" unicode="&#xdd;" horiz-adv-x="613" 
d="M274 0v296l-270 433h71l229 -373h4l230 373h70l-272 -433v-296h-62zM282 800l64 138h63l-82 -138h-45z" />
    <glyph glyph-name="Thorn" unicode="&#xde;" horiz-adv-x="632" 
d="M98 0v729h62v-140h194q114 0 181 -58.5t67 -165.5q0 -68 -30 -118.5t-86 -78.5t-133 -27l-193 1v-142h-62zM346 533h-186v-338l186 -1q91 -1 142 44.5t51 125.5q0 81 -51 125t-142 44z" />
    <glyph glyph-name="germandbls" unicode="&#xdf;" horiz-adv-x="637" 
d="M121 -167v637h-106v51h106q2 74 31 122t77.5 72t109.5 24q97 0 152 -50t55 -132q0 -52 -26 -94t-79 -60v-5q44 -6 79 -30.5t55 -64t20 -90.5q0 -97 -61.5 -155t-179.5 -58h-87v51h82q90 0 138.5 41.5t48.5 124.5q0 69 -42.5 110.5t-119.5 41.5h-71v45h41q71 0 109 36.5
t38 97.5q0 64 -40.5 100.5t-111.5 36.5q-77 0 -118 -45.5t-41 -126.5v-680h-59z" />
    <glyph glyph-name="agrave" unicode="&#xe0;" horiz-adv-x="593" 
d="M259 -8q-65 0 -113.5 32t-76 92t-27.5 145t27.5 145t76 92t113.5 32q71 0 120.5 -33.5t69.5 -89.5h4l3 114h56v-521h-59v116h-4q-20 -56 -69.5 -90t-120.5 -34zM276 43q56 0 95.5 26.5t60 68.5t20.5 90v67q0 48 -20.5 90t-60 68.5t-95.5 26.5q-78 0 -125.5 -56.5
t-47.5 -162.5q0 -105 47.5 -161.5t125.5 -56.5zM273 592l-82 138h63l64 -138h-45z" />
    <glyph glyph-name="aacute" unicode="&#xe1;" horiz-adv-x="593" 
d="M259 -8q-65 0 -113.5 32t-76 92t-27.5 145t27.5 145t76 92t113.5 32q71 0 120.5 -33.5t69.5 -89.5h4l3 114h56v-521h-59v116h-4q-20 -56 -69.5 -90t-120.5 -34zM276 43q56 0 95.5 26.5t60 68.5t20.5 90v67q0 48 -20.5 90t-60 68.5t-95.5 26.5q-78 0 -125.5 -56.5
t-47.5 -162.5q0 -105 47.5 -161.5t125.5 -56.5zM269 592l64 138h63l-82 -138h-45z" />
    <glyph glyph-name="acircumflex" unicode="&#xe2;" horiz-adv-x="593" 
d="M259 -8q-65 0 -113.5 32t-76 92t-27.5 145t27.5 145t76 92t113.5 32q71 0 120.5 -33.5t69.5 -89.5h4l3 114h56v-521h-59v116h-4q-20 -56 -69.5 -90t-120.5 -34zM276 43q56 0 95.5 26.5t60 68.5t20.5 90v67q0 48 -20.5 90t-60 68.5t-95.5 26.5q-78 0 -125.5 -56.5
t-47.5 -162.5q0 -105 47.5 -161.5t125.5 -56.5zM157 592l111 138h50l112 -138h-59l-78 100l-78 -100h-58z" />
    <glyph glyph-name="atilde" unicode="&#xe3;" horiz-adv-x="593" 
d="M259 -8q-65 0 -113.5 32t-76 92t-27.5 145t27.5 145t76 92t113.5 32q71 0 120.5 -33.5t69.5 -89.5h4l3 114h56v-521h-59v116h-4q-20 -56 -69.5 -90t-120.5 -34zM276 43q56 0 95.5 26.5t60 68.5t20.5 90v67q0 48 -20.5 90t-60 68.5t-95.5 26.5q-78 0 -125.5 -56.5
t-47.5 -162.5q0 -105 47.5 -161.5t125.5 -56.5zM351 617q-27 1 -47 8t-37.5 14t-37.5 7q-33 0 -56 -30l-26 17q19 33 39 46.5t48 13.5q20 0 40 -7.5t41 -15t42 -7.5q33 0 56 32l27 -18q-17 -32 -39 -46t-50 -14z" />
    <glyph glyph-name="adieresis" unicode="&#xe4;" horiz-adv-x="593" 
d="M259 -8q-65 0 -113.5 32t-76 92t-27.5 145t27.5 145t76 92t113.5 32q71 0 120.5 -33.5t69.5 -89.5h4l3 114h56v-521h-59v116h-4q-20 -56 -69.5 -90t-120.5 -34zM276 43q56 0 95.5 26.5t60 68.5t20.5 90v67q0 48 -20.5 90t-60 68.5t-95.5 26.5q-78 0 -125.5 -56.5
t-47.5 -162.5q0 -105 47.5 -161.5t125.5 -56.5zM179 614v116h56v-116h-56zM350 614v116h57v-116h-57z" />
    <glyph glyph-name="aring" unicode="&#xe5;" horiz-adv-x="593" 
d="M259 -8q-65 0 -113.5 32t-76 92t-27.5 145t27.5 145t76 92t113.5 32q71 0 120.5 -33.5t69.5 -89.5h4l3 114h56v-521h-59v116h-4q-20 -56 -69.5 -90t-120.5 -34zM276 43q56 0 95.5 26.5t60 68.5t20.5 90v67q0 48 -20.5 90t-60 68.5t-95.5 26.5q-78 0 -125.5 -56.5
t-47.5 -162.5q0 -105 47.5 -161.5t125.5 -56.5zM296 598q-44 0 -71 25.5t-27 67.5q0 43 27 68.5t71 25.5t71 -25.5t27 -68.5q0 -42 -27 -67.5t-71 -25.5zM296 634q26 0 42 16t16 41q0 26 -16 41.5t-42 15.5t-42 -15.5t-16 -41.5q0 -25 16 -41t42 -16z" />
    <glyph glyph-name="ae" unicode="&#xe6;" horiz-adv-x="973" 
d="M258 -8q-64 0 -112.5 32t-76 92t-27.5 145t27.5 145t76 92t112.5 32q72 0 121.5 -33.5t69.5 -89.5h4l3 114h51v-113h4q23 57 75 89t117 32q81 0 134 -36.5t76.5 -99t15.5 -141.5h-410q3 -100 52.5 -154.5t132.5 -54.5q65 0 109.5 30.5t55.5 82.5h59q-9 -50 -39.5 -87
t-78 -57t-105.5 -20q-66 0 -118.5 30.5t-76.5 91.5h-4v-114h-52l-1 116h-4q-20 -56 -69.5 -90t-121.5 -34zM276 43q56 0 95.5 26.5t60 68.5t20.5 90v67q0 48 -20.5 90t-60 68.5t-95.5 26.5q-78 0 -125.5 -56.5t-47.5 -162.5q0 -105 47.5 -161.5t125.5 -56.5zM520 296h352
q0 65 -23 105t-62 58.5t-87 18.5q-78 0 -126 -48.5t-54 -133.5z" />
    <glyph glyph-name="ccedilla" unicode="&#xe7;" horiz-adv-x="551" 
d="M288 -8q-74 0 -129.5 33.5t-86 93.5t-30.5 140q0 81 31 141.5t87 94.5t132 34q59 0 106 -22.5t76.5 -62.5t35.5 -93h-58q-11 61 -56 93.5t-107 32.5q-88 0 -137.5 -60.5t-49.5 -157.5q0 -101 51 -158t135 -57q69 0 114 37t52 98h58q-5 -57 -35 -99t-78.5 -65t-110.5 -23z
M286 -217q-40 0 -64.5 19.5t-24.5 52.5h42q1 -15 13.5 -25.5t31.5 -10.5q22 0 34.5 13t12.5 34q0 45 -47 45h-30v96h41v-67q41 -1 61 -22t20 -54q0 -39 -25 -60t-65 -21z" />
    <glyph glyph-name="egrave" unicode="&#xe8;" horiz-adv-x="555" 
d="M271 -9q-109 0 -169 73t-60 195t59 196t168 74q76 0 126 -35t72.5 -97t17.5 -144h-386q2 -108 48.5 -161t123.5 -53q64 0 104 32t51 84h57q-11 -79 -70 -121.5t-142 -42.5zM269 481q-72 0 -116.5 -45.5t-51.5 -135.5h327q-3 96 -46.5 138.5t-112.5 42.5zM257 592l-82 138
h63l64 -138h-45z" />
    <glyph glyph-name="eacute" unicode="&#xe9;" horiz-adv-x="555" 
d="M271 -9q-109 0 -169 73t-60 195t59 196t168 74q76 0 126 -35t72.5 -97t17.5 -144h-386q2 -108 48.5 -161t123.5 -53q64 0 104 32t51 84h57q-11 -79 -70 -121.5t-142 -42.5zM269 481q-72 0 -116.5 -45.5t-51.5 -135.5h327q-3 96 -46.5 138.5t-112.5 42.5zM253 592l64 138
h63l-82 -138h-45z" />
    <glyph glyph-name="ecircumflex" unicode="&#xea;" horiz-adv-x="555" 
d="M271 -9q-109 0 -169 73t-60 195t59 196t168 74q76 0 126 -35t72.5 -97t17.5 -144h-386q2 -108 48.5 -161t123.5 -53q64 0 104 32t51 84h57q-11 -79 -70 -121.5t-142 -42.5zM269 481q-72 0 -116.5 -45.5t-51.5 -135.5h327q-3 96 -46.5 138.5t-112.5 42.5zM141 592l111 138
h50l112 -138h-59l-78 100l-78 -100h-58z" />
    <glyph glyph-name="edieresis" unicode="&#xeb;" horiz-adv-x="555" 
d="M271 -9q-109 0 -169 73t-60 195t59 196t168 74q76 0 126 -35t72.5 -97t17.5 -144h-386q2 -108 48.5 -161t123.5 -53q64 0 104 32t51 84h57q-11 -79 -70 -121.5t-142 -42.5zM269 481q-72 0 -116.5 -45.5t-51.5 -135.5h327q-3 96 -46.5 138.5t-112.5 42.5zM163 614v116h56
v-116h-56zM334 614v116h57v-116h-57z" />
    <glyph glyph-name="igrave" unicode="&#xec;" horiz-adv-x="220" 
d="M81 0v521h59v-521h-59zM90 592l-82 138h63l64 -138h-45z" />
    <glyph glyph-name="iacute" unicode="&#xed;" horiz-adv-x="220" 
d="M81 0v521h59v-521h-59zM86 592l64 138h63l-82 -138h-45z" />
    <glyph glyph-name="icircumflex" unicode="&#xee;" horiz-adv-x="220" 
d="M81 0v521h59v-521h-59zM-25 592l111 138h50l112 -138h-59l-78 100l-78 -100h-58z" />
    <glyph glyph-name="idieresis" unicode="&#xef;" horiz-adv-x="220" 
d="M81 0v521h59v-521h-59zM-3 614v116h56v-116h-56zM168 614v116h57v-116h-57z" />
    <glyph glyph-name="ntilde" unicode="&#xf1;" horiz-adv-x="596" 
d="M81 0v521h55l3 -113h4q26 60 77 90.5t112 30.5q54 0 96.5 -22.5t67 -71.5t24.5 -130v-305h-59v294q0 95 -35.5 139.5t-109.5 44.5q-54 0 -93.5 -26t-61.5 -71t-22 -102v-279h-58zM358 617q-27 1 -47 8t-37.5 14t-37.5 7q-33 0 -56 -30l-26 17q19 33 39 46.5t48 13.5
q20 0 40 -7.5t41 -15t42 -7.5q33 0 56 32l27 -18q-17 -32 -39 -46t-50 -14z" />
    <glyph glyph-name="ograve" unicode="&#xf2;" horiz-adv-x="580" 
d="M291 -8q-74 0 -130 33.5t-87.5 93.5t-31.5 140t31 141t87 95t131 34q74 0 129.5 -33.5t86.5 -94t31 -141.5q0 -79 -31 -139.5t-86 -94.5t-130 -34zM290 44q84 0 135.5 57.5t51.5 158.5q0 99 -49.5 158t-136.5 59q-84 0 -136.5 -58t-52.5 -160q0 -98 51 -156.5t137 -58.5z
M269 592l-82 138h63l64 -138h-45z" />
    <glyph glyph-name="oacute" unicode="&#xf3;" horiz-adv-x="580" 
d="M291 -8q-74 0 -130 33.5t-87.5 93.5t-31.5 140t31 141t87 95t131 34q74 0 129.5 -33.5t86.5 -94t31 -141.5q0 -79 -31 -139.5t-86 -94.5t-130 -34zM290 44q84 0 135.5 57.5t51.5 158.5q0 99 -49.5 158t-136.5 59q-84 0 -136.5 -58t-52.5 -160q0 -98 51 -156.5t137 -58.5z
M265 592l64 138h63l-82 -138h-45z" />
    <glyph glyph-name="ocircumflex" unicode="&#xf4;" horiz-adv-x="580" 
d="M291 -8q-74 0 -130 33.5t-87.5 93.5t-31.5 140t31 141t87 95t131 34q74 0 129.5 -33.5t86.5 -94t31 -141.5q0 -79 -31 -139.5t-86 -94.5t-130 -34zM290 44q84 0 135.5 57.5t51.5 158.5q0 99 -49.5 158t-136.5 59q-84 0 -136.5 -58t-52.5 -160q0 -98 51 -156.5t137 -58.5z
M153 592l111 138h50l112 -138h-59l-78 100l-78 -100h-58z" />
    <glyph glyph-name="otilde" unicode="&#xf5;" horiz-adv-x="580" 
d="M291 -8q-74 0 -130 33.5t-87.5 93.5t-31.5 140t31 141t87 95t131 34q74 0 129.5 -33.5t86.5 -94t31 -141.5q0 -79 -31 -139.5t-86 -94.5t-130 -34zM290 44q84 0 135.5 57.5t51.5 158.5q0 99 -49.5 158t-136.5 59q-84 0 -136.5 -58t-52.5 -160q0 -98 51 -156.5t137 -58.5z
M347 617q-27 1 -47 8t-37.5 14t-37.5 7q-33 0 -56 -30l-26 17q19 33 39 46.5t48 13.5q20 0 40 -7.5t41 -15t42 -7.5q33 0 56 32l27 -18q-17 -32 -39 -46t-50 -14z" />
    <glyph glyph-name="odieresis" unicode="&#xf6;" horiz-adv-x="580" 
d="M291 -8q-74 0 -130 33.5t-87.5 93.5t-31.5 140t31 141t87 95t131 34q74 0 129.5 -33.5t86.5 -94t31 -141.5q0 -79 -31 -139.5t-86 -94.5t-130 -34zM290 44q84 0 135.5 57.5t51.5 158.5q0 99 -49.5 158t-136.5 59q-84 0 -136.5 -58t-52.5 -160q0 -98 51 -156.5t137 -58.5z
M175 614v116h56v-116h-56zM346 614v116h57v-116h-57z" />
    <glyph glyph-name="divide" unicode="&#xf7;" horiz-adv-x="654" 
d="M296 479v71h62v-71h-62zM85 337v48h483v-48h-483zM296 172v71h62v-71h-62z" />
    <glyph glyph-name="oslash" unicode="&#xf8;" horiz-adv-x="580" 
d="M291 -8q-74 0 -130 33.5t-87.5 93.5t-31.5 140t31 141t87 95t131 34q74 0 129.5 -33.5t86.5 -94t31 -141.5q0 -79 -31 -139.5t-86 -94.5t-130 -34zM290 44q84 0 135.5 57.5t51.5 158.5q0 99 -49.5 158t-136.5 59q-84 0 -136.5 -58t-52.5 -160q0 -98 51 -156.5t137 -58.5z
M28 -60l472 641h50l-471 -641h-51z" />
    <glyph glyph-name="ugrave" unicode="&#xf9;" horiz-adv-x="591" 
d="M265 -8q-86 0 -137.5 52.5t-51.5 159.5v317h59v-304q0 -83 34.5 -128.5t113.5 -45.5q51 0 90 25t61 71t22 108v274h59v-521h-55l-4 116h-5q-20 -57 -70.5 -90.5t-115.5 -33.5zM275 592l-82 138h63l64 -138h-45z" />
    <glyph glyph-name="uacute" unicode="&#xfa;" horiz-adv-x="591" 
d="M265 -8q-86 0 -137.5 52.5t-51.5 159.5v317h59v-304q0 -83 34.5 -128.5t113.5 -45.5q51 0 90 25t61 71t22 108v274h59v-521h-55l-4 116h-5q-20 -57 -70.5 -90.5t-115.5 -33.5zM271 592l64 138h63l-82 -138h-45z" />
    <glyph glyph-name="ucircumflex" unicode="&#xfb;" horiz-adv-x="591" 
d="M265 -8q-86 0 -137.5 52.5t-51.5 159.5v317h59v-304q0 -83 34.5 -128.5t113.5 -45.5q51 0 90 25t61 71t22 108v274h59v-521h-55l-4 116h-5q-20 -57 -70.5 -90.5t-115.5 -33.5zM160 592l111 138h50l112 -138h-59l-78 100l-78 -100h-58z" />
    <glyph glyph-name="udieresis" unicode="&#xfc;" horiz-adv-x="591" 
d="M265 -8q-86 0 -137.5 52.5t-51.5 159.5v317h59v-304q0 -83 34.5 -128.5t113.5 -45.5q51 0 90 25t61 71t22 108v274h59v-521h-55l-4 116h-5q-20 -57 -70.5 -90.5t-115.5 -33.5zM182 614v116h56v-116h-56zM353 614v116h57v-116h-57z" />
    <glyph glyph-name="yacute" unicode="&#xfd;" horiz-adv-x="453" 
d="M28 -167v50h50q38 0 59 16t35 51l33 83l-209 488h64l144 -355l27 -69h4l26 69l136 355h61l-232 -588q-21 -53 -53 -76.5t-88 -23.5h-57zM203 592l64 138h63l-82 -138h-45z" />
    <glyph glyph-name="thorn" unicode="&#xfe;" horiz-adv-x="593" 
d="M81 -167v896h59v-322h4q19 55 69 89t121 34q64 0 113 -32t76.5 -92.5t27.5 -145.5q0 -84 -27.5 -144.5t-76.5 -92.5t-113 -32q-71 0 -121 34t-69 89h-5v-281h-58zM317 42q78 0 125.5 56.5t47.5 161.5q0 106 -47.5 162.5t-125.5 56.5q-57 0 -96.5 -26.5t-60 -68.5
t-20.5 -90v-67q0 -48 20.5 -90t60 -68.5t96.5 -26.5z" />
    <glyph glyph-name="ydieresis" unicode="&#xff;" horiz-adv-x="453" 
d="M28 -167v50h50q38 0 59 16t35 51l33 83l-209 488h64l144 -355l27 -69h4l26 69l136 355h61l-232 -588q-21 -53 -53 -76.5t-88 -23.5h-57zM113 614v116h56v-116h-56zM284 614v116h57v-116h-57z" />
    <glyph glyph-name="dotlessi" unicode="&#x131;" horiz-adv-x="220" 
d="M81 0v521h59v-521h-59z" />
    <glyph glyph-name="OE" unicode="&#x152;" horiz-adv-x="1134" 
d="M368 0q-102 0 -174.5 45.5t-111 127.5t-38.5 192t38.5 191.5t111 127t174.5 45.5h713v-55h-429v-274h381v-52h-381v-292h430v-56h-714zM374 55h216v618h-216q-124 0 -195 -82t-71 -227q0 -149 72.5 -229t193.5 -80z" />
    <glyph glyph-name="oe" unicode="&#x153;" horiz-adv-x="992" 
d="M291 -8q-74 0 -130 33.5t-87.5 93.5t-31.5 140t31 141t87 95t131 34t131.5 -36t85.5 -98q27 62 81.5 98t129.5 36q82 0 135.5 -36t77 -99t15.5 -142h-409q2 -101 52 -156t132 -55q67 0 110.5 31.5t55.5 83.5h58q-8 -50 -39 -87t-79 -57t-106 -20q-76 0 -131.5 35.5
t-82.5 98.5q-29 -62 -85 -98t-132 -36zM719 480q-77 0 -126.5 -48t-54.5 -136h352q-1 93 -48.5 138.5t-122.5 45.5zM290 44q84 0 135.5 57.5t51.5 158.5q0 99 -49.5 158t-136.5 59q-84 0 -136.5 -58t-52.5 -160q0 -98 51 -156.5t137 -58.5z" />
    <glyph glyph-name="Wcircumflex" unicode="&#x174;" horiz-adv-x="923" 
d="M179 0l-169 729h67l99 -440l48 -221h6l190 661h83l191 -662h6l47 222l99 440h67l-169 -729h-88l-192 657h-5l-193 -657h-87zM326 800l111 138h50l112 -138h-59l-78 100l-78 -100h-58z" />
    <glyph glyph-name="wcircumflex" unicode="&#x175;" horiz-adv-x="700" 
d="M147 0l-138 521h57l121 -465h3l111 465h76l119 -465h2l118 465h56l-138 -521h-78l-115 447h-4l-107 -447h-83zM214 592l111 138h50l112 -138h-59l-78 100l-78 -100h-58z" />
    <glyph glyph-name="Ycircumflex" unicode="&#x176;" horiz-adv-x="613" 
d="M274 0v296l-270 433h71l229 -373h4l230 373h70l-272 -433v-296h-62zM170 800l111 138h50l112 -138h-59l-78 100l-78 -100h-58z" />
    <glyph glyph-name="ycircumflex" unicode="&#x177;" horiz-adv-x="453" 
d="M28 -167v50h50q38 0 59 16t35 51l33 83l-209 488h64l144 -355l27 -69h4l26 69l136 355h61l-232 -588q-21 -53 -53 -76.5t-88 -23.5h-57zM91 592l111 138h50l112 -138h-59l-78 100l-78 -100h-58z" />
    <glyph glyph-name="Ydieresis" unicode="&#x178;" horiz-adv-x="613" 
d="M274 0v296l-270 433h71l229 -373h4l230 373h70l-272 -433v-296h-62zM192 822v116h56v-116h-56zM363 822v116h57v-116h-57z" />
    <glyph glyph-name="uni0237" unicode="&#x237;" horiz-adv-x="213" 
d="M-34 -177v48h45q33 0 47.5 16.5t14.5 54.5v579h59v-587q0 -50 -25 -80.5t-79 -30.5h-62z" />
    <glyph glyph-name="circumflex" unicode="&#x2c6;" horiz-adv-x="500" 
d="M114 744l111 138h50l112 -138h-59l-78 100l-78 -100h-58z" />
    <glyph glyph-name="caron" unicode="&#x2c7;" horiz-adv-x="353" 
d="M151 744l-111 138h58l78 -100l78 100h59l-112 -138h-50z" />
    <glyph glyph-name="breve" unicode="&#x2d8;" horiz-adv-x="360" 
d="M180 739q-67 0 -103 36.5t-37 102.5h50q0 -98 90 -98q44 0 68 25.5t23 72.5h49q0 -66 -36 -102.5t-104 -36.5z" />
    <glyph glyph-name="dotaccent" unicode="&#x2d9;" horiz-adv-x="500" 
d="M221 766v117h59v-117h-59z" />
    <glyph glyph-name="ring" unicode="&#x2da;" horiz-adv-x="500" 
d="M250 750q-44 0 -71 25.5t-27 67.5q0 43 27 68.5t71 25.5t71 -25.5t27 -68.5q0 -42 -27 -67.5t-71 -25.5zM250 786q26 0 42 16t16 41q0 26 -16 41.5t-42 15.5t-42 -15.5t-16 -41.5q0 -25 16 -41t42 -16z" />
    <glyph glyph-name="ogonek" unicode="&#x2db;" horiz-adv-x="229" 
d="M127 -164q-42 0 -67 22t-25 60q0 35 20.5 60.5t46.5 32.5l37 -11q-26 -9 -41 -27.5t-15 -43.5t15 -39t40 -14q32 0 51 11v-40q-21 -11 -62 -11z" />
    <glyph glyph-name="tilde" unicode="&#x2dc;" horiz-adv-x="500" 
d="M308 769q-27 1 -47 8t-37.5 14t-37.5 7q-33 0 -56 -30l-26 17q19 33 39 46.5t48 13.5q20 0 40 -7.5t41 -15t42 -7.5q33 0 56 32l27 -18q-17 -32 -39 -46t-50 -14z" />
    <glyph glyph-name="hungarumlaut" unicode="&#x2dd;" horiz-adv-x="354" 
d="M40 744l64 138h61l-81 -138h-44zM181 744l69 138h64l-87 -138h-46z" />
    <glyph glyph-name="gravecomb" unicode="&#x300;" horiz-adv-x="0" 
d="M269 744l-82 138h63l64 -138h-45z" />
    <glyph glyph-name="acutecomb" unicode="&#x301;" horiz-adv-x="0" 
d="M187 744l64 138h63l-82 -138h-45z" />
    <glyph glyph-name="uni0302" unicode="&#x302;" horiz-adv-x="0" 
d="M114 744l111 138h50l112 -138h-59l-78 100l-78 -100h-58z" />
    <glyph glyph-name="tildecomb" unicode="&#x303;" horiz-adv-x="0" 
d="M308 769q-27 1 -47 8t-37.5 14t-37.5 7q-33 0 -56 -30l-26 17q19 33 39 46.5t48 13.5q20 0 40 -7.5t41 -15t42 -7.5q33 0 56 32l27 -18q-17 -32 -39 -46t-50 -14z" />
    <glyph glyph-name="uni0304" unicode="&#x304;" horiz-adv-x="0" 
d="M57 775v48h295v-48h-295z" />
    <glyph glyph-name="uni0306" unicode="&#x306;" horiz-adv-x="0" 
d="M180 739q-67 0 -103 36.5t-37 102.5h50q0 -98 90 -98q44 0 68 25.5t23 72.5h49q0 -66 -36 -102.5t-104 -36.5z" />
    <glyph glyph-name="uni0307" unicode="&#x307;" horiz-adv-x="0" 
d="M221 766v117h59v-117h-59z" />
    <glyph glyph-name="uni0308" unicode="&#x308;" horiz-adv-x="0" 
d="M136 766v116h56v-116h-56zM307 766v116h57v-116h-57z" />
    <glyph glyph-name="uni030A" unicode="&#x30a;" horiz-adv-x="0" 
d="M250 750q-44 0 -71 25.5t-27 67.5q0 43 27 68.5t71 25.5t71 -25.5t27 -68.5q0 -42 -27 -67.5t-71 -25.5zM250 786q26 0 42 16t16 41q0 26 -16 41.5t-42 15.5t-42 -15.5t-16 -41.5q0 -25 16 -41t42 -16z" />
    <glyph glyph-name="uni030B" unicode="&#x30b;" horiz-adv-x="0" 
d="M40 744l64 138h61l-81 -138h-44zM181 744l69 138h64l-87 -138h-46z" />
    <glyph glyph-name="uni030C" unicode="&#x30c;" horiz-adv-x="0" 
d="M151 744l-111 138h58l78 -100l78 100h59l-112 -138h-50z" />
    <glyph glyph-name="uni0327" unicode="&#x327;" horiz-adv-x="0" 
d="M250 -217q-40 0 -64.5 19.5t-24.5 52.5h42q1 -15 13.5 -25.5t31.5 -10.5q22 0 34.5 13t12.5 34q0 45 -47 45h-30v96h41v-67q41 -1 61 -22t20 -54q0 -39 -25 -60t-65 -21z" />
    <glyph glyph-name="uni0328" unicode="&#x328;" horiz-adv-x="0" 
d="M127 -164q-42 0 -67 22t-25 60q0 35 20.5 60.5t46.5 32.5l37 -11q-26 -9 -41 -27.5t-15 -43.5t15 -39t40 -14q32 0 51 11v-40q-21 -11 -62 -11z" />
    <glyph glyph-name="uni0337" unicode="&#x337;" horiz-adv-x="0" 
d="M70 -60l472 641h50l-471 -641h-51z" />
    <glyph glyph-name="uni0338" unicode="&#x338;" horiz-adv-x="0" 
d="M50 -81l597 810h53l-594 -810h-56z" />
    <glyph glyph-name="uni03BC" unicode="&#x3bc;" horiz-adv-x="590" 
d="M76 -132v653h59v-332q0 -70 40 -108t112 -38q88 0 128 56t40 148v274h59v-521h-55l-4 116h-4q-23 -63 -71.5 -93.5t-112.5 -30.5q-42 0 -77 13.5t-55 38.5v-176h-59z" />
    <glyph glyph-name="pi" unicode="&#x3c0;" horiz-adv-x="561" 
d="M493 -7q-54 0 -75.5 32t-21.5 82v364h-236v-471h-58v471h-90v50h531v-50h-88v-345q0 -39 10 -61t42 -22q11 0 19.5 2.5t15.5 5.5v-49q-16 -9 -49 -9z" />
    <glyph glyph-name="Wgrave" unicode="&#x1e80;" horiz-adv-x="923" 
d="M179 0l-169 729h67l99 -440l48 -221h6l190 661h83l191 -662h6l47 222l99 440h67l-169 -729h-88l-192 657h-5l-193 -657h-87zM441 800l-82 138h63l64 -138h-45z" />
    <glyph glyph-name="wgrave" unicode="&#x1e81;" horiz-adv-x="700" 
d="M147 0l-138 521h57l121 -465h3l111 465h76l119 -465h2l118 465h56l-138 -521h-78l-115 447h-4l-107 -447h-83zM330 592l-82 138h63l64 -138h-45z" />
    <glyph glyph-name="Wacute" unicode="&#x1e82;" horiz-adv-x="923" 
d="M179 0l-169 729h67l99 -440l48 -221h6l190 661h83l191 -662h6l47 222l99 440h67l-169 -729h-88l-192 657h-5l-193 -657h-87zM437 800l64 138h63l-82 -138h-45z" />
    <glyph glyph-name="wacute" unicode="&#x1e83;" horiz-adv-x="700" 
d="M147 0l-138 521h57l121 -465h3l111 465h76l119 -465h2l118 465h56l-138 -521h-78l-115 447h-4l-107 -447h-83zM326 592l64 138h63l-82 -138h-45z" />
    <glyph glyph-name="Wdieresis" unicode="&#x1e84;" horiz-adv-x="923" 
d="M179 0l-169 729h67l99 -440l48 -221h6l190 661h83l191 -662h6l47 222l99 440h67l-169 -729h-88l-192 657h-5l-193 -657h-87zM348 822v116h56v-116h-56zM519 822v116h57v-116h-57z" />
    <glyph glyph-name="wdieresis" unicode="&#x1e85;" horiz-adv-x="700" 
d="M147 0l-138 521h57l121 -465h3l111 465h76l119 -465h2l118 465h56l-138 -521h-78l-115 447h-4l-107 -447h-83zM236 614v116h56v-116h-56zM407 614v116h57v-116h-57z" />
    <glyph glyph-name="uni1E9E" unicode="&#x1e9e;" horiz-adv-x="653" 
d="M98 0v729h462v-70l-186 -234v-7h4q115 0 172 -56t57 -150q0 -99 -63 -155.5t-175 -56.5h-140v52h134q94 0 136.5 46.5t42.5 116.5q0 76 -43.5 119.5t-142.5 43.5h-55v38l203 258h-343v-674h-63z" />
    <glyph glyph-name="Ygrave" unicode="&#x1ef2;" horiz-adv-x="613" 
d="M274 0v296l-270 433h71l229 -373h4l230 373h70l-272 -433v-296h-62zM285 800l-82 138h63l64 -138h-45z" />
    <glyph glyph-name="ygrave" unicode="&#x1ef3;" horiz-adv-x="453" 
d="M28 -167v50h50q38 0 59 16t35 51l33 83l-209 488h64l144 -355l27 -69h4l26 69l136 355h61l-232 -588q-21 -53 -53 -76.5t-88 -23.5h-57zM207 592l-82 138h63l64 -138h-45z" />
    <glyph glyph-name="endash" unicode="&#x2013;" horiz-adv-x="436" 
d="M30 235v51h376v-51h-376z" />
    <glyph glyph-name="emdash" unicode="&#x2014;" horiz-adv-x="598" 
d="M30 235v51h538v-51h-538z" />
    <glyph glyph-name="quoteleft" unicode="&#x2018;" horiz-adv-x="182" 
d="M140 729v-36l-9 -1q-21 -2 -28.5 -17.5t-7.5 -38.5v-57h30v-76h-65v138q0 44 16.5 64.5t49.5 22.5z" />
    <glyph glyph-name="quoteright" unicode="&#x2019;" horiz-adv-x="182" 
d="M42 503v36l9 1q21 2 28.5 17t7.5 39v57h-29v76h64v-139q0 -44 -16.5 -64t-49.5 -23h-14z" />
    <glyph glyph-name="quotesinglbase" unicode="&#x201a;" horiz-adv-x="182" 
d="M42 -150v36l9 1q21 2 28.5 17t7.5 39v57h-29v76h64v-139q0 -44 -16.5 -64t-49.5 -23h-14z" />
    <glyph glyph-name="quotedblleft" unicode="&#x201c;" horiz-adv-x="329" 
d="M287 729v-36l-9 -1q-21 -2 -28.5 -17.5t-7.5 -38.5v-57h29v-76h-64v138q0 44 16.5 64.5t49.5 22.5zM140 729v-36l-9 -1q-21 -2 -28.5 -17.5t-7.5 -38.5v-57h30v-76h-65v138q0 44 16.5 64.5t49.5 22.5z" />
    <glyph glyph-name="quotedblright" unicode="&#x201d;" horiz-adv-x="329" 
d="M42 503v36l9 1q21 2 28.5 17t7.5 39v57h-29v76h64v-139q0 -44 -16.5 -64t-49.5 -23h-14zM189 503v36l9 1q21 2 28.5 17t7.5 39v57h-29v76h64v-139q0 -44 -16.5 -64t-49.5 -23h-14z" />
    <glyph glyph-name="quotedblbase" unicode="&#x201e;" horiz-adv-x="329" 
d="M42 -150v36l9 1q21 2 28.5 17t7.5 39v57h-29v76h64v-139q0 -44 -16.5 -64t-49.5 -23h-14zM189 -150v36l9 1q21 2 28.5 17t7.5 39v57h-29v76h64v-139q0 -44 -16.5 -64t-49.5 -23h-14z" />
    <glyph glyph-name="bullet" unicode="&#x2022;" horiz-adv-x="338" 
d="M57 277q0 48 32 79.5t81 31.5q51 0 81.5 -31.5t30.5 -79.5q0 -47 -30.5 -78.5t-81.5 -31.5q-49 0 -81 31.5t-32 78.5z" />
    <glyph glyph-name="ellipsis" unicode="&#x2026;" horiz-adv-x="555" 
d="M60 0v76h65v-76h-65zM245 0v76h65v-76h-65zM430 0v76h65v-76h-65z" />
    <glyph glyph-name="perthousand" unicode="&#x2030;" horiz-adv-x="1186" 
d="M165 0l461 729h54l-462 -729h-53zM187 324q-65 0 -103.5 52.5t-38.5 148.5q0 98 39 149t103 51t102 -52t38 -148q0 -98 -39 -149.5t-101 -51.5zM187 366q42 0 66.5 38.5t24.5 120.5q0 81 -24.5 119.5t-66.5 38.5q-44 0 -68.5 -38.5t-24.5 -119.5t24.5 -120t68.5 -39z
M659 -5q-65 0 -103 52.5t-38 149.5q0 96 38.5 148t103.5 52q63 0 101.5 -52.5t38.5 -149.5t-39 -148.5t-102 -51.5zM1001 -5q-65 0 -103.5 52.5t-38.5 149.5q0 96 39 148t103 52t102 -52.5t38 -149.5t-39 -148.5t-101 -51.5zM660 37q41 0 65.5 38t24.5 121q0 82 -24.5 120
t-65.5 38q-44 0 -68.5 -38t-24.5 -120t24.5 -120.5t68.5 -38.5zM1001 37q42 0 66 38t24 121q0 82 -24 120t-66 38q-44 0 -68.5 -38t-24.5 -120t24.5 -120.5t68.5 -38.5z" />
    <glyph glyph-name="guilsinglleft" unicode="&#x2039;" horiz-adv-x="239" 
d="M159 0l-122 261l122 260h51l-117 -260l117 -261h-51z" />
    <glyph glyph-name="guilsinglright" unicode="&#x203a;" horiz-adv-x="239" 
d="M81 521l121 -261l-121 -260h-52l117 260l-117 261h52z" />
    <glyph glyph-name="fraction" unicode="&#x2044;" horiz-adv-x="115" 
d="M-217 0l496 721h53l-497 -721h-52z" />
    <glyph glyph-name="uni2070" unicode="&#x2070;" horiz-adv-x="351" 
d="M176 320q-70 0 -111.5 58t-41.5 164q0 109 42 165t112 56q68 0 109.5 -57t41.5 -164q0 -108 -42 -165t-110 -57zM176 362q49 0 77 44.5t28 135.5t-28 136t-77 45q-50 0 -78 -45t-28 -136q0 -90 28 -135t78 -45z" />
    <glyph glyph-name="uni2074" unicode="&#x2074;" horiz-adv-x="376" 
d="M246 326v110h-218v38l200 285h64v-283h61v-40h-61v-110h-46zM78 476h168v238z" />
    <glyph glyph-name="uni2075" unicode="&#x2075;" horiz-adv-x="357" 
d="M176 321q-65 0 -104.5 37.5t-38.5 99.5h46q0 -44 27 -69.5t70 -25.5q48 0 74.5 28.5t26.5 75.5q0 49 -27 77.5t-72 28.5q-34 0 -57.5 -15t-34.5 -39h-44l9 240h253v-42h-211l-7 -149l2 -1q15 21 41.5 33.5t58.5 12.5q63 0 100.5 -40.5t37.5 -103.5q0 -67 -41 -107.5
t-109 -40.5z" />
    <glyph glyph-name="uni2076" unicode="&#x2076;" horiz-adv-x="353" 
d="M180 321q-76 0 -113.5 52t-37.5 148q0 126 39.5 184.5t117.5 58.5q60 0 95 -30t40 -81h-45q-4 33 -28 51t-62 18q-65 0 -87 -51.5t-23 -138.5h3q10 34 40.5 55t73.5 21q59 0 96.5 -39t37.5 -103q0 -68 -41 -106.5t-106 -38.5zM182 363q43 0 69.5 28.5t26.5 75.5
q0 48 -26 76t-69 28q-46 0 -72.5 -31t-26.5 -76q0 -47 27 -74t71 -27z" />
    <glyph glyph-name="uni2077" unicode="&#x2077;" horiz-adv-x="349" 
d="M123 326q0 88 19.5 156.5t51 125.5t67.5 109h-196v-90h-39v132h291v-33q-38 -56 -70.5 -113.5t-52.5 -126.5t-20 -160h-51z" />
    <glyph glyph-name="uni2078" unicode="&#x2078;" horiz-adv-x="359" 
d="M180 321q-68 0 -110.5 32.5t-42.5 85.5q0 39 25 69t68 35v3q-45 7 -65 37t-20 65q0 52 39.5 83.5t105.5 31.5q67 0 106 -32t39 -84q0 -33 -19.5 -64t-65.5 -37v-3q45 -5 68.5 -34t23.5 -69q0 -54 -42 -86.5t-110 -32.5zM180 564q52 0 74.5 23.5t22.5 55.5q0 38 -27 59.5
t-70 21.5q-45 0 -71 -21.5t-26 -59.5q0 -34 23.5 -56.5t73.5 -22.5zM180 363q46 0 73.5 22.5t27.5 60.5q0 34 -24.5 56t-76.5 22q-53 0 -77 -23.5t-24 -54.5q0 -39 27.5 -61t73.5 -22z" />
    <glyph glyph-name="uni2079" unicode="&#x2079;" horiz-adv-x="353" 
d="M171 321q-58 0 -93.5 30.5t-40.5 80.5h46q3 -30 26 -49.5t62 -19.5q44 0 66.5 23.5t30.5 66.5t9 100h-3q-10 -33 -40 -54t-75 -21q-59 0 -96 39t-37 103q0 67 41 105.5t105 38.5q77 0 114.5 -52.5t37.5 -149.5q0 -134 -39.5 -187.5t-113.5 -53.5zM170 515q46 0 72.5 30.5
t26.5 76.5t-27 73t-72 27q-43 0 -69 -28.5t-26 -76.5q0 -47 26 -74.5t69 -27.5z" />
    <glyph glyph-name="uni2080" unicode="&#x2080;" horiz-adv-x="351" 
d="M176 -36q-70 0 -111.5 58t-41.5 164q0 109 42 165t112 56q68 0 109.5 -57t41.5 -164q0 -108 -42 -165t-110 -57zM176 6q49 0 77 44.5t28 135.5t-28 136t-77 45q-50 0 -78 -45t-28 -136q0 -90 28 -135t78 -45z" />
    <glyph glyph-name="uni2081" unicode="&#x2081;" horiz-adv-x="234" 
d="M123 -30v326h-102v36h16q44 0 64 19.5t23 51.5h46v-433h-47z" />
    <glyph glyph-name="uni2082" unicode="&#x2082;" horiz-adv-x="338" 
d="M27 -30v10q0 41 16.5 71t42.5 53.5t55 43.5t54.5 39.5t42 42.5t16.5 52q0 39 -24.5 61.5t-64.5 22.5q-41 0 -67.5 -24.5t-24.5 -68.5h-45q-2 61 37.5 98t102.5 37q61 0 97.5 -34t36.5 -89q0 -40 -20.5 -70t-51.5 -54t-62.5 -46t-55 -46.5t-28.5 -56.5h224v-42h-281z" />
    <glyph glyph-name="uni2083" unicode="&#x2083;" horiz-adv-x="346" 
d="M167 -35q-66 0 -104 38t-38 99h46q-1 -41 24.5 -68.5t71.5 -27.5q45 0 71.5 23.5t26.5 63.5q0 41 -25 61.5t-64 20.5h-44v37h42q41 0 62.5 22.5t21.5 55.5q0 37 -25 57t-64 20q-45 0 -69.5 -26.5t-25.5 -68.5h-45q-1 61 38 98.5t104 37.5q62 0 99 -30.5t37 -81.5
q0 -40 -20.5 -65.5t-50.5 -34.5v-3q35 -8 56.5 -34.5t21.5 -69.5q0 -56 -40.5 -90t-106.5 -34z" />
    <glyph glyph-name="uni2084" unicode="&#x2084;" horiz-adv-x="376" 
d="M246 -30v110h-218v38l200 285h64v-283h61v-40h-61v-110h-46zM78 120h168v238z" />
    <glyph glyph-name="uni2085" unicode="&#x2085;" horiz-adv-x="357" 
d="M176 -35q-65 0 -104.5 37.5t-38.5 99.5h46q0 -44 27 -69.5t70 -25.5q48 0 74.5 28.5t26.5 75.5q0 49 -27 77.5t-72 28.5q-34 0 -57.5 -15t-34.5 -39h-44l9 240h253v-42h-211l-7 -149l2 -1q15 21 41.5 33.5t58.5 12.5q63 0 100.5 -40t37.5 -104q0 -67 -41 -107.5
t-109 -40.5z" />
    <glyph glyph-name="uni2086" unicode="&#x2086;" horiz-adv-x="353" 
d="M180 -35q-76 0 -113.5 52t-37.5 148q0 126 39.5 184.5t117.5 58.5q60 0 95 -30t40 -81h-45q-4 33 -28 51t-62 18q-65 0 -87 -51.5t-23 -138.5h3q10 34 40.5 55t73.5 21q59 0 96.5 -39t37.5 -103q0 -68 -41 -106.5t-106 -38.5zM182 7q43 0 69.5 28.5t26.5 75.5
q0 48 -26 76t-69 28q-46 0 -72.5 -31t-26.5 -76q0 -47 27 -74t71 -27z" />
    <glyph glyph-name="uni2087" unicode="&#x2087;" horiz-adv-x="349" 
d="M123 -30q0 88 19.5 156.5t51 125.5t67.5 109h-196v-90h-39v132h291v-33q-38 -56 -70.5 -113.5t-52.5 -126.5t-20 -160h-51z" />
    <glyph glyph-name="uni2088" unicode="&#x2088;" horiz-adv-x="359" 
d="M180 -35q-68 0 -110.5 32.5t-42.5 85.5q0 39 25 69t68 35v3q-45 7 -65 37t-20 65q0 52 39.5 83.5t105.5 31.5q67 0 106 -32t39 -84q0 -33 -19.5 -64t-65.5 -37v-3q45 -5 68.5 -34t23.5 -69q0 -54 -42 -86.5t-110 -32.5zM180 208q52 0 74.5 23.5t22.5 55.5q0 38 -27 59.5
t-70 21.5q-45 0 -71 -22t-26 -59q0 -34 23.5 -56.5t73.5 -22.5zM180 7q46 0 73.5 22.5t27.5 60.5q0 34 -24.5 56t-76.5 22q-53 0 -77 -23.5t-24 -54.5q0 -39 27.5 -61t73.5 -22z" />
    <glyph glyph-name="uni2089" unicode="&#x2089;" horiz-adv-x="353" 
d="M171 -35q-58 0 -93.5 30.5t-40.5 80.5h46q3 -30 26 -49.5t62 -19.5q44 0 66.5 23.5t30.5 66.5t9 100h-3q-10 -33 -40 -54t-75 -21q-59 0 -96 39t-37 103q0 67 41 105.5t105 38.5q77 0 114.5 -52.5t37.5 -149.5q0 -134 -39.5 -187.5t-113.5 -53.5zM170 159q46 0 72.5 30.5
t26.5 76.5t-27 73t-72 27q-43 0 -69 -28.5t-26 -76.5q0 -47 26 -74.5t69 -27.5z" />
    <glyph glyph-name="uni20AA" unicode="&#x20aa;" horiz-adv-x="790" 
d="M357 0q-37 0 -57.5 17.5t-20.5 61.5v488h53v-514h303v676h57v-729h-335zM98 0v729h336q37 0 57 -17t20 -61v-488h-53v513h-303v-676h-57z" />
    <glyph glyph-name="Euro" unicode="&#x20ac;" horiz-adv-x="829" 
d="M44 249v41h74q-6 36 -6 74q0 39 6 75h-74v40h82q30 119 118.5 188t217.5 69q86 0 154.5 -30t112.5 -85t56 -130h-64q-11 55 -45.5 98t-89 67t-124.5 24q-104 0 -173.5 -53t-95.5 -148h295l-6 -40h-298q-6 -35 -6 -75q0 -39 6 -74h276l-6 -41h-261q26 -94 95.5 -147.5
t173.5 -53.5q106 0 175 52.5t84 140.5l64 -1q-10 -76 -53.5 -131.5t-113 -86t-156.5 -30.5q-129 0 -217.5 69t-118.5 188h-82z" />
    <glyph glyph-name="uni20B9" unicode="&#x20b9;" horiz-adv-x="643" 
d="M503 0q-4 3 -10 16t-9 29l-22 146q-8 51 -29 77t-51 35t-65 9h-219v51h226q88 0 131.5 35t49.5 98h-407v44h407q-9 71 -54.5 104t-120.5 33h-232v52h546v-47h-167v-3q37 -15 63.5 -53t28.5 -85h75v-46h-74q-6 -62 -47 -104t-105 -55v-6q90 -19 106 -128l20 -138
q4 -25 10.5 -37t13.5 -15v-12h-65z" />
    <glyph glyph-name="uni20BA" unicode="&#x20ba;" horiz-adv-x="592" 
d="M120 0v313l-98 -39v51l98 39v116l-98 -40v50l98 40v199h60v-176l216 88v-51l-216 -88v-115l216 88v-51l-216 -88v-279q147 0 225 72.5t95 193.5h60q-20 -161 -120.5 -242t-264.5 -81h-55z" />
    <glyph glyph-name="uni20BF" unicode="&#x20bf;" horiz-adv-x="676" 
d="M98 0v729h124v85h43v-85h112v85h43v-86q91 -6 140.5 -56.5t49.5 -128.5q0 -59 -30 -104.5t-93 -60.5v-4q71 -13 107 -61t36 -111q0 -86 -56 -139.5t-154 -61.5v-86h-44v85h-111v-85h-43v85h-124zM159 399h239q73 0 111 37t38 98q0 67 -44.5 105t-117.5 38h-226v-278z
M159 53h227q89 0 133.5 42t44.5 110q0 67 -42 105t-121 38h-242v-295z" />
    <glyph glyph-name="uni2117" unicode="&#x2117;" horiz-adv-x="821" 
d="M410 -10q-112 0 -197 47t-132.5 131t-47.5 195q0 112 47.5 196t132.5 130.5t197 46.5q113 0 198.5 -46.5t133 -130.5t47.5 -196q0 -111 -47.5 -195t-133 -131t-198.5 -47zM410 27q101 0 177.5 42t119 118t42.5 176q0 101 -42.5 177t-119 118.5t-177.5 42.5
q-100 0 -176 -42.5t-118.5 -118.5t-42.5 -177q0 -100 42.5 -176t118.5 -118t176 -42zM292 165v397h158q65 0 102 -32.5t37 -90.5q0 -56 -37 -90t-103 -34h-110v-150h-47zM441 523h-102v-172h102q46 0 72.5 22.5t26.5 64.5t-27 63.5t-72 21.5z" />
    <glyph glyph-name="trademark" unicode="&#x2122;" horiz-adv-x="719" 
d="M315 418v311h61l114 -255h3l113 255h63v-311h-45l-1 142l3 112h-3l-113 -254h-37l-113 254h-2l1 -112v-142h-44zM111 418v271h-106v40h261v-40h-110v-271h-45z" />
    <glyph glyph-name="oneeighth" unicode="&#x215b;" horiz-adv-x="661" 
d="M103 327v296h-94v33h15q40 0 58.5 18t21.5 47h41v-394h-42zM-9 0l496 721h53l-497 -721h-52zM493 -4q-62 0 -100.5 29t-38.5 78q0 34 21.5 61.5t62.5 33.5v1q-37 6 -57 32t-20 62q0 47 35.5 76t96.5 29t97 -29t36 -77q0 -33 -19 -59.5t-59 -33.5v-1q41 -4 62.5 -31
t21.5 -63q0 -49 -38.5 -78.5t-100.5 -29.5zM493 217q47 0 67.5 21t20.5 50q0 35 -24 54t-64 19t-63.5 -19.5t-23.5 -53.5q0 -31 21 -51t66 -20zM493 34q42 0 67.5 20.5t25.5 54.5q0 31 -22.5 51t-70.5 20t-70 -21.5t-22 -49.5q0 -35 25 -55t67 -20z" />
    <glyph glyph-name="threeeighths" unicode="&#x215c;" horiz-adv-x="776" 
d="M157 322q-60 0 -95.5 36t-34.5 90h42q0 -40 24.5 -64t63.5 -24q40 0 65 22t25 57q0 34 -22.5 54t-60.5 20h-40v35h39q37 0 57 20.5t20 50.5q0 32 -23 50.5t-58 18.5q-38 0 -62.5 -23.5t-24.5 -62.5h-41q-1 59 37 91.5t92 32.5t89.5 -27.5t35.5 -74.5q0 -34 -17.5 -58
t-47.5 -34v-2q36 -9 53.5 -34.5t17.5 -60.5q0 -49 -37.5 -81t-96.5 -32zM107 0l496 721h53l-497 -721h-52zM608 -4q-62 0 -100.5 29t-38.5 78q0 34 21.5 61.5t62.5 33.5v1q-37 6 -57 32t-20 62q0 47 35.5 76t96.5 29t97 -29t36 -77q0 -33 -19 -59.5t-59 -33.5v-1
q41 -4 62.5 -31t21.5 -63q0 -49 -38.5 -78.5t-100.5 -29.5zM608 217q47 0 67.5 21t20.5 50q0 35 -24 54t-64 19t-63.5 -19.5t-23.5 -53.5q0 -31 21 -51t66 -20zM608 34q42 0 67.5 20.5t25.5 54.5q0 31 -22.5 51t-70.5 20t-70 -21.5t-22 -49.5q0 -35 25 -55t67 -20z" />
    <glyph glyph-name="fiveeighths" unicode="&#x215d;" horiz-adv-x="786" 
d="M164 322q-59 0 -95 36t-35 89h43q-1 -38 24 -62t64 -24q41 0 66.5 26.5t25.5 68.5q0 41 -25 68t-65 27q-31 0 -53 -13.5t-31 -35.5h-41l9 219h230v-38h-192l-6 -135l3 -1q12 19 36 30t53 11q55 0 91 -37t36 -94q0 -59 -38.5 -97t-99.5 -38zM117 0l496 721h53l-497 -721
h-52zM618 -4q-62 0 -100.5 29t-38.5 78q0 34 21.5 61.5t62.5 33.5v1q-37 6 -57 32t-20 62q0 47 35.5 76t96.5 29t97 -29t36 -77q0 -33 -19 -59.5t-59 -33.5v-1q41 -4 62.5 -31t21.5 -63q0 -49 -38.5 -78.5t-100.5 -29.5zM618 217q47 0 67.5 21t20.5 50q0 35 -24 54t-64 19
t-63.5 -19.5t-23.5 -53.5q0 -31 21 -51t66 -20zM618 34q42 0 67.5 20.5t25.5 54.5q0 31 -22.5 51t-70.5 20t-70 -21.5t-22 -49.5q0 -35 25 -55t67 -20z" />
    <glyph glyph-name="seveneighths" unicode="&#x215e;" horiz-adv-x="687" 
d="M98 327q0 81 18 143t46.5 113.5t60.5 99.5h-179v-82h-35v120h266v-31q-35 -51 -64.5 -102.5t-47.5 -114t-18 -146.5h-47zM18 0l496 721h53l-497 -721h-52zM519 -4q-62 0 -100.5 29t-38.5 78q0 34 21.5 61.5t62.5 33.5v1q-37 6 -57 32t-20 62q0 47 35.5 76t96.5 29t97 -29
t36 -77q0 -33 -19 -59.5t-59 -33.5v-1q41 -4 62.5 -31t21.5 -63q0 -49 -38.5 -78.5t-100.5 -29.5zM519 217q47 0 67.5 21t20.5 50q0 35 -24 54t-64 19t-63.5 -19.5t-23.5 -53.5q0 -31 21 -51t66 -20zM519 34q42 0 67.5 20.5t25.5 54.5q0 31 -22.5 51t-70.5 20t-70 -21.5
t-22 -49.5q0 -35 25 -55t67 -20z" />
    <glyph glyph-name="arrowleft" unicode="&#x2190;" horiz-adv-x="746" 
d="M643 392v-54h-466l118 -163h-59l-138 190l138 190h59l-118 -163h466z" />
    <glyph glyph-name="arrowup" unicode="&#x2191;" horiz-adv-x="519" 
d="M233 92v466l-163 -119v60l190 138l190 -138v-60l-163 119v-466h-54z" />
    <glyph glyph-name="arrowright" unicode="&#x2192;" horiz-adv-x="746" 
d="M103 392h466l-118 163h59l138 -190l-138 -190h-59l118 163h-466v54z" />
    <glyph glyph-name="arrowdown" unicode="&#x2193;" horiz-adv-x="502" 
d="M233 637h54v-466l163 119v-60l-190 -138l-190 138v60l163 -119v466z" />
    <glyph glyph-name="arrowboth" unicode="&#x2194;" horiz-adv-x="829" 
d="M209 175l-138 190l138 190h60l-118 -163h528l-119 163h60l138 -190l-138 -190h-60l119 163h-528l118 -163h-60z" />
    <glyph glyph-name="emptyset" unicode="&#x2205;" horiz-adv-x="799" 
d="M400 -9q-76 0 -142.5 27.5t-117 77.5t-79 118.5t-28.5 151.5q0 82 28.5 150t79 117.5t117 77t142.5 27.5t142 -27.5t116.5 -77.5t79.5 -118t29 -149q0 -83 -29 -151.5t-79.5 -118.5t-116.5 -77.5t-142 -27.5zM107 209l566 346q-44 68 -116 108t-157 40q-67 0 -126.5 -25
t-105 -70.5t-71 -107t-25.5 -134.5q0 -43 9 -83t26 -74zM400 26q67 0 126 25.5t104.5 71t71.5 107.5t26 136q0 43 -9.5 82.5t-26.5 74.5l-567 -345q44 -70 117 -111t158 -41z" />
    <glyph glyph-name="product" unicode="&#x220f;" horiz-adv-x="773" 
d="M98 -151v880h577v-880h-62v823h-453v-823h-62z" />
    <glyph glyph-name="summation" unicode="&#x2211;" horiz-adv-x="679" 
d="M98 -151v64l272 373v7l-272 372v64h483v-58h-235l-173 1v-4l279 -379l-279 -379v-4l173 1h235v-58h-483z" />
    <glyph glyph-name="minus" unicode="&#x2212;" horiz-adv-x="667" 
d="M95 337v48h477v-48h-477z" />
    <glyph glyph-name="radical" unicode="&#x221a;" horiz-adv-x="610" 
d="M243 -151l-155 483h-78v55h126l142 -457h3l253 799h67l-285 -880h-73z" />
    <glyph glyph-name="infinity" unicode="&#x221e;" horiz-adv-x="885" 
d="M231 160q-57 0 -99 27t-65 73t-23 104q0 56 22.5 102.5t64.5 74.5t100 28q51 0 89.5 -22.5t68 -59.5t54.5 -79q26 42 55.5 79t68 59.5t90.5 22.5q57 0 98.5 -28t63.5 -75t22 -102q0 -54 -22 -100.5t-63.5 -75t-98.5 -28.5q-50 0 -88.5 21.5t-68.5 58.5t-57 82
q-25 -43 -55 -79.5t-68.5 -59.5t-88.5 -23zM232 216q52 0 93 37t87 112q-46 73 -85.5 111t-94.5 38q-60 0 -96 -42.5t-36 -107.5q0 -67 36.5 -107.5t95.5 -40.5zM654 216q40 0 69.5 19.5t46 53.5t16.5 75q0 64 -36.5 107t-95.5 43q-55 0 -95 -38.5t-85 -110.5
q46 -74 85.5 -111.5t94.5 -37.5z" />
    <glyph glyph-name="integral" unicode="&#x222b;" horiz-adv-x="372" 
d="M10 -151v52h146v758q0 32 16.5 51t46.5 19h143v-53h-146v-760q0 -28 -14 -47.5t-50 -19.5h-142z" />
    <glyph glyph-name="approxequal" unicode="&#x2248;" horiz-adv-x="644" 
d="M402 413q-32 0 -62 11.5t-56.5 23.5t-48.5 12q-24 0 -35.5 -16.5t-8.5 -43.5h-39q-4 64 21.5 90t60.5 26q29 0 57 -12.5t55.5 -25t54.5 -12.5q55 0 54 63h39q3 -59 -21 -87.5t-71 -28.5zM402 205q-31 0 -61.5 12.5t-57 25t-48.5 12.5q-23 0 -35 -17t-9 -44h-39
q-3 48 10 73.5t33.5 34.5t39.5 9q28 0 56 -12.5t55.5 -25t54.5 -12.5q55 0 54 64h39q4 -66 -24 -93t-68 -27z" />
    <glyph glyph-name="notequal" unicode="&#x2260;" horiz-adv-x="662" 
d="M171 93l67 132h-146v49h170l88 174h-258v49h282l67 132h51l-67 -132h145v-49h-168l-89 -174h257v-49h-280l-67 -132h-52z" />
    <glyph glyph-name="lessequal" unicode="&#x2264;" horiz-adv-x="686" 
d="M586 137l-485 197v68l485 197v-55l-430 -173v-5l430 -174v-55zM101 0v46h485v-46h-485z" />
    <glyph glyph-name="greaterequal" unicode="&#x2265;" horiz-adv-x="686" 
d="M101 137v55l429 174v5l-429 173v55l485 -197v-68zM101 0v46h485v-46h-485z" />
    <glyph glyph-name="uni2639" unicode="&#x2639;" horiz-adv-x="815" 
d="M408 -10q-108 0 -193 47t-133.5 131.5t-48.5 197.5q0 112 48.5 196t133.5 130.5t193 46.5q109 0 193.5 -46.5t133 -130.5t48.5 -196q0 -113 -48.5 -197.5t-133 -131.5t-193.5 -47zM408 25q98 0 173.5 43t119 119.5t43.5 178.5q0 101 -43.5 177t-119 118.5t-173.5 42.5
t-173.5 -42.5t-119 -118.5t-43.5 -177q0 -102 43.5 -178.5t119 -119.5t173.5 -43zM319 392q-27 0 -40.5 19t-13.5 47q0 34 15 50.5t39 16.5q27 0 40 -19t13 -48q0 -34 -15 -50t-38 -16zM497 392q-26 0 -40 19t-14 47q0 34 16 50.5t38 16.5q28 0 41.5 -19.5t13.5 -47.5
q0 -34 -15 -50t-40 -16zM170 161q24 72 86.5 114t149.5 42q89 0 151.5 -42t86.5 -114h-38q-22 56 -75.5 88.5t-124.5 32.5q-69 0 -122.5 -32.5t-76.5 -88.5h-37z" />
    <glyph glyph-name="smileface" unicode="&#x263a;" horiz-adv-x="815" 
d="M408 -10q-108 0 -193 47t-133.5 131.5t-48.5 197.5q0 112 48.5 196t133.5 130.5t193 46.5q109 0 193.5 -46.5t133 -130.5t48.5 -196q0 -113 -48.5 -197.5t-133 -131.5t-193.5 -47zM408 25q98 0 173.5 43t119 119.5t43.5 178.5q0 101 -43.5 177t-119 118.5t-173.5 42.5
t-173.5 -42.5t-119 -118.5t-43.5 -177q0 -102 43.5 -178.5t119 -119.5t173.5 -43zM319 392q-27 0 -40.5 19t-13.5 47q0 34 15 50.5t39 16.5q27 0 40 -19t13 -48q0 -34 -15 -50t-38 -16zM497 392q-26 0 -40 19t-14 47q0 34 16 50.5t38 16.5q28 0 41.5 -19.5t13.5 -47.5
q0 -34 -15 -50t-40 -16zM406 108q-67 0 -119.5 25t-85.5 70.5t-42 105.5h-33v18h111v-18h-39q6 -50 35 -87t74 -57.5t99 -20.5q56 0 101.5 20.5t74 57.5t34.5 87h-38v18h112v-18h-35q-13 -91 -80 -146t-169 -55z" />
    <glyph glyph-name="uni2713" unicode="&#x2713;" horiz-adv-x="927" 
d="M308 127l-194 257l39 35l161 -216l464 394l35 -41z" />
    <glyph glyph-name="uni2776" unicode="&#x2776;" 
d="M435 -10q-112 0 -197.5 47t-133 131t-47.5 195q0 112 47.5 196t133 130.5t197.5 46.5q113 0 198.5 -46.5t133 -130.5t47.5 -196q0 -111 -47.5 -195t-133 -131t-198.5 -47zM442 165h43v397h-43q-3 -29 -21 -47t-58 -18h-14v-33h93v-299z" />
    <glyph glyph-name="uni2777" unicode="&#x2777;" 
d="M435 -10q-112 0 -197.5 47t-133 131t-47.5 195q0 112 47.5 196t133 130.5t197.5 46.5q113 0 198.5 -46.5t133 -130.5t47.5 -196q0 -111 -47.5 -195t-133 -131t-198.5 -47zM311 162h252v39h-118q-25 0 -46.5 -0.5t-35.5 -2.5q5 30 26.5 53t50 43.5t56 43t45.5 49.5t18 64
q0 50 -33 81.5t-88 31.5q-57 0 -93 -34t-33 -90h41q-2 38 21.5 61.5t60.5 23.5q35 0 57 -21t22 -56q0 -32 -20.5 -56t-51 -45t-60.5 -44.5t-50.5 -55t-20.5 -76.5v-9z" />
    <glyph glyph-name="uni2778" unicode="&#x2778;" 
d="M435 -10q-112 0 -197.5 47t-133 131t-47.5 195q0 112 47.5 196t133 130.5t197.5 46.5q113 0 198.5 -46.5t133 -130.5t47.5 -196q0 -111 -47.5 -195t-133 -131t-198.5 -47zM435 160q57 0 94.5 32t37.5 83q0 35 -18 61t-52 34v2q26 9 45 32t19 60q0 49 -35.5 76t-87.5 27
q-57 0 -92.5 -33.5t-34.5 -91.5h41q1 40 24 63.5t60 23.5q34 0 57 -18.5t23 -50.5q0 -31 -19.5 -51.5t-56.5 -20.5h-38v-36h40q36 0 58 -19.5t22 -54.5t-24.5 -57t-63.5 -22q-38 0 -62 24.5t-23 63.5h-42q-1 -54 33.5 -90.5t94.5 -36.5z" />
    <glyph glyph-name="uni2779" unicode="&#x2779;" 
d="M57 363q0 112 47.5 196t133 130.5t197.5 46.5q113 0 198.5 -46.5t133 -130.5t47.5 -196q0 -111 -47.5 -195t-133 -131t-198.5 -47q-112 0 -197.5 47t-133 131t-47.5 195zM281 267h195v-102h44v102h54v36h-54v259h-59l-180 -261v-34zM326 303l150 216v-216h-150z" />
    <glyph glyph-name="uni277A" unicode="&#x277a;" 
d="M435 -10q-112 0 -197.5 47t-133 131t-47.5 195q0 112 47.5 196t133 130.5t197.5 46.5q113 0 198.5 -46.5t133 -130.5t47.5 -196q0 -111 -47.5 -195t-133 -131t-198.5 -47zM433 162q60 0 98 38.5t38 98.5q0 57 -35.5 94.5t-89.5 37.5q-28 0 -51.5 -11.5t-36.5 -30.5l-2 1
l6 136h189v38h-227l-9 -220h41q10 22 31 36t51 14q39 0 63.5 -27.5t24.5 -69.5q0 -43 -25 -69.5t-65 -26.5q-36 0 -61 23.5t-26 63.5h-42q-1 -54 35 -90t93 -36z" />
    <glyph glyph-name="uni277B" unicode="&#x277b;" 
d="M435 -10q-112 0 -197.5 47t-133 131t-47.5 195q0 112 47.5 196t133 130.5t197.5 46.5q113 0 198.5 -46.5t133 -130.5t47.5 -196q0 -111 -47.5 -195t-133 -131t-198.5 -47zM440 160q57 0 94 35.5t37 98.5q0 58 -33 93.5t-87 35.5q-37 0 -64.5 -18.5t-37.5 -51.5h-3
q1 52 9 91t29 61.5t62 22.5q31 0 53 -16.5t26 -47.5h42q-5 49 -38 75.5t-83 26.5q-71 0 -107 -54t-36 -167q0 -90 34 -137.5t103 -47.5zM441 198q-38 0 -62.5 25t-24.5 68q0 41 23.5 69t64.5 28q37 0 60.5 -25t23.5 -69q0 -43 -23.5 -69.5t-61.5 -26.5z" />
    <glyph glyph-name="uni277C" unicode="&#x277c;" 
d="M435 -10q-112 0 -197.5 47t-133 131t-47.5 195q0 112 47.5 196t133 130.5t197.5 46.5q113 0 198.5 -46.5t133 -130.5t47.5 -196q0 -111 -47.5 -195t-133 -131t-198.5 -47zM393 165h48q0 82 17 145.5t46 116t64 103.5v32h-262v-120h36v82h174q-32 -48 -60 -100.5
t-45.5 -115.5t-17.5 -143z" />
    <glyph glyph-name="uni277D" unicode="&#x277d;" 
d="M57 363q0 112 47.5 196t133 130.5t197.5 46.5q113 0 198.5 -46.5t133 -130.5t47.5 -196q0 -111 -47.5 -195t-133 -131t-198.5 -47q-112 0 -197.5 47t-133 131t-47.5 195zM299 270q0 -50 38.5 -79.5t99.5 -29.5t99 30t38 79q0 34 -20.5 62t-61.5 32v2q41 6 58.5 34.5
t17.5 59.5q0 48 -35.5 77t-95.5 29t-95.5 -29t-35.5 -76q0 -34 18.5 -61t57.5 -34v-2q-40 -5 -61.5 -33t-21.5 -61zM352 455q0 34 23 54t62 20q38 0 62 -20t24 -54q0 -30 -20 -51.5t-66 -21.5q-44 0 -64.5 21t-20.5 52zM348 274q0 29 21.5 50t67.5 21q45 0 67.5 -20
t22.5 -51q0 -34 -24.5 -55t-65.5 -21q-40 0 -64.5 20.5t-24.5 55.5z" />
    <glyph glyph-name="uni277E" unicode="&#x277e;" 
d="M435 -10q-112 0 -197.5 47t-133 131t-47.5 195q0 112 47.5 196t133 130.5t197.5 46.5q113 0 198.5 -46.5t133 -130.5t47.5 -196q0 -111 -47.5 -195t-133 -131t-198.5 -47zM433 160q44 0 75 21t47 69t16 131q0 90 -34 137.5t-102 47.5q-58 0 -95 -35t-37 -98
q0 -58 32.5 -93.5t87.5 -35.5q40 0 66.5 19t35.5 49h3q-1 -50 -7.5 -89.5t-26.5 -62t-61 -22.5q-36 0 -56 19t-22 45h-42q5 -49 38 -75.5t82 -26.5zM433 339q-38 0 -61.5 25t-23.5 68t23.5 69t62.5 26t63 -25t24 -67q0 -40 -23.5 -68t-64.5 -28z" />
    <glyph glyph-name="uni2780" unicode="&#x2780;" 
d="M435 -10q-112 0 -197.5 47t-133 131t-47.5 195q0 112 47.5 196t133 130.5t197.5 46.5q113 0 198 -46.5t132.5 -130.5t47.5 -196q0 -111 -47.5 -195t-132.5 -131t-198 -47zM435 27q101 0 177 42t118.5 118t42.5 176q0 101 -42.5 177t-118.5 118.5t-177 42.5t-177 -42.5
t-118.5 -118.5t-42.5 -177q0 -100 42.5 -176t118.5 -118t177 -42zM441 165v299h-92v33h14q40 0 58 18t21 47h43v-397h-44z" />
    <glyph glyph-name="uni2781" unicode="&#x2781;" 
d="M435 -10q-112 0 -197.5 47t-133 131t-47.5 195q0 112 47.5 196t133 130.5t197.5 46.5q113 0 198 -46.5t132.5 -130.5t47.5 -196q0 -111 -47.5 -195t-132.5 -131t-198 -47zM435 27q101 0 177 42t118.5 118t42.5 176q0 101 -42.5 177t-118.5 118.5t-177 42.5t-177 -42.5
t-118.5 -118.5t-42.5 -177q0 -100 42.5 -176t118.5 -118t177 -42zM310 162v9q0 45 20.5 76.5t51 55t61 44.5t51 45t20.5 56q0 35 -22 56t-57 21q-38 0 -61 -23.5t-22 -61.5h-41q-2 56 34 90t93 34q54 0 87.5 -31.5t33.5 -81.5q0 -37 -18.5 -64t-46 -49.5t-55.5 -43
t-49.5 -43.5t-26.5 -53q14 2 35.5 2.5t45.5 0.5h119v-39h-253z" />
    <glyph glyph-name="uni2782" unicode="&#x2782;" 
d="M435 -10q-112 0 -197.5 47t-133 131t-47.5 195q0 112 47.5 196t133 130.5t197.5 46.5q113 0 198 -46.5t132.5 -130.5t47.5 -196q0 -111 -47.5 -195t-132.5 -131t-198 -47zM435 27q101 0 177 42t118.5 118t42.5 176q0 101 -42.5 177t-118.5 118.5t-177 42.5t-177 -42.5
t-118.5 -118.5t-42.5 -177q0 -100 42.5 -176t118.5 -118t177 -42zM435 160q-61 0 -95 36.5t-33 90.5h42q-1 -39 23 -63.5t62 -24.5q39 0 63.5 22t24.5 57t-22.5 54.5t-57.5 19.5h-41v36h39q37 0 56 20.5t19 51.5q0 32 -22.5 50.5t-56.5 18.5q-37 0 -60.5 -23.5t-23.5 -63.5
h-42q-1 58 35 91.5t92 33.5q52 0 88 -27t36 -76q0 -37 -19 -60t-45 -32v-2q34 -8 52 -34t18 -61q0 -51 -37.5 -83t-94.5 -32z" />
    <glyph glyph-name="uni2783" unicode="&#x2783;" 
d="M57 363q0 112 47.5 196t133 130.5t197.5 46.5q113 0 198 -46.5t132.5 -130.5t47.5 -196q0 -111 -47.5 -195t-132.5 -131t-198 -47q-112 0 -197.5 47t-133 131t-47.5 195zM97 363q0 -100 42.5 -176t118.5 -118t177 -42t177 42t118.5 118t42.5 176q0 101 -42.5 177
t-118.5 118.5t-177 42.5t-177 -42.5t-118.5 -118.5t-42.5 -177zM279 267v34l180 261h58v-259h54v-36h-54v-102h-43l-1 102h-194zM323 303h151v216z" />
    <glyph glyph-name="uni2784" unicode="&#x2784;" 
d="M435 -10q-112 0 -197.5 47t-133 131t-47.5 195q0 112 47.5 196t133 130.5t197.5 46.5q113 0 198 -46.5t132.5 -130.5t47.5 -196q0 -111 -47.5 -195t-132.5 -131t-198 -47zM435 27q101 0 177 42t118.5 118t42.5 176q0 101 -42.5 177t-118.5 118.5t-177 42.5t-177 -42.5
t-118.5 -118.5t-42.5 -177q0 -100 42.5 -176t118.5 -118t177 -42zM433 162q-57 0 -93 36t-36 90h43q0 -40 25.5 -63.5t61.5 -23.5q39 0 64.5 26.5t25.5 69.5q0 42 -25 69.5t-63 27.5q-30 0 -51.5 -14t-30.5 -36h-41l8 220h228v-38h-189l-7 -136l3 -1q12 19 35.5 30.5
t52.5 11.5q54 0 89.5 -37.5t35.5 -94.5q0 -60 -38 -98.5t-98 -38.5z" />
    <glyph glyph-name="uni2785" unicode="&#x2785;" 
d="M435 -10q-112 0 -197.5 47t-133 131t-47.5 195q0 112 47.5 196t133 130.5t197.5 46.5q113 0 198 -46.5t132.5 -130.5t47.5 -196q0 -111 -47.5 -195t-132.5 -131t-198 -47zM435 27q101 0 177 42t118.5 118t42.5 176q0 101 -42.5 177t-118.5 118.5t-177 42.5t-177 -42.5
t-118.5 -118.5t-42.5 -177q0 -100 42.5 -176t118.5 -118t177 -42zM439 160q-68 0 -102 47.5t-34 137.5q0 113 35.5 167t106.5 54q51 0 84 -26.5t37 -75.5h-41q-4 31 -26.5 47.5t-53.5 16.5q-40 0 -61 -22.5t-29 -61.5t-9 -91h2q11 33 38 51.5t64 18.5q55 0 88 -35.5
t33 -93.5q0 -63 -37 -98.5t-95 -35.5zM441 198q38 0 61.5 26.5t23.5 69.5q0 44 -23.5 69t-60.5 25q-42 0 -65 -28t-23 -69q0 -43 24 -68t63 -25z" />
    <glyph glyph-name="uni2786" unicode="&#x2786;" 
d="M435 -10q-112 0 -197.5 47t-133 131t-47.5 195q0 112 47.5 196t133 130.5t197.5 46.5q113 0 198 -46.5t132.5 -130.5t47.5 -196q0 -111 -47.5 -195t-132.5 -131t-198 -47zM435 27q101 0 177 42t118.5 118t42.5 176q0 101 -42.5 177t-118.5 118.5t-177 42.5t-177 -42.5
t-118.5 -118.5t-42.5 -177q0 -100 42.5 -176t118.5 -118t177 -42zM393 165q0 80 17.5 143t45.5 115.5t60 100.5h-174v-82h-37v120h263v-32q-35 -51 -64 -103.5t-46 -116t-17 -145.5h-48z" />
    <glyph glyph-name="uni2787" unicode="&#x2787;" 
d="M435 -10q-112 0 -197.5 47t-133 131t-47.5 195q0 112 47.5 196t133 130.5t197.5 46.5q113 0 198 -46.5t132.5 -130.5t47.5 -196q0 -111 -47.5 -195t-132.5 -131t-198 -47zM435 27q101 0 177 42t118.5 118t42.5 176q0 101 -42.5 177t-118.5 118.5t-177 42.5t-177 -42.5
t-118.5 -118.5t-42.5 -177q0 -100 42.5 -176t118.5 -118t177 -42zM437 161q-61 0 -99.5 29.5t-38.5 79.5q0 33 21.5 61t61.5 33v2q-39 7 -57.5 34t-18.5 61q0 47 35.5 76t95.5 29t95.5 -29t35.5 -77q0 -31 -18 -59.5t-58 -34.5v-2q41 -4 61 -32t20 -62q0 -49 -37.5 -79
t-98.5 -30zM437 382q45 0 65.5 21.5t20.5 51.5q0 34 -24 54t-62 20q-39 0 -62.5 -20t-23.5 -54q0 -31 20.5 -52t65.5 -21zM437 198q41 0 65.5 21t24.5 55q0 31 -22.5 51t-67.5 20q-46 0 -67.5 -21t-21.5 -50q0 -35 24 -55.5t65 -20.5z" />
    <glyph glyph-name="uni2788" unicode="&#x2788;" 
d="M435 -10q-112 0 -197.5 47t-133 131t-47.5 195q0 112 47.5 196t133 130.5t197.5 46.5q113 0 198 -46.5t132.5 -130.5t47.5 -196q0 -111 -47.5 -195t-132.5 -131t-198 -47zM435 27q101 0 177 42t118.5 118t42.5 176q0 101 -42.5 177t-118.5 118.5t-177 42.5t-177 -42.5
t-118.5 -118.5t-42.5 -177q0 -100 42.5 -176t118.5 -118t177 -42zM432 160q-48 0 -81.5 26.5t-37.5 75.5h41q3 -26 23 -45t56 -19q40 0 60 22.5t27 62t7 89.5h-2q-9 -30 -35.5 -49t-67.5 -19q-54 0 -86.5 35.5t-32.5 93.5q0 63 37 98t94 35q68 0 102.5 -47.5t34.5 -137.5
q0 -83 -16 -131t-47 -69t-76 -21zM433 339q41 0 64 28t23 68q0 42 -23.5 67t-63.5 25q-38 0 -61.5 -26t-23.5 -69t23.5 -68t61.5 -25z" />
    <glyph glyph-name="G.ss01" horiz-adv-x="811" 
d="M382 -8q-101 0 -177 46t-118.5 129.5t-42.5 195.5q0 113 44 197t124 130t187 46q83 0 150.5 -26.5t112 -77t57.5 -122.5h-64q-19 79 -86 125t-170 46q-92 0 -157 -39.5t-99.5 -111t-34.5 -166.5q0 -98 34 -169t96.5 -110t148.5 -39q82 0 144 30.5t96.5 86.5t34.5 132v34
h-298v52h364v-381h-51l-5 162h-6q-17 -51 -58 -89.5t-99 -59.5t-127 -21z" />
    <glyph glyph-name="a.ss01" horiz-adv-x="543" 
d="M214 -8q-77 0 -124.5 40.5t-47.5 107.5q0 77 56 118.5t151 41.5h151v50q0 59 -32.5 94.5t-107.5 35.5q-71 0 -110 -29.5t-40 -77.5h-57q4 74 62 115.5t148 41.5q89 0 142.5 -43t53.5 -138v-268q0 -26 8 -35t24 -9q18 0 30 11v-43q-18 -13 -47 -13q-32 0 -51.5 16.5
t-19.5 57.5v33h-3q-18 -49 -69 -78t-117 -29zM232 41q78 0 123 40.5t45 101.5v75h-146q-71 0 -112 -27.5t-41 -84.5q0 -48 33.5 -76.5t97.5 -28.5z" />
    <glyph glyph-name="aacute.ss01" horiz-adv-x="543" 
d="M214 -8q-77 0 -124.5 40.5t-47.5 107.5q0 77 56 118.5t151 41.5h151v50q0 59 -32.5 94.5t-107.5 35.5q-71 0 -110 -29.5t-40 -77.5h-57q4 74 62 115.5t148 41.5q89 0 142.5 -43t53.5 -138v-268q0 -26 8 -35t24 -9q18 0 30 11v-43q-18 -13 -47 -13q-32 0 -51.5 16.5
t-19.5 57.5v33h-3q-18 -49 -69 -78t-117 -29zM232 41q78 0 123 40.5t45 101.5v75h-146q-71 0 -112 -27.5t-41 -84.5q0 -48 33.5 -76.5t97.5 -28.5zM238 592l64 138h63l-82 -138h-45z" />
    <glyph glyph-name="acircumflex.ss01" horiz-adv-x="543" 
d="M214 -8q-77 0 -124.5 40.5t-47.5 107.5q0 77 56 118.5t151 41.5h151v50q0 59 -32.5 94.5t-107.5 35.5q-71 0 -110 -29.5t-40 -77.5h-57q4 74 62 115.5t148 41.5q89 0 142.5 -43t53.5 -138v-268q0 -26 8 -35t24 -9q18 0 30 11v-43q-18 -13 -47 -13q-32 0 -51.5 16.5
t-19.5 57.5v33h-3q-18 -49 -69 -78t-117 -29zM232 41q78 0 123 40.5t45 101.5v75h-146q-71 0 -112 -27.5t-41 -84.5q0 -48 33.5 -76.5t97.5 -28.5zM127 592l111 138h50l112 -138h-59l-78 100l-78 -100h-58z" />
    <glyph glyph-name="adieresis.ss01" horiz-adv-x="543" 
d="M214 -8q-77 0 -124.5 40.5t-47.5 107.5q0 77 56 118.5t151 41.5h151v50q0 59 -32.5 94.5t-107.5 35.5q-71 0 -110 -29.5t-40 -77.5h-57q4 74 62 115.5t148 41.5q89 0 142.5 -43t53.5 -138v-268q0 -26 8 -35t24 -9q18 0 30 11v-43q-18 -13 -47 -13q-32 0 -51.5 16.5
t-19.5 57.5v33h-3q-18 -49 -69 -78t-117 -29zM232 41q78 0 123 40.5t45 101.5v75h-146q-71 0 -112 -27.5t-41 -84.5q0 -48 33.5 -76.5t97.5 -28.5zM149 614v116h56v-116h-56zM320 614v116h57v-116h-57z" />
    <glyph glyph-name="agrave.ss01" horiz-adv-x="543" 
d="M214 -8q-77 0 -124.5 40.5t-47.5 107.5q0 77 56 118.5t151 41.5h151v50q0 59 -32.5 94.5t-107.5 35.5q-71 0 -110 -29.5t-40 -77.5h-57q4 74 62 115.5t148 41.5q89 0 142.5 -43t53.5 -138v-268q0 -26 8 -35t24 -9q18 0 30 11v-43q-18 -13 -47 -13q-32 0 -51.5 16.5
t-19.5 57.5v33h-3q-18 -49 -69 -78t-117 -29zM232 41q78 0 123 40.5t45 101.5v75h-146q-71 0 -112 -27.5t-41 -84.5q0 -48 33.5 -76.5t97.5 -28.5zM242 592l-82 138h63l64 -138h-45z" />
    <glyph glyph-name="aring.ss01" horiz-adv-x="543" 
d="M214 -8q-77 0 -124.5 40.5t-47.5 107.5q0 77 56 118.5t151 41.5h151v50q0 59 -32.5 94.5t-107.5 35.5q-71 0 -110 -29.5t-40 -77.5h-57q4 74 62 115.5t148 41.5q89 0 142.5 -43t53.5 -138v-268q0 -26 8 -35t24 -9q18 0 30 11v-43q-18 -13 -47 -13q-32 0 -51.5 16.5
t-19.5 57.5v33h-3q-18 -49 -69 -78t-117 -29zM232 41q78 0 123 40.5t45 101.5v75h-146q-71 0 -112 -27.5t-41 -84.5q0 -48 33.5 -76.5t97.5 -28.5zM265 598q-44 0 -71 25.5t-27 67.5q0 43 27 68.5t71 25.5t71 -25.5t27 -68.5q0 -42 -27 -67.5t-71 -25.5zM265 634q26 0 42 16
t16 41q0 26 -16 41.5t-42 15.5t-42 -15.5t-16 -41.5q0 -25 16 -41t42 -16z" />
    <glyph glyph-name="atilde.ss01" horiz-adv-x="543" 
d="M214 -8q-77 0 -124.5 40.5t-47.5 107.5q0 77 56 118.5t151 41.5h151v50q0 59 -32.5 94.5t-107.5 35.5q-71 0 -110 -29.5t-40 -77.5h-57q4 74 62 115.5t148 41.5q89 0 142.5 -43t53.5 -138v-268q0 -26 8 -35t24 -9q18 0 30 11v-43q-18 -13 -47 -13q-32 0 -51.5 16.5
t-19.5 57.5v33h-3q-18 -49 -69 -78t-117 -29zM232 41q78 0 123 40.5t45 101.5v75h-146q-71 0 -112 -27.5t-41 -84.5q0 -48 33.5 -76.5t97.5 -28.5zM320 617q-27 1 -47 8t-37.5 14t-37.5 7q-33 0 -56 -30l-26 17q19 33 39 46.5t48 13.5q20 0 40 -7.5t41 -15t42 -7.5
q33 0 56 32l27 -18q-17 -32 -39 -46t-50 -14z" />
    <glyph glyph-name="g.ss01" horiz-adv-x="561" 
d="M213 -167q-95 0 -136.5 34t-41.5 86q0 44 30 74t68 37v4q-27 9 -41.5 29.5t-14.5 46.5q0 29 19.5 51.5t49.5 30.5v7q-67 42 -67 129q0 50 24.5 88t68.5 59.5t102 21.5q25 0 52.5 -6t47.5 -16q18 51 64 78t109 23v-50q-48 4 -86 -14t-56 -54q32 -25 47.5 -60.5t15.5 -72.5
q0 -73 -53 -118.5t-140 -45.5q-31 0 -54 4.5t-41 11.5q-26 -2 -40 -19t-14 -37q0 -29 25.5 -40t56.5 -11h156q73 0 114.5 -29.5t41.5 -93.5q1 -76 -50 -112t-134 -36h-123zM276 239q65 0 100.5 34t35.5 87q0 59 -38 93t-100 34q-66 0 -102.5 -36t-36.5 -90q0 -58 38.5 -90
t102.5 -32zM212 -126h132q60 0 88.5 25.5t28.5 67.5q0 34 -15.5 51.5t-40.5 23.5t-54 6h-185q-34 -8 -56.5 -29t-22.5 -57q0 -44 33 -66t92 -22z" />
    <glyph glyph-name="zero.tf" horiz-adv-x="600" 
d="M302 -9q-113 0 -182 94t-69 276q0 181 68.5 274.5t181.5 93.5q112 0 180 -94t68 -275q0 -121 -31 -203t-87 -124t-129 -42zM111 360q0 -56 7 -103l357 249q-40 171 -174 171q-91 0 -140.5 -80.5t-49.5 -236.5zM301 43q90 0 139 81t49 236q0 55 -6 102l-357 -249
q40 -170 175 -170z" />
    <glyph glyph-name="one.tf" horiz-adv-x="600" 
d="M56 0v53h228v481h-184v46h34q54 0 85.5 21t46 53t18.5 67h59v-668h202v-53h-489z" />
    <glyph glyph-name="two.tf" horiz-adv-x="600" 
d="M72 0v15q0 56 21 100.5t55.5 80t75.5 65.5t82 58.5t75.5 59t55.5 66t21 80.5q0 69 -44.5 111t-116.5 42q-77 0 -124.5 -46t-44.5 -123h-55q-2 66 26.5 116t80.5 77.5t121 27.5q66 0 115 -26t76 -71.5t27 -104.5q0 -57 -26.5 -101.5t-68 -81t-88.5 -69.5t-90 -66.5
t-72 -71.5t-34 -86l389 1v-53h-457z" />
    <glyph glyph-name="three.tf" horiz-adv-x="600" 
d="M296 -8q-72 0 -124 30t-79 82t-26 117h57q-1 -53 20.5 -92.5t61 -62t90.5 -22.5t91 20t62 55.5t22 81.5q0 69 -44 108.5t-117 39.5h-70v48h69q74 0 112.5 41.5t38.5 101.5q0 65 -45.5 101.5t-115.5 36.5q-74 0 -122 -47t-47 -128h-56q-2 69 27 120t81 79t118 28
q63 0 113.5 -22t79.5 -63.5t29 -99.5q0 -64 -33.5 -108t-88.5 -60v-5q64 -15 99 -61t35 -114q0 -60 -31 -106.5t-84.5 -72.5t-122.5 -26z" />
    <glyph glyph-name="four.tf" horiz-adv-x="600" 
d="M403 0v190h-365v49l338 482h86v-481h101v-50h-101v-190h-59zM98 240h305v433z" />
    <glyph glyph-name="five.tf" horiz-adv-x="600" 
d="M294 -8q-68 0 -120 28.5t-82 79.5t-29 120h57q-1 -52 21 -91.5t62 -61.5t92 -22q53 0 94 23.5t64 66.5t23 99t-22.5 99t-62.5 67.5t-93 24.5q-59 0 -102 -26.5t-63 -69.5h-55l15 392h411v-52h-359l-12 -277l4 -1q24 39 69.5 62t102.5 23q66 0 118 -30.5t81.5 -84.5
t29.5 -124q0 -72 -31 -127.5t-86.5 -86.5t-126.5 -31z" />
    <glyph glyph-name="six.tf" horiz-adv-x="600" 
d="M303 -8q-125 0 -184.5 86.5t-59.5 242.5q0 213 63.5 311t192.5 98q95 0 152 -49t64 -133h-55q-8 63 -52 96t-109 33q-62 0 -100.5 -25.5t-59 -72.5t-29 -111t-9.5 -140h4q17 62 69.5 100.5t129.5 38.5q65 0 115 -29.5t78 -82.5t28 -124q0 -74 -30.5 -127.5t-84 -82.5
t-123.5 -29zM306 45q78 0 125.5 51.5t47.5 137.5q0 85 -47.5 134.5t-124.5 49.5q-55 0 -94.5 -25.5t-61 -68.5t-21.5 -97q0 -85 48.5 -133.5t127.5 -48.5z" />
    <glyph glyph-name="seven.tf" horiz-adv-x="600" 
d="M227 0q0 112 19.5 205t53.5 173t76.5 151t89.5 140h-353v-156h-50v208h474v-41q-49 -72 -93.5 -144t-79 -152t-54 -174t-19.5 -210h-64z" />
    <glyph glyph-name="eight.tf" horiz-adv-x="600" 
d="M301 -8q-75 0 -131 24t-87 68t-31 103q0 42 18 79.5t54 63t88 31.5v3q-50 8 -83 33.5t-49 62.5t-16 79q0 87 64.5 138.5t172.5 51.5q72 0 125.5 -24t83 -67t29.5 -101q0 -41 -15.5 -78t-48.5 -62.5t-85 -32.5v-3q79 -6 119 -56t40 -116q0 -60 -31 -104t-87 -68.5
t-130 -24.5zM301 388q63 0 102 20t57 52.5t18 72.5q0 68 -49 106.5t-128 38.5q-81 0 -128 -39.5t-47 -105.5q0 -62 41.5 -103.5t133.5 -41.5zM301 45q85 0 134.5 41t49.5 110q0 60 -44.5 100t-139.5 40q-64 0 -104.5 -19.5t-59.5 -51.5t-19 -69q0 -71 50.5 -111t132.5 -40z
" />
    <glyph glyph-name="nine.tf" horiz-adv-x="600" 
d="M294 -8q-92 0 -149.5 49t-64.5 133h56q6 -60 48.5 -95t110.5 -35q60 0 97 25.5t56.5 72t26.5 111t8 141.5h-4q-17 -61 -69 -99.5t-130 -38.5q-66 0 -115.5 29t-77.5 82t-28 124q0 74 30.5 127.5t84 82.5t123.5 29q125 0 184.5 -87t59.5 -245q0 -153 -28.5 -242
t-83.5 -126.5t-135 -37.5zM292 304q56 0 95.5 25.5t61 69t21.5 97.5q0 84 -48 132.5t-128 48.5q-78 0 -125.5 -51.5t-47.5 -137.5t47.5 -135t123.5 -49z" />
    <glyph glyph-name="zero.tf.ss03" horiz-adv-x="600" 
d="M302 -9q-113 0 -182 94t-69 276q0 181 68.5 274.5t181.5 93.5q112 0 180 -94t68 -275q0 -121 -31 -203t-87 -124t-129 -42zM301 677q-88 0 -137 -75t-52 -220h377q-3 145 -52.5 220t-135.5 75zM301 43q86 0 135 75t53 219h-377q3 -144 52 -219t137 -75z" />
    <glyph glyph-name="zero.dnom" horiz-adv-x="343" 
d="M173 -5q-64 0 -102.5 52.5t-38.5 149.5q0 98 39 149.5t102 51.5t101 -52t38 -149q0 -98 -38.5 -150t-100.5 -52zM173 32q44 0 69.5 40.5t25.5 124.5q0 83 -25.5 123.5t-69.5 40.5q-46 0 -71.5 -40.5t-25.5 -123.5q0 -84 25.5 -124.5t71.5 -40.5z" />
    <glyph glyph-name="one.dnom" horiz-adv-x="208" 
d="M103 0v296h-94v33h15q40 0 58.5 18t21.5 47h41v-394h-42z" />
    <glyph glyph-name="two.dnom" horiz-adv-x="321" 
d="M34 0v9q0 44 20.5 75t51.5 54.5t62 44.5t52 45t21 56q0 35 -22 56t-59 21q-41 0 -63.5 -24.5t-20.5 -61.5h-41q-2 56 34 90t94 34q55 0 89 -31.5t34 -80.5q0 -37 -18.5 -64t-46.5 -49t-57 -42.5t-51 -43.5t-27 -52q17 1 41 1.5t42 0.5h122v-38h-257z" />
    <glyph glyph-name="three.dnom" horiz-adv-x="324" 
d="M157 -5q-60 0 -95.5 36t-34.5 89h42q0 -39 24.5 -63t63.5 -24q40 0 65 22t25 57q0 34 -22.5 54t-60.5 20h-40v34h39q37 0 57 20.5t20 51.5q0 32 -23 50.5t-58 18.5q-38 0 -62.5 -23.5t-24.5 -63.5h-41q-1 60 37 92.5t92 32.5t89.5 -27.5t35.5 -75.5q0 -33 -17.5 -57
t-47.5 -34v-2q36 -9 53.5 -34.5t17.5 -60.5q0 -50 -37.5 -81.5t-96.5 -31.5z" />
    <glyph glyph-name="four.dnom" horiz-adv-x="317" 
d="M208 0v100h-199v35l183 259h59v-257h55v-37h-55v-100h-43zM53 137h155v218z" />
    <glyph glyph-name="five.dnom" horiz-adv-x="334" 
d="M164 -5q-59 0 -95 36t-35 89h43q-1 -38 24 -62t64 -24q41 0 66.5 26t25.5 69q0 41 -25 68t-65 27q-31 0 -53 -13.5t-31 -35.5h-41l9 219h230v-38h-192l-6 -135l3 -2q12 20 36 31t53 11q55 0 91 -37t36 -94q0 -60 -38.5 -97.5t-99.5 -37.5z" />
    <glyph glyph-name="six.dnom" horiz-adv-x="332" 
d="M171 -4q-69 0 -104 47t-35 135q0 113 36 167t108 54q53 0 86 -27.5t37 -73.5h-41q-4 30 -26.5 46.5t-55.5 16.5q-40 0 -62 -22t-30 -61t-8 -91h2q9 31 36.5 50t67.5 19q55 0 88.5 -35.5t33.5 -93.5q0 -61 -37.5 -96t-95.5 -35zM172 34q39 0 63 26t24 68q0 44 -24 69
t-62 25q-42 0 -66 -27.5t-24 -68.5q0 -43 24.5 -67.5t64.5 -24.5z" />
    <glyph glyph-name="seven.dnom" horiz-adv-x="285" 
d="M98 0q0 80 18 142.5t46.5 114t60.5 99.5h-179v-82h-35v120h266v-31q-35 -51 -64.5 -102.5t-47.5 -114t-18 -146.5h-47z" />
    <glyph glyph-name="eight.dnom" horiz-adv-x="337" 
d="M169 -4q-62 0 -100.5 29t-38.5 78q0 34 21.5 61.5t62.5 33.5v1q-37 6 -57 32t-20 62q0 47 35.5 76t96.5 29t97 -29t36 -77q0 -33 -19 -59.5t-59 -33.5v-1q41 -4 62.5 -31t21.5 -63q0 -49 -38.5 -78.5t-100.5 -29.5zM169 217q47 0 67.5 21t20.5 50q0 35 -24 54t-64 19
t-63.5 -19.5t-23.5 -53.5q0 -31 21 -51t66 -20zM169 34q42 0 67.5 20.5t25.5 54.5q0 31 -22.5 51t-70.5 20t-70 -21.5t-22 -49.5q0 -35 25 -55t67 -20z" />
    <glyph glyph-name="nine.dnom" horiz-adv-x="333" 
d="M161 -4q-51 0 -84 26.5t-38 73.5h42q3 -27 24 -45t57 -18q40 0 60.5 22t28 61t8.5 91h-4q-9 -31 -36.5 -50t-67.5 -19q-54 0 -87.5 35.5t-33.5 93.5q0 61 37 96.5t97 35.5q69 0 103 -48t34 -137q0 -121 -36 -169.5t-104 -48.5zM161 172q42 0 66 28t24 69q0 42 -24.5 67
t-64.5 25t-64 -26.5t-24 -69.5t24 -68t63 -25z" />
    <glyph glyph-name="zero.numr" horiz-adv-x="343" 
d="M173 322q-64 0 -102.5 52.5t-38.5 149.5q0 98 39 149.5t102 51.5t101 -52t38 -149q0 -98 -38.5 -150t-100.5 -52zM173 359q44 0 69.5 41t25.5 124t-25.5 123.5t-69.5 40.5q-46 0 -71.5 -40.5t-25.5 -123.5t25.5 -124t71.5 -41z" />
    <glyph glyph-name="one.numr" horiz-adv-x="208" 
d="M103 327v296h-94v33h15q40 0 58.5 18t21.5 47h41v-394h-42z" />
    <glyph glyph-name="two.numr" horiz-adv-x="321" 
d="M34 327v9q0 44 20.5 75t51.5 54.5t62 45t52 45t21 56.5q0 34 -22 55t-59 21q-41 0 -63.5 -24.5t-20.5 -61.5h-41q-2 56 34 90t94 34q55 0 89 -31.5t34 -80.5q0 -36 -18.5 -63.5t-46.5 -49.5t-57 -42.5t-51 -43t-27 -52.5q17 1 41 2t42 1h122v-39h-257z" />
    <glyph glyph-name="three.numr" horiz-adv-x="324" 
d="M157 322q-60 0 -95.5 36t-34.5 90h42q0 -40 24.5 -64t63.5 -24q40 0 65 22t25 57q0 34 -22.5 54t-60.5 20h-40v35h39q37 0 57 20.5t20 50.5q0 32 -23 50.5t-58 18.5q-38 0 -62.5 -23.5t-24.5 -62.5h-41q-1 59 37 91.5t92 32.5t89.5 -27.5t35.5 -74.5q0 -34 -17.5 -58
t-47.5 -34v-2q36 -9 53.5 -34.5t17.5 -60.5q0 -49 -37.5 -81t-96.5 -32z" />
    <glyph glyph-name="four.numr" horiz-adv-x="317" 
d="M208 327v100h-199v35l183 259h59v-257h55v-37h-55v-100h-43zM53 464h155v218z" />
    <glyph glyph-name="five.numr" horiz-adv-x="334" 
d="M164 322q-59 0 -95 36t-35 89h43q-1 -38 24 -62t64 -24q41 0 66.5 26.5t25.5 68.5q0 41 -25 68t-65 27q-31 0 -53 -13.5t-31 -35.5h-41l9 219h230v-38h-192l-6 -135l3 -1q12 19 36 30t53 11q55 0 91 -37t36 -94q0 -59 -38.5 -97t-99.5 -38z" />
    <glyph glyph-name="six.numr" horiz-adv-x="332" 
d="M171 323q-69 0 -104 47t-35 135q0 114 36 167.5t108 53.5q53 0 86 -27.5t37 -73.5h-41q-4 30 -26.5 46.5t-55.5 16.5q-40 0 -62 -22t-30 -61t-8 -91h2q9 31 36.5 50t67.5 19q55 0 88.5 -35.5t33.5 -93.5q0 -61 -37.5 -96t-95.5 -35zM172 361q39 0 63 26t24 69t-24 68
t-62 25q-42 0 -66 -27.5t-24 -68.5q0 -43 24.5 -67.5t64.5 -24.5z" />
    <glyph glyph-name="seven.numr" horiz-adv-x="285" 
d="M98 327q0 81 18 143t46.5 113.5t60.5 99.5h-179v-82h-35v120h266v-31q-35 -51 -64.5 -102.5t-47.5 -114t-18 -146.5h-47z" />
    <glyph glyph-name="eight.numr" horiz-adv-x="337" 
d="M169 323q-62 0 -100.5 29t-38.5 78q0 34 21.5 61.5t62.5 33.5v1q-37 7 -57 32.5t-20 61.5q0 48 35.5 76.5t96.5 28.5t97 -29t36 -77q0 -33 -19 -59.5t-59 -33.5v-1q41 -4 62.5 -31t21.5 -63q0 -49 -38.5 -78.5t-100.5 -29.5zM169 544q47 0 67.5 21t20.5 51q0 34 -24 53
t-64 19t-63.5 -19.5t-23.5 -52.5q0 -32 21 -52t66 -20zM169 361q42 0 67.5 20.5t25.5 55.5q0 30 -22.5 50t-70.5 20t-70 -21t-22 -49q0 -36 25 -56t67 -20z" />
    <glyph glyph-name="nine.numr" horiz-adv-x="333" 
d="M161 323q-51 0 -84 26.5t-38 73.5h42q3 -26 24 -44.5t57 -18.5q40 0 60.5 22t28 61t8.5 91h-4q-9 -31 -36.5 -49.5t-67.5 -18.5q-54 0 -87.5 35t-33.5 93q0 61 37 96.5t97 35.5q69 0 103 -48t34 -136q0 -122 -36 -170.5t-104 -48.5zM161 499q42 0 66 28t24 69
q0 42 -24.5 67t-64.5 25t-64 -26.5t-24 -68.5q0 -44 24 -69t63 -25z" />
    <glyph glyph-name="parenleft.case" horiz-adv-x="304" 
d="M219 -63q-52 48 -89 116t-56.5 148.5t-19.5 163.5t19.5 163.5t56.5 148.5t89 116h55q-51 -48 -87.5 -116.5t-55.5 -148.5t-19 -163q0 -87 20.5 -168t57 -148t84.5 -112h-55z" />
    <glyph glyph-name="parenright.case" horiz-adv-x="304" 
d="M30 -63q48 45 84.5 112t57 148t20.5 168q0 83 -19.5 163t-55.5 148.5t-87 116.5h55q52 -48 89 -116t56.5 -148.5t19.5 -163.5t-19.5 -163.5t-56.5 -148.5t-89 -116h-55z" />
    <glyph glyph-name="braceleft.case" horiz-adv-x="359" 
d="M186 -63q-27 0 -40 15.5t-13 39.5v264q0 40 -19.5 62t-43.5 22h-30v51h30q24 0 43.5 22t19.5 63v262q0 24 13 39.5t40 15.5h163v-47h-160v-271q0 -48 -22 -76t-51 -30v-4q32 -4 52.5 -33.5t20.5 -73.5v-275h160v-46h-163z" />
    <glyph glyph-name="braceright.case" horiz-adv-x="359" 
d="M10 -63v46h160v275q0 44 21 73.5t52 33.5v4q-28 2 -50.5 30t-22.5 76v271h-160v47h163q27 0 40 -15.5t13 -39.5v-262q0 -41 19.5 -63t43.5 -22h30v-51h-30q-24 0 -43.5 -22t-19.5 -62v-264q0 -24 -13 -39.5t-40 -15.5h-163z" />
    <glyph glyph-name="bracketleft.case" horiz-adv-x="324" 
d="M98 -63v856h217v-47h-161v-763h161v-46h-217z" />
    <glyph glyph-name="bracketright.case" horiz-adv-x="324" 
d="M10 -63v46h160v763h-160v47h216v-856h-216z" />
    <glyph glyph-name="a.ss01.BRACKET.varAlt01" horiz-adv-x="529" 
d="M209 -8q-77 0 -124.5 41.5t-47.5 108.5q0 79 56 121t151 42h151v43q0 59 -33 95.5t-107 36.5q-71 0 -110 -30t-40 -80h-57q3 76 61.5 118t148.5 42q88 0 142 -44t54 -139v-241q0 -36 2.5 -67.5t6.5 -38.5h-57q-3 11 -5.5 38t-2.5 63h-4q-17 -49 -68 -79t-117 -30zM227 41
q78 0 123 41t45 104v69h-146q-71 0 -112 -26t-41 -80q0 -50 33.5 -79t97.5 -29z" />
    <glyph glyph-name="aacute.ss01.BRACKET.varAlt01" horiz-adv-x="543" 
d="M209 -8q-77 0 -124.5 41.5t-47.5 108.5q0 79 56 121t151 42h151v43q0 59 -33 95.5t-107 36.5q-71 0 -110 -30t-40 -80h-57q3 76 61.5 118t148.5 42q88 0 142 -44t54 -139v-241q0 -36 2.5 -67.5t6.5 -38.5h-57q-3 11 -5.5 38t-2.5 63h-4q-17 -49 -68 -79t-117 -30zM227 41
q78 0 123 41t45 104v69h-146q-71 0 -112 -26t-41 -80q0 -50 33.5 -79t97.5 -29zM238 592l64 138h63l-82 -138h-45z" />
    <glyph glyph-name="acircumflex.ss01.BRACKET.varAlt01" horiz-adv-x="543" 
d="M209 -8q-77 0 -124.5 41.5t-47.5 108.5q0 79 56 121t151 42h151v43q0 59 -33 95.5t-107 36.5q-71 0 -110 -30t-40 -80h-57q3 76 61.5 118t148.5 42q88 0 142 -44t54 -139v-241q0 -36 2.5 -67.5t6.5 -38.5h-57q-3 11 -5.5 38t-2.5 63h-4q-17 -49 -68 -79t-117 -30zM227 41
q78 0 123 41t45 104v69h-146q-71 0 -112 -26t-41 -80q0 -50 33.5 -79t97.5 -29zM127 592l111 138h50l112 -138h-59l-78 100l-78 -100h-58z" />
    <glyph glyph-name="adieresis.ss01.BRACKET.varAlt01" horiz-adv-x="543" 
d="M209 -8q-77 0 -124.5 41.5t-47.5 108.5q0 79 56 121t151 42h151v43q0 59 -33 95.5t-107 36.5q-71 0 -110 -30t-40 -80h-57q3 76 61.5 118t148.5 42q88 0 142 -44t54 -139v-241q0 -36 2.5 -67.5t6.5 -38.5h-57q-3 11 -5.5 38t-2.5 63h-4q-17 -49 -68 -79t-117 -30zM227 41
q78 0 123 41t45 104v69h-146q-71 0 -112 -26t-41 -80q0 -50 33.5 -79t97.5 -29zM149 614v116h56v-116h-56zM320 614v116h57v-116h-57z" />
    <glyph glyph-name="agrave.ss01.BRACKET.varAlt01" horiz-adv-x="543" 
d="M209 -8q-77 0 -124.5 41.5t-47.5 108.5q0 79 56 121t151 42h151v43q0 59 -33 95.5t-107 36.5q-71 0 -110 -30t-40 -80h-57q3 76 61.5 118t148.5 42q88 0 142 -44t54 -139v-241q0 -36 2.5 -67.5t6.5 -38.5h-57q-3 11 -5.5 38t-2.5 63h-4q-17 -49 -68 -79t-117 -30zM227 41
q78 0 123 41t45 104v69h-146q-71 0 -112 -26t-41 -80q0 -50 33.5 -79t97.5 -29zM242 592l-82 138h63l64 -138h-45z" />
    <glyph glyph-name="aring.ss01.BRACKET.varAlt01" horiz-adv-x="543" 
d="M209 -8q-77 0 -124.5 41.5t-47.5 108.5q0 79 56 121t151 42h151v43q0 59 -33 95.5t-107 36.5q-71 0 -110 -30t-40 -80h-57q3 76 61.5 118t148.5 42q88 0 142 -44t54 -139v-241q0 -36 2.5 -67.5t6.5 -38.5h-57q-3 11 -5.5 38t-2.5 63h-4q-17 -49 -68 -79t-117 -30zM227 41
q78 0 123 41t45 104v69h-146q-71 0 -112 -26t-41 -80q0 -50 33.5 -79t97.5 -29zM265 598q-44 0 -71 25.5t-27 67.5q0 43 27 68.5t71 25.5t71 -25.5t27 -68.5q0 -42 -27 -67.5t-71 -25.5zM265 634q26 0 42 16t16 41q0 26 -16 41.5t-42 15.5t-42 -15.5t-16 -41.5q0 -25 16 -41
t42 -16z" />
    <glyph glyph-name="atilde.ss01.BRACKET.varAlt01" horiz-adv-x="543" 
d="M209 -8q-77 0 -124.5 41.5t-47.5 108.5q0 79 56 121t151 42h151v43q0 59 -33 95.5t-107 36.5q-71 0 -110 -30t-40 -80h-57q3 76 61.5 118t148.5 42q88 0 142 -44t54 -139v-241q0 -36 2.5 -67.5t6.5 -38.5h-57q-3 11 -5.5 38t-2.5 63h-4q-17 -49 -68 -79t-117 -30zM227 41
q78 0 123 41t45 104v69h-146q-71 0 -112 -26t-41 -80q0 -50 33.5 -79t97.5 -29zM320 617q-27 1 -47 8t-37.5 14t-37.5 7q-33 0 -56 -30l-26 17q19 33 39 46.5t48 13.5q20 0 40 -7.5t41 -15t42 -7.5q33 0 56 32l27 -18q-17 -32 -39 -46t-50 -14z" />
    <glyph glyph-name="cent.BRACKET.varAlt01" horiz-adv-x="558" 
d="M258 -85v78q-65 8 -113 42.5t-74.5 92t-26.5 131.5t26 131.5t74 93t114 43.5v78h43v-76q58 -2 103 -24.5t73.5 -62t33.5 -91.5h-57q-11 61 -56 93.5t-107 32.5q-88 0 -138 -60.5t-50 -157.5q0 -101 51.5 -158t135.5 -57q69 0 114 37t52 98h58q-8 -83 -66.5 -133.5
t-146.5 -53.5v-77h-43z" />
    <glyph glyph-name="dollar.BRACKET.varAlt01" horiz-adv-x="629" 
d="M293 -85v77q-124 7 -182 71.5t-60 162.5h64q3 -85 51 -134t151 -49q88 0 142.5 35t54.5 108q0 50 -20 81t-64.5 49.5t-119.5 32.5q-79 15 -133 36t-82 58.5t-28 99.5q0 85 59.5 137.5t166.5 56.5v77h43v-78q105 -6 161 -62.5t58 -146.5h-64q-2 78 -51 119t-134 41
q-83 0 -128.5 -37.5t-45.5 -98.5q0 -48 20.5 -74.5t66 -41.5t119.5 -30q48 -9 91.5 -21.5t77 -35t52.5 -60.5t19 -98q0 -86 -62.5 -140t-179.5 -58v-77h-43z" />
    </font>
</defs>
</svg>
