<svg width="100" height="100" viewBox="0 0 100 100" fill="none" xmlns="http://www.w3.org/2000/svg">
<path d="M30.4212 58.3381C33.6393 65.6577 41.6172 70.8334 49.9983 70.8334C58.3437 70.8334 66.3062 65.6443 69.5522 58.3564" stroke="#524C9A" stroke-linecap="round"/>
<path fill-rule="evenodd" clip-rule="evenodd" d="M37.5 41.6667C39.8012 41.6667 41.6667 39.8012 41.6667 37.5C41.6667 35.1989 39.8012 33.3334 37.5 33.3334C35.1988 33.3334 33.3333 35.1989 33.3333 37.5C33.3333 39.8012 35.1988 41.6667 37.5 41.6667Z" fill="#524C9A"/>
<path fill-rule="evenodd" clip-rule="evenodd" d="M62.5 41.6667C64.8012 41.6667 66.6667 39.8012 66.6667 37.5C66.6667 35.1989 64.8012 33.3334 62.5 33.3334C60.1988 33.3334 58.3333 35.1989 58.3333 37.5C58.3333 39.8012 60.1988 41.6667 62.5 41.6667Z" fill="#524C9A"/>
<path fill-rule="evenodd" clip-rule="evenodd" d="M50 91.6667C73.0119 91.6667 91.6667 73.0119 91.6667 50C91.6667 26.9882 73.0119 8.33337 50 8.33337C26.9881 8.33337 8.33334 26.9882 8.33334 50C8.33334 73.0119 26.9881 91.6667 50 91.6667Z" stroke="#524C9A"/>
</svg>
