<svg width="100" height="100" viewBox="0 0 100 100" fill="none" xmlns="http://www.w3.org/2000/svg">
<path d="M33.3333 52.0834L43.75 62.5L66.6667 39.5834" stroke="#524C9A" stroke-linecap="round"/>
<path d="M50 91.6667C56.2516 91.6667 61.4314 87.0773 62.3539 81.0839C62.4164 80.6777 62.9126 80.4722 63.244 80.7152C68.1343 84.3009 75.0421 83.8835 79.4627 79.4629C83.8833 75.0423 84.3007 68.1344 80.7149 63.2441C80.4719 62.9127 80.6775 62.4165 81.0836 62.354C87.0772 61.4316 91.6667 56.2518 91.6667 50C91.6667 43.7484 87.0773 38.5686 81.0838 37.6461C80.6777 37.5836 80.4721 37.0875 80.7151 36.7561C84.3009 31.8657 83.8835 24.9579 79.4629 20.5373C75.0422 16.1167 68.1343 15.6993 63.244 19.2851C62.9126 19.5281 62.4164 19.3225 62.3539 18.9164C61.4315 12.9228 56.2517 8.33337 50 8.33337C43.7483 8.33337 38.5686 12.9228 37.6461 18.9162C37.5836 19.3224 37.0874 19.5279 36.756 19.2849C31.8657 15.6991 24.9578 16.1166 20.5372 20.5372C16.1166 24.9578 15.6992 31.8657 19.285 36.756C19.528 37.0874 19.3225 37.5836 18.9163 37.6461C12.9228 38.5686 8.33331 43.7483 8.33331 50C8.33331 56.2517 12.9227 61.4314 18.9162 62.3539C19.3223 62.4165 19.5278 62.9126 19.2848 63.244C15.6991 68.1343 16.1165 75.0422 20.5371 79.4628C24.9577 83.8834 31.8656 84.3008 36.756 80.715C37.0874 80.472 37.5835 80.6775 37.6461 81.0837C38.5685 87.0772 43.7483 91.6667 50 91.6667Z" stroke="#524C9A" stroke-linecap="round"/>
</svg>
